<svg width="41" height="49" viewBox="0 0 41 49" fill="none" xmlns="http://www.w3.org/2000/svg">
<path d="M0.355225 7C0.355225 3.13401 3.48923 0 7.35522 0H41.6448C45.5108 0 48.6448 3.13401 48.6448 7V41.2896C48.6448 45.1555 45.5108 48.2896 41.6448 48.2896H7.35523C3.48923 48.2896 0.355225 45.1555 0.355225 41.2896V7Z" fill="white"/>
<g clip-path="url(#clip0_1742_2917)">
<path d="M38.8094 26.4043C40.1369 18.2266 34.5836 10.5211 26.4059 9.19368C18.2282 7.86625 10.5227 13.4195 9.19528 21.5972C7.86784 29.7749 13.4211 37.4804 21.5988 38.8078C29.7765 40.1353 37.482 34.582 38.8094 26.4043Z" fill="#F16D24"/>
<path d="M31.8484 11.198C33.3425 13.5298 34.2084 16.3033 34.2084 19.2775C34.2084 27.561 27.4928 34.2784 19.2075 34.2784C16.3301 34.2784 13.6429 33.4671 11.3604 32.0627C14.0265 36.2247 18.6918 38.9824 24.0013 38.9824C32.2849 38.9824 39.0022 32.2669 39.0022 23.9815C39.0022 18.5735 36.1407 13.836 31.8502 11.1963L31.8484 11.198Z" fill="#EF6421"/>
<path d="M11.0383 25.583C11.0383 17.8907 17.2751 11.6556 24.9656 11.6556C29.462 11.6556 33.4586 13.7868 36.0051 17.0935C33.6012 12.9174 29.0925 10.1069 23.9291 10.1069C16.2386 10.1069 10.0017 16.342 10.0017 24.0343C10.0017 27.2302 11.0787 30.1744 12.8896 32.5238C11.7123 30.4806 11.0383 28.1101 11.0383 25.583Z" fill="#F2824E"/>
<path d="M18.4733 23.0716C19.0837 23.0716 19.5785 22.2372 19.5785 21.2079C19.5785 20.1786 19.0837 19.3442 18.4733 19.3442C17.863 19.3442 17.3682 20.1786 17.3682 21.2079C17.3682 22.2372 17.863 23.0716 18.4733 23.0716Z" fill="#303030"/>
<path d="M30.632 21.2079C30.632 22.2374 30.1375 23.0716 29.5268 23.0716C28.9161 23.0716 28.4216 22.2374 28.4216 21.2079C28.4216 20.1784 28.9161 19.3442 29.5268 19.3442C30.1375 19.3442 30.632 20.1784 30.632 21.2079Z" fill="#303030"/>
<path d="M30.1484 30.6673C30.5355 31.0421 31.1532 30.6268 30.9544 30.127C29.8457 27.357 27.139 25.4019 23.9731 25.4019C20.8071 25.4019 18.1903 27.2937 17.0499 29.9898C16.8422 30.4808 17.4652 30.9066 17.8488 30.5353C20.0434 28.4077 24.7052 25.379 30.1484 30.6673Z" fill="#5E4939"/>
<path d="M18.2335 15.2606L17.228 16.2661L20.5842 19.6222L21.5896 18.6168L18.2335 15.2606Z" fill="#303030"/>
<path d="M30.7726 16.2662L29.7671 15.2607L26.411 18.6169L27.4164 19.6223L30.7726 16.2662Z" fill="#303030"/>
</g>
<defs>
<clipPath id="clip0_1742_2917">
<rect width="30" height="30" fill="white" transform="translate(9.00024 9)"/>
</clipPath>
</defs>
</svg>
