<svg width="49" height="49" viewBox="0 0 49 49" fill="none" xmlns="http://www.w3.org/2000/svg">
<path d="M0.355225 7C0.355225 3.13401 3.48923 0 7.35522 0H41.6448C45.5108 0 48.6448 3.13401 48.6448 7V41.2896C48.6448 45.1555 45.5108 48.2896 41.6448 48.2896H7.35523C3.48923 48.2896 0.355225 45.1555 0.355225 41.2896V7Z" fill="white"/>
<g clip-path="url(#clip0_1742_2876)">
<path d="M34.6079 34.6082C40.4661 28.75 40.4661 19.252 34.6079 13.3938C28.7497 7.53555 19.2517 7.53555 13.3935 13.3938C7.53527 19.252 7.53527 28.75 13.3935 34.6082C19.2517 40.4664 28.7497 40.4664 34.6079 34.6082Z" fill="#FFD05D"/>
<path d="M31.8483 11.198C33.3424 13.5298 34.2082 16.3033 34.2082 19.2775C34.2082 27.561 27.4927 34.2784 19.2074 34.2784C16.33 34.2784 13.6427 33.4671 11.3602 32.0627C14.0264 36.2247 18.6917 38.9824 24.0012 38.9824C32.2847 38.9824 39.002 32.2669 39.002 23.9815C39.002 18.5735 36.1405 13.836 31.8501 11.1963L31.8483 11.198Z" fill="#FDC453"/>
<path d="M11.0381 25.583C11.0381 17.8907 17.275 11.6556 24.9655 11.6556C29.4619 11.6556 33.4585 13.7868 36.005 17.0935C33.601 12.9174 29.0923 10.1069 23.929 10.1069C16.2367 10.1069 10.0016 16.342 10.0016 24.0343C10.0016 27.2302 11.0786 30.1744 12.8895 32.5238C11.7122 30.4806 11.0381 28.1101 11.0381 25.583Z" fill="#FFD77F"/>
<path d="M19.5786 20.3617C19.5786 21.3912 19.0841 22.2254 18.4735 22.2254C17.8628 22.2254 17.3683 21.3912 17.3683 20.3617C17.3683 19.3322 17.8628 18.498 18.4735 18.498C19.0841 18.498 19.5786 19.3322 19.5786 20.3617Z" fill="#303030"/>
<path d="M30.6322 20.3617C30.6322 21.3912 30.1377 22.2254 29.5271 22.2254C28.9164 22.2254 28.4219 21.3912 28.4219 20.3617C28.4219 19.3322 28.9164 18.498 29.5271 18.498C30.1377 18.498 30.6322 19.3322 30.6322 20.3617Z" fill="#303030"/>
<path d="M13.9208 25.4194C14.4927 30.4807 18.785 34.4157 24.0011 34.4157C29.2173 34.4157 33.5096 30.4807 34.0797 25.4194H13.9208Z" fill="#695342"/>
<path d="M17.0375 31.644C18.8536 33.3599 21.3033 34.414 23.9994 34.414C26.6955 34.414 28.934 33.4496 30.7238 31.8623L30.6305 31.644C23.8621 28.3426 17.129 31.5983 17.0375 31.644Z" fill="#F06669"/>
</g>
<defs>
<clipPath id="clip0_1742_2876">
<rect width="30" height="30" fill="white" transform="translate(9.00024 9)"/>
</clipPath>
</defs>
</svg>
