<svg width="20" height="20" viewBox="0 0 20 20" fill="none" xmlns="http://www.w3.org/2000/svg">
<g clip-path="url(#clip0_2114_5864)">
<path d="M17.0718 17.0721C20.9772 13.1666 20.9772 6.8346 17.0718 2.92913C13.1663 -0.976344 6.83428 -0.976344 2.92881 2.92913C-0.976659 6.8346 -0.976659 13.1666 2.92881 17.0721C6.83428 20.9776 13.1663 20.9776 17.0718 17.0721Z" fill="#FFD05D"/>
<path d="M15.232 1.46541C16.2281 3.01993 16.8053 4.86894 16.8053 6.85169C16.8053 12.3741 12.3283 16.8523 6.80472 16.8523C4.8865 16.8523 3.09498 16.3114 1.5733 15.3752C3.35074 18.1499 6.46097 19.9883 10.0006 19.9883C15.523 19.9883 20.0012 15.5113 20.0012 9.98773C20.0012 6.3824 18.0935 3.22407 15.2332 1.46423L15.232 1.46541Z" fill="#FDC453"/>
<path d="M1.3586 11.0554C1.3586 5.92722 5.51652 1.77048 10.6435 1.77048C13.6411 1.77048 16.3055 3.19125 18.0032 5.39575C16.4005 2.61168 13.3947 0.738037 9.95249 0.738037C4.82549 0.738037 0.667572 4.89478 0.667572 10.023C0.667572 12.1535 1.38559 14.1163 2.59284 15.6826C1.80795 14.3205 1.3586 12.7401 1.3586 11.0554V11.0554Z" fill="#FFD77F"/>
<path d="M7.77281 8.54256C7.97567 7.29282 7.12701 6.11524 5.87726 5.91238C4.62751 5.70952 3.44994 6.55819 3.24708 7.80793C3.04421 9.05768 3.89288 10.2353 5.14263 10.4381C6.39238 10.641 7.56995 9.79231 7.77281 8.54256Z" fill="white"/>
<path d="M7.11797 6.54192C6.70382 6.13481 6.13716 5.88257 5.51065 5.88257C5.08712 5.88257 4.69291 5.99872 4.35268 6.19934C4.28346 6.2885 4.23887 6.38823 4.22831 6.49617C4.18373 6.97484 4.80085 7.42301 5.60686 7.49927C6.41286 7.57436 7.10272 7.2482 7.1473 6.76953C7.15434 6.69209 7.14261 6.61701 7.11797 6.54192V6.54192Z" fill="#303030"/>
<path d="M16.1123 9.79571C17.0075 8.90044 17.0075 7.44892 16.1123 6.55365C15.217 5.65838 13.7655 5.65838 12.8702 6.55365C11.9749 7.44892 11.9749 8.90044 12.8702 9.79571C13.7655 10.691 15.217 10.691 16.1123 9.79571Z" fill="white"/>
<path d="M16.0979 6.54192C15.6837 6.13481 15.117 5.88257 14.4905 5.88257C14.067 5.88257 13.6728 5.99872 13.3326 6.19934C13.2633 6.28851 13.2188 6.38823 13.2082 6.49617C13.1636 6.97484 13.7807 7.42302 14.5867 7.49928C15.3928 7.57436 16.0826 7.2482 16.1272 6.76953C16.1342 6.6921 16.1225 6.61701 16.0979 6.54192V6.54192Z" fill="#303030"/>
<path d="M13.7221 12.2918C13.2446 11.819 12.5911 11.4718 11.832 11.2864C11.1386 11.1198 10.3936 11.1069 9.6756 11.2465C8.97401 11.3826 8.29002 11.6665 7.6952 12.0678C7.064 12.4983 6.57477 13.0134 6.2404 13.5976C6.18877 13.6868 6.20285 13.7994 6.27325 13.8745C6.319 13.9226 6.38118 13.9484 6.44454 13.9484C6.47973 13.9484 6.51493 13.9402 6.54778 13.9238L6.76717 13.8159C7.28222 13.5613 7.76794 13.3208 8.26187 13.1272C8.82619 12.9019 9.39168 12.7341 9.9431 12.6286C10.5168 12.5183 11.0999 12.4678 11.6748 12.4796C12.2086 12.4878 12.7764 12.5523 13.5156 12.6884C13.6165 12.7072 13.7185 12.6579 13.7666 12.5664C13.8147 12.4749 13.7972 12.3634 13.7232 12.2907L13.7221 12.2918Z" fill="#5E4939"/>
</g>
<defs>
<clipPath id="clip0_2114_5864">
<rect width="20" height="20" fill="white"/>
</clipPath>
</defs>
</svg>
