<svg width="20" height="20" viewBox="0 0 20 20" fill="none" xmlns="http://www.w3.org/2000/svg">
<g clip-path="url(#clip0_2114_5829)">
<path d="M17.0718 17.0721C20.9772 13.1666 20.9772 6.8346 17.0718 2.92913C13.1663 -0.976344 6.83428 -0.976344 2.92881 2.92913C-0.976659 6.8346 -0.976659 13.1666 2.92881 17.0721C6.83428 20.9776 13.1663 20.9776 17.0718 17.0721Z" fill="#FFD05D"/>
<path d="M15.232 1.46541C16.2281 3.01993 16.8053 4.86894 16.8053 6.85169C16.8053 12.3741 12.3283 16.8523 6.80472 16.8523C4.8865 16.8523 3.09498 16.3114 1.5733 15.3752C3.35074 18.1499 6.46097 19.9883 10.0006 19.9883C15.523 19.9883 20.0012 15.5113 20.0012 9.98773C20.0012 6.3824 18.0935 3.22407 15.2332 1.46423L15.232 1.46541Z" fill="#FDC453"/>
<path d="M1.3586 11.0554C1.3586 5.92722 5.51652 1.77048 10.6435 1.77048C13.6411 1.77048 16.3055 3.19125 18.0032 5.39575C16.4005 2.61168 13.3947 0.738037 9.95249 0.738037C4.82431 0.738037 0.667572 4.89478 0.667572 10.023C0.667572 12.1535 1.38559 14.1163 2.59284 15.6826C1.80795 14.3205 1.3586 12.7401 1.3586 11.0554V11.0554Z" fill="#FFD77F"/>
<path d="M7.05228 7.57436C7.05228 8.26069 6.7226 8.8168 6.31549 8.8168C5.90838 8.8168 5.5787 8.26069 5.5787 7.57436C5.5787 6.88802 5.90838 6.33191 6.31549 6.33191C6.7226 6.33191 7.05228 6.88802 7.05228 7.57436Z" fill="#303030"/>
<path d="M14.4213 7.57436C14.4213 8.26069 14.0917 8.8168 13.6845 8.8168C13.2774 8.8168 12.9478 8.26069 12.9478 7.57436C12.9478 6.88802 13.2774 6.33191 13.6845 6.33191C14.0917 6.33191 14.4213 6.88802 14.4213 7.57436Z" fill="#303030"/>
<path d="M3.28033 10.9462C3.66163 14.3204 6.52313 16.9437 10.0006 16.9437C13.478 16.9437 16.3395 14.3204 16.7196 10.9462H3.28033V10.9462Z" fill="#695342"/>
<path d="M5.35812 15.0959C6.56889 16.2398 8.20203 16.9425 9.99941 16.9425C11.7968 16.9425 13.2891 16.2996 14.4823 15.2413L14.4201 15.0959C9.9079 12.8949 5.41913 15.0654 5.35812 15.0959Z" fill="#F06669"/>
</g>
<defs>
<clipPath id="clip0_2114_5829">
<rect width="20" height="20" fill="white"/>
</clipPath>
</defs>
</svg>
