<svg width="20" height="20" viewBox="0 0 20 20" fill="none" xmlns="http://www.w3.org/2000/svg">
<g clip-path="url(#clip0_2114_5877)">
<path d="M17.0718 17.0721C20.9772 13.1666 20.9772 6.8346 17.0718 2.92913C13.1663 -0.976344 6.83428 -0.976344 2.92881 2.92913C-0.976659 6.8346 -0.976659 13.1666 2.92881 17.0721C6.83428 20.9776 13.1663 20.9776 17.0718 17.0721Z" fill="#FFD05D"/>
<path d="M15.232 1.46541C16.2281 3.01993 16.8053 4.86894 16.8053 6.85169C16.8053 12.3741 12.3283 16.8523 6.80472 16.8523C4.8865 16.8523 3.09498 16.3114 1.5733 15.3752C3.35074 18.1499 6.46097 19.9883 10.0006 19.9883C15.523 19.9883 20.0012 15.5113 20.0012 9.98773C20.0012 6.3824 18.0935 3.22407 15.2332 1.46423L15.232 1.46541Z" fill="#FDC453"/>
<path d="M1.3586 11.0554C1.3586 5.92722 5.51652 1.77048 10.6435 1.77048C13.6411 1.77048 16.3055 3.19125 18.0032 5.39575C16.4005 2.61168 13.3947 0.738037 9.95249 0.738037C4.82431 0.738037 0.667572 4.89478 0.667572 10.023C0.667572 12.1535 1.38559 14.1163 2.59284 15.6826C1.80795 14.3205 1.3586 12.7401 1.3586 11.0554V11.0554Z" fill="#FFD77F"/>
<path d="M5.90134 11.513C5.64323 11.2631 5.23142 11.54 5.364 11.8732C6.10313 13.7198 7.90756 15.0233 10.0182 15.0233C12.1288 15.0233 13.8734 13.7621 14.6337 11.9647C14.7721 11.6373 14.3568 11.3534 14.101 11.601C12.638 13.0194 9.53013 15.0385 5.90134 11.513Z" fill="#5E4939"/>
<path d="M7.05228 8.21022C7.05228 8.89656 6.7226 9.45267 6.31549 9.45267C5.90838 9.45267 5.5787 8.89656 5.5787 8.21022C5.5787 7.52388 5.90838 6.96777 6.31549 6.96777C6.7226 6.96777 7.05228 7.52388 7.05228 8.21022Z" fill="#303030"/>
<path d="M14.4213 8.21022C14.4213 8.89656 14.0917 9.45267 13.6845 9.45267C13.2774 9.45267 12.9478 8.89656 12.9478 8.21022C12.9478 7.52388 13.2774 6.96777 13.6845 6.96777C14.0917 6.96777 14.4213 7.52388 14.4213 8.21022Z" fill="#303030"/>
</g>
<defs>
<clipPath id="clip0_2114_5877">
<rect width="20" height="20" fill="white"/>
</clipPath>
</defs>
</svg>
