<svg width="20" height="20" viewBox="0 0 20 20" fill="none" xmlns="http://www.w3.org/2000/svg">
<g clip-path="url(#clip0_2114_5839)">
<path d="M17.0718 17.0721C20.9772 13.1666 20.9772 6.8346 17.0718 2.92913C13.1663 -0.976344 6.83428 -0.976344 2.92881 2.92913C-0.976659 6.8346 -0.976659 13.1666 2.92881 17.0721C6.83428 20.9776 13.1663 20.9776 17.0718 17.0721Z" fill="#FFD05D"/>
<path d="M15.232 1.46541C16.2281 3.01993 16.8053 4.86894 16.8053 6.85169C16.8053 12.3741 12.3283 16.8523 6.80472 16.8523C4.8865 16.8523 3.09498 16.3114 1.5733 15.3752C3.35074 18.1499 6.46097 19.9883 10.0006 19.9883C15.523 19.9883 20.0012 15.5113 20.0012 9.98773C20.0012 6.3824 18.0935 3.22407 15.2332 1.46423L15.232 1.46541Z" fill="#FDC453"/>
<path d="M1.3586 11.0554C1.3586 5.92722 5.51652 1.77048 10.6435 1.77048C13.6411 1.77048 16.3055 3.19125 18.0032 5.39575C16.4005 2.61168 13.3947 0.738037 9.95249 0.738037C4.82549 0.738037 0.667572 4.89478 0.667572 10.023C0.667572 12.1535 1.38559 14.1163 2.59284 15.6826C1.80795 14.3205 1.3586 12.7401 1.3586 11.0554V11.0554Z" fill="#FFD77F"/>
<path d="M7.05225 7.57436C7.05225 8.26069 6.72257 8.8168 6.31546 8.8168C5.90835 8.8168 5.57867 8.26069 5.57867 7.57436C5.57867 6.88802 5.90835 6.33191 6.31546 6.33191C6.72257 6.33191 7.05225 6.88802 7.05225 7.57436Z" fill="#303030"/>
<path d="M14.4213 7.57436C14.4213 8.26069 14.0916 8.8168 13.6845 8.8168C13.2774 8.8168 12.9477 8.26069 12.9477 7.57436C12.9477 6.88802 13.2774 6.33191 13.6845 6.33191C14.0916 6.33191 14.4213 6.88802 14.4213 7.57436Z" fill="#303030"/>
<path d="M15.9066 5.47777C15.7987 5.44609 15.6943 5.41676 15.5922 5.3886C15.3669 5.32525 15.1557 5.26659 14.9504 5.19502C14.6442 5.09177 14.3685 4.97445 14.1081 4.83718C13.8335 4.6917 13.5848 4.53097 13.3466 4.34326C13.0862 4.14146 12.8445 3.90447 12.6216 3.67921C12.6087 3.6663 12.5899 3.66278 12.5735 3.66982C12.5571 3.67686 12.5465 3.69329 12.5477 3.71206C12.5641 4.05347 12.699 4.40661 12.9384 4.73277C13.1566 5.02842 13.4499 5.27715 13.7842 5.45196C14.0998 5.61738 14.4518 5.71945 14.8061 5.74526C14.8202 5.74526 14.8331 5.74761 14.8472 5.74761C15.2449 5.76873 15.6027 5.70537 15.9137 5.55872C15.9301 5.55051 15.9395 5.53408 15.9383 5.51648C15.9371 5.49888 15.9242 5.48363 15.9066 5.47777V5.47777Z" fill="#414042"/>
<path d="M4.09339 5.47777C4.20133 5.44609 4.30574 5.41676 4.40782 5.3886C4.63307 5.32525 4.84426 5.26659 5.04957 5.19502C5.35578 5.09177 5.63149 4.97445 5.89195 4.83718C6.16648 4.6917 6.41521 4.53097 6.65337 4.34326C6.91383 4.14146 7.15551 3.90447 7.37843 3.67921C7.39133 3.6663 7.4101 3.66278 7.42653 3.66982C7.44295 3.67686 7.45351 3.69329 7.45234 3.71206C7.43591 4.05347 7.30099 4.40661 7.06165 4.73277C6.84343 5.02842 6.55013 5.27715 6.21576 5.45196C5.90016 5.61738 5.54819 5.71945 5.19388 5.74526C5.1798 5.74526 5.16689 5.74761 5.15281 5.74761C4.75509 5.76873 4.39726 5.70537 4.08635 5.55872C4.06993 5.55051 4.06054 5.53408 4.06171 5.51648C4.06289 5.49888 4.07579 5.48363 4.09339 5.47777V5.47777Z" fill="#414042"/>
<path d="M6.21928 14.304C6.11486 14.3157 6.05503 14.1866 6.0562 14.0904C6.06089 13.6458 6.17939 13.1917 6.40817 12.7412C6.62521 12.3271 6.93612 11.9423 7.30803 11.6278C8.04599 11.0107 9.02681 10.6552 9.99942 10.6517C10.9896 10.6329 11.9787 10.9896 12.7096 11.622C13.4686 12.2708 13.9309 13.1929 13.945 14.0881C13.9462 14.1902 13.8781 14.3227 13.7643 14.3016C13.6704 14.2852 13.5942 14.1573 13.525 14.0998C13.4182 14.0107 13.3079 13.9274 13.1941 13.8476C12.9677 13.688 12.7307 13.5449 12.4855 13.4147C11.5844 12.9336 10.5637 12.6744 9.54068 12.7635C8.88954 12.8198 8.25717 13.0158 7.67643 13.3138C7.32798 13.4921 6.99713 13.7056 6.68622 13.9438C6.56773 14.0341 6.37414 14.2758 6.22866 14.304C6.22514 14.304 6.2228 14.304 6.21928 14.3051V14.304Z" fill="#5E4939"/>
</g>
<defs>
<clipPath id="clip0_2114_5839">
<rect width="20" height="20" fill="white"/>
</clipPath>
</defs>
</svg>
