<svg width="42" height="55" viewBox="0 0 42 55" fill="none" xmlns="http://www.w3.org/2000/svg">
<g clip-path="url(#clip0_2248_1992)">
<path d="M10.821 30.5275L4.49569 35.1718L0.320801 29.2111L11.0229 21.4382C10.3752 21.4408 9.33405 21.3648 8.16445 20.8954C6.72212 20.3185 5.79903 19.4321 5.33749 18.9181C9.56483 15.3437 13.7922 11.7694 18.0195 8.19238C18.4968 8.81652 19.6742 10.5211 19.8264 13.0176C19.968 15.3463 19.1445 17.0824 18.7616 17.78L34.0687 18.1209L33.9087 25.2958L26.2539 25.1253L20.162 19.2459L10.4879 23.8168L10.8157 30.5249L10.821 30.5275Z" fill="url(#paint0_linear_2248_1992)"/>
<path d="M9.29209 13.2643L21.9741 2.53856C21.3473 1.97474 19.1471 0.144295 15.8088 0.00792925C13.2283 -0.0969675 11.3113 0.86546 10.5141 1.32438C9.97129 1.77806 8.02021 3.52459 7.5272 6.52202C6.92929 10.1619 8.94855 12.8237 9.29209 13.2616V13.2643Z" fill="url(#paint1_linear_2248_1992)"/>
<path d="M20.1332 20.6855L41.679 41.7462L33.4498 45.8713L29.7077 41.9586L21.0012 46.0706L21.3631 51.3443L13.6243 54.9999L11.4268 24.7975L20.1332 20.6855ZM20.1856 39.8318L25.5118 37.0783L18.4968 29.7434L20.1856 39.8318Z" fill="url(#paint2_linear_2248_1992)"/>
</g>
<defs>
<linearGradient id="paint0_linear_2248_1992" x1="-16.5532" y1="21.6821" x2="9.76422" y2="54.6018" gradientUnits="userSpaceOnUse">
<stop stop-color="#7740ED"/>
<stop offset="0.53125" stop-color="#9163F4"/>
<stop offset="1" stop-color="#BFA2FF"/>
</linearGradient>
<linearGradient id="paint1_linear_2248_1992" x1="0.138806" y1="6.63213" x2="13.3459" y2="21.1263" gradientUnits="userSpaceOnUse">
<stop stop-color="#7740ED"/>
<stop offset="0.53125" stop-color="#9163F4"/>
<stop offset="1" stop-color="#BFA2FF"/>
</linearGradient>
<linearGradient id="paint2_linear_2248_1992" x1="-3.69937" y1="37.8427" x2="30.3444" y2="67.8564" gradientUnits="userSpaceOnUse">
<stop stop-color="#7740ED"/>
<stop offset="0.53125" stop-color="#9163F4"/>
<stop offset="1" stop-color="#BFA2FF"/>
</linearGradient>
<clipPath id="clip0_2248_1992">
<rect width="41.3582" height="55" fill="white" transform="translate(0.320801)"/>
</clipPath>
</defs>
</svg>
