<svg width="49" height="49" viewBox="0 0 49 49" fill="none" xmlns="http://www.w3.org/2000/svg">
<rect x="0.5" y="0.5" width="48" height="48" rx="6" fill="#2962FF"/>
<path d="M23.8966 22.6059C19.1682 20.4567 15.9604 25.6228 13.5802 26.9044C11.914 27.8016 9.37238 28.4799 10.1414 26.0447L11.5279 23.5957C11.7843 12.7529 21.5249 12.8297 26.6515 13.4705C30.9619 10.4279 34.3945 10.8965 37.1974 11.2791L37.2893 11.2917C33.188 12.4452 31.5218 14.7522 33.8288 16.5465C35.8833 18.1445 39.101 21.4034 38.0816 26.0447C36.8595 31.6092 32.4936 35.9313 23.8966 38.5104C12.7205 40.6596 23.9561 35.1434 26.0458 33.3522C29.0548 30.7731 29.4846 27.7641 28.1951 25.185" stroke="#F5F7FF" stroke-width="2" stroke-linecap="round" stroke-linejoin="round"/>
</svg>
