<svg width="30" height="30" viewBox="0 0 30 30" fill="none" xmlns="http://www.w3.org/2000/svg">
<rect width="30" height="30" rx="15" fill="#E3D6FF"/>
<path d="M14.3478 7.39136C11.9504 7.39136 10 9.34179 10 11.7392H11.7391C11.7391 10.3009 12.9096 9.13049 14.3478 9.13049C15.7861 9.13049 16.9565 10.3009 16.9565 11.7392C16.9565 12.6687 16.5617 13.0131 15.6687 13.7001C15.3365 13.9557 14.9617 14.2444 14.6026 14.6027C13.4617 15.7427 13.4739 16.867 13.4783 16.9566V18.6957H15.2174V16.9487C15.2174 16.9279 15.2374 16.4261 15.8322 15.8322C16.1104 15.554 16.4252 15.3122 16.7287 15.0783C17.6504 14.3687 18.6957 13.5653 18.6957 11.7392C18.6957 9.34179 16.7452 7.39136 14.3478 7.39136ZM13.4783 19.5653H15.2174V21.3044H13.4783V19.5653Z" fill="white"/>
</svg>
