<svg width="30" height="30" viewBox="0 0 30 30" fill="none" xmlns="http://www.w3.org/2000/svg">
<g clip-path="url(#clip0_1755_8115)">
<path d="M25.6077 25.6081C31.4659 19.7499 31.4659 10.2518 25.6077 4.39363C19.7495 -1.46458 10.2514 -1.46458 4.39323 4.39363C-1.46497 10.2518 -1.46497 19.7499 4.39323 25.6081C10.2514 31.4663 19.7495 31.4663 25.6077 25.6081Z" fill="#FFD05D"/>
<path d="M22.848 2.19793C24.3421 4.52972 25.208 7.30322 25.208 10.2774C25.208 18.5609 18.4924 25.2782 10.2071 25.2782C7.32974 25.2782 4.64247 24.4669 2.35995 23.0626C5.02611 27.2246 9.69145 29.9823 15.0009 29.9823C23.2845 29.9823 30.0018 23.2667 30.0018 14.9814C30.0018 9.57342 27.1403 4.83593 22.8498 2.19617L22.848 2.19793Z" fill="#FDC453"/>
<path d="M2.03789 16.583C2.03789 8.89071 8.27476 2.65559 15.9653 2.65559C20.4617 2.65559 24.4583 4.78676 27.0047 8.0935C24.6008 3.9174 20.0921 1.10693 14.9287 1.10693C7.23822 1.10693 1.00134 7.34205 1.00134 15.0343C1.00134 18.2302 2.07837 21.1744 3.88924 23.5238C2.71191 21.4806 2.03789 19.1101 2.03789 16.583Z" fill="#FFD77F"/>
<path d="M11.6592 12.8137C11.9635 10.9391 10.6905 9.17274 8.81589 8.86845C6.94127 8.56416 5.17491 9.83716 4.87061 11.7118C4.56632 13.5864 5.83932 15.3528 7.71394 15.6571C9.58856 15.9613 11.3549 14.6883 11.6592 12.8137Z" fill="white"/>
<path d="M10.6769 9.81288C10.0557 9.20222 9.20572 8.82385 8.26596 8.82385C7.63066 8.82385 7.03935 8.99808 6.529 9.29901C6.42517 9.43276 6.3583 9.58234 6.34246 9.74425C6.27558 10.4623 7.20126 11.1345 8.41027 11.2489C9.61928 11.3615 10.6541 10.8723 10.7209 10.1543C10.7315 10.0381 10.7139 9.92551 10.6769 9.81288Z" fill="#303030"/>
<path d="M24.1684 14.6934C25.5113 13.3505 25.5113 11.1732 24.1684 9.83029C22.8255 8.48739 20.6482 8.48739 19.3053 9.83029C17.9624 11.1732 17.9624 13.3505 19.3053 14.6934C20.6482 16.0363 22.8255 16.0363 24.1684 14.6934Z" fill="white"/>
<path d="M24.1468 9.81288C23.5256 9.20222 22.6756 8.82385 21.7358 8.82385C21.1005 8.82385 20.5092 8.99808 19.9988 9.29901C19.895 9.43276 19.8281 9.58234 19.8123 9.74425C19.7454 10.4623 20.6711 11.1345 21.8801 11.2489C23.0891 11.3615 24.1239 10.8723 24.1908 10.1543C24.2013 10.0381 24.1837 9.92551 24.1468 9.81288Z" fill="#303030"/>
<path d="M20.5831 18.4378C19.8668 17.7286 18.8866 17.2077 17.748 16.9296C16.7079 16.6797 15.5904 16.6604 14.5134 16.8698C13.461 17.0739 12.435 17.4998 11.5428 18.1017C10.596 18.7476 9.86213 19.5201 9.36058 20.3965C9.28315 20.5303 9.30426 20.6992 9.40985 20.8118C9.47849 20.884 9.57176 20.9227 9.66679 20.9227C9.71959 20.9227 9.77238 20.9104 9.82166 20.8858L10.1507 20.7239C10.9233 20.342 11.6519 19.9812 12.3928 19.6908C13.2393 19.3529 14.0875 19.1013 14.9146 18.9429C15.7752 18.7775 16.6498 18.7018 17.5122 18.7194C18.3129 18.7317 19.1646 18.8285 20.2733 19.0326C20.4247 19.0608 20.5778 18.9869 20.65 18.8496C20.7221 18.7124 20.6957 18.5452 20.5848 18.4361L20.5831 18.4378Z" fill="#5E4939"/>
</g>
<defs>
<clipPath id="clip0_1755_8115">
<rect width="30" height="30" fill="white"/>
</clipPath>
</defs>
</svg>
