<svg width="30" height="30" viewBox="0 0 30 30" fill="none" xmlns="http://www.w3.org/2000/svg">
<rect width="30" height="30" rx="15" fill="#EF5DA8"/>
<path d="M13.4511 22.0669C13.4511 22.4777 13.6143 22.8717 13.9047 23.1621C14.1952 23.4526 14.5892 23.6158 15 23.6158C15.4108 23.6158 15.8048 23.4526 16.0952 23.1621C16.3857 22.8717 16.5489 22.4777 16.5489 22.0669C16.5489 21.6561 16.3857 21.2621 16.0952 20.9717C15.8048 20.6812 15.4108 20.518 15 20.518C14.5892 20.518 14.1952 20.6812 13.9047 20.9717C13.6143 21.2621 13.4511 21.6561 13.4511 22.0669ZM14.2255 18.001H15.7744C15.8809 18.001 15.9681 17.9139 15.9681 17.8074V6.57777C15.9681 6.47128 15.8809 6.38416 15.7744 6.38416H14.2255C14.119 6.38416 14.0319 6.47128 14.0319 6.57777V17.8074C14.0319 17.9139 14.119 18.001 14.2255 18.001Z" fill="white"/>
</svg>
