<svg width="30" height="30" viewBox="0 0 30 30" fill="none" xmlns="http://www.w3.org/2000/svg">
<g clip-path="url(#clip0_1755_8199)">
<path d="M20 24.1667L24.1667 20L5.00001 0.833374H0.833344V5.00004L20 24.1667Z" fill="#CCD6DD"/>
<path d="M0.833344 0.833374V5.00004L20 24.1667L22.0833 22.0834L0.833344 0.833374Z" fill="#9AAAB4"/>
<path d="M27.8533 27.34C28.09 27.1034 28.235 26.8184 28.2958 26.5334L23.9275 21.3709L23.3433 20.7859C22.8733 20.3159 22.035 20.3917 21.47 20.9567L20.9583 21.4667C20.3942 22.0309 20.3183 22.8692 20.7883 23.3392L21.4058 23.9567L26.5308 28.2942C26.8183 28.2342 27.1042 28.0884 27.3425 27.8509L27.8533 27.34Z" fill="#D99E82"/>
<path d="M27.8533 27.34C28.09 27.1033 28.235 26.8183 28.2958 26.5333L27.1775 25.2116L26.5633 28.2816C26.8392 28.2175 27.1142 28.0791 27.3425 27.85L27.8533 27.34ZM25.095 22.7516L24.355 26.4525L25.405 27.3408L26.0883 23.9241L25.095 22.7516ZM23.9275 21.3708L23.3433 20.7858C23.2637 20.709 23.1719 20.6459 23.0717 20.5991L22.2567 24.6758L23.3067 25.5641L24.1042 21.5783L23.9275 21.3708ZM21.9267 20.6308C21.7572 20.7133 21.6028 20.8238 21.47 20.9575L20.9583 21.4666C20.7574 21.6651 20.6108 21.9119 20.5325 22.1833C20.4142 22.6083 20.4942 23.0458 20.7883 23.3391L21.285 23.8358L21.9267 20.6308C21.9267 20.63 21.9267 20.63 21.9267 20.6308Z" fill="#BF6952"/>
<path d="M27.7083 30C28.974 30 30 28.9739 30 27.7083C30 26.4426 28.974 25.4166 27.7083 25.4166C26.4427 25.4166 25.4167 26.4426 25.4167 27.7083C25.4167 28.9739 26.4427 30 27.7083 30Z" fill="#8A4633"/>
<path d="M24.6883 18.6033C24.7684 18.6833 24.8319 18.7782 24.8753 18.8827C24.9186 18.9873 24.9409 19.0993 24.9409 19.2125C24.9409 19.3256 24.9186 19.4377 24.8753 19.5422C24.8319 19.6467 24.7684 19.7417 24.6883 19.8216L19.6116 24.8983C19.5317 24.9783 19.4367 25.0418 19.3322 25.0851C19.2276 25.1283 19.1156 25.1506 19.0025 25.1506C18.8893 25.1506 18.7773 25.1283 18.6728 25.0851C18.5683 25.0418 18.4733 24.9783 18.3933 24.8983C18.3133 24.8183 18.2499 24.7233 18.2066 24.6188C18.1633 24.5143 18.141 24.4023 18.141 24.2891C18.141 24.176 18.1633 24.064 18.2066 23.9595C18.2499 23.8549 18.3133 23.76 18.3933 23.68L23.47 18.6033C23.5499 18.5232 23.6449 18.4597 23.7494 18.4164C23.8539 18.373 23.966 18.3507 24.0791 18.3507C24.1923 18.3507 24.3044 18.373 24.4089 18.4164C24.5134 18.4597 24.6084 18.5232 24.6883 18.6033Z" fill="#FFAC33"/>
<path d="M18.3933 26.3559C19.1987 26.3559 19.8517 25.703 19.8517 24.8975C19.8517 24.0921 19.1987 23.4392 18.3933 23.4392C17.5879 23.4392 16.935 24.0921 16.935 24.8975C16.935 25.703 17.5879 26.3559 18.3933 26.3559Z" fill="#FFAC33"/>
<path d="M24.6883 20.0608C25.4937 20.0608 26.1466 19.4079 26.1466 18.6025C26.1466 17.7971 25.4937 17.1442 24.6883 17.1442C23.8829 17.1442 23.23 17.7971 23.23 18.6025C23.23 19.4079 23.8829 20.0608 24.6883 20.0608Z" fill="#FFAC33"/>
<path d="M18.3933 25.7309C18.8536 25.7309 19.2267 25.3578 19.2267 24.8975C19.2267 24.4373 18.8536 24.0642 18.3933 24.0642C17.9331 24.0642 17.56 24.4373 17.56 24.8975C17.56 25.3578 17.9331 25.7309 18.3933 25.7309Z" fill="#FFCC4D"/>
<path d="M24.6883 19.4358C25.1486 19.4358 25.5216 19.0627 25.5216 18.6025C25.5216 18.1423 25.1486 17.7692 24.6883 17.7692C24.2281 17.7692 23.855 18.1423 23.855 18.6025C23.855 19.0627 24.2281 19.4358 24.6883 19.4358Z" fill="#FFCC4D"/>
<path d="M28.2525 24.4516C28.3115 24.5106 28.3583 24.5806 28.3903 24.6577C28.4222 24.7348 28.4386 24.8174 28.4386 24.9008C28.4386 24.9842 28.4222 25.0668 28.3903 25.1439C28.3583 25.221 28.3115 25.291 28.2525 25.35L25.3558 28.2458C25.2969 28.3048 25.2268 28.3516 25.1498 28.3835C25.0727 28.4154 24.9901 28.4319 24.9067 28.4319C24.8233 28.4319 24.7407 28.4154 24.6636 28.3835C24.5865 28.3516 24.5165 28.3048 24.4575 28.2458C24.3985 28.1868 24.3517 28.1168 24.3198 28.0397C24.2879 27.9627 24.2715 27.8801 24.2715 27.7966C24.2715 27.7132 24.2879 27.6306 24.3198 27.5536C24.3517 27.4765 24.3985 27.4065 24.4575 27.3475L27.3542 24.4516C27.4131 24.3926 27.4832 24.3458 27.5602 24.3139C27.6373 24.2819 27.7199 24.2655 27.8033 24.2655C27.8868 24.2655 27.9694 24.2819 28.0464 24.3139C28.1235 24.3458 28.1935 24.3926 28.2525 24.4516Z" fill="#FFAC33"/>
<path d="M10 24.1667L5.83334 20L25 0.833374H29.1667V5.00004L10 24.1667Z" fill="#CCD6DD"/>
<path d="M29.1667 0.833374V5.00004L9.99999 24.1667L7.91666 22.0834L29.1667 0.833374Z" fill="#9AAAB4"/>
<path d="M2.14666 27.34C1.92438 27.1195 1.77069 26.8393 1.70416 26.5334L6.07249 21.3709L6.65666 20.7859C7.12666 20.3159 7.96499 20.3917 8.52999 20.9567L9.04083 21.4667C9.60499 22.0309 9.68083 22.8692 9.21083 23.3392L8.59333 23.9567L3.46833 28.2942C3.16048 28.2283 2.87845 28.0743 2.65666 27.8509L2.14666 27.34Z" fill="#D99E82"/>
<path d="M2.14666 27.34C1.92438 27.1194 1.77069 26.8393 1.70416 26.5333L2.8225 25.2116L3.43666 28.2816C3.14151 28.2139 2.87145 28.0643 2.6575 27.85L2.14666 27.34ZM4.905 22.7516L5.645 26.4525L4.595 27.3408L3.91166 23.9241L4.905 22.7516ZM6.0725 21.3708L6.65666 20.7858C6.73627 20.709 6.82807 20.6459 6.92833 20.5991L7.74333 24.6758L6.69333 25.5641L5.89583 21.5783L6.0725 21.3708ZM8.07333 20.6308C8.23583 20.71 8.39166 20.8183 8.53 20.9575L9.04083 21.4675C9.2525 21.6791 9.395 21.9291 9.46666 22.1841C9.585 22.6091 9.505 23.0466 9.21083 23.34L8.71416 23.8366L8.07333 20.6308C8.07333 20.63 8.07333 20.63 8.07333 20.6308Z" fill="#BF6952"/>
<path d="M2.29167 30C3.55732 30 4.58333 28.9739 4.58333 27.7083C4.58333 26.4426 3.55732 25.4166 2.29167 25.4166C1.02601 25.4166 0 26.4426 0 27.7083C0 28.9739 1.02601 30 2.29167 30Z" fill="#8A4633"/>
<path d="M5.31168 18.6033C5.2316 18.6833 5.16808 18.7782 5.12473 18.8827C5.08139 18.9873 5.05908 19.0993 5.05908 19.2125C5.05908 19.3256 5.08139 19.4377 5.12473 19.5422C5.16808 19.6467 5.2316 19.7417 5.31168 19.8216L10.3883 24.8983C10.4683 24.9783 10.5633 25.0418 10.6678 25.0851C10.7724 25.1283 10.8844 25.1506 10.9975 25.1506C11.1106 25.1506 11.2227 25.1283 11.3272 25.0851C11.4317 25.0418 11.5267 24.9783 11.6067 24.8983C11.6867 24.8183 11.7501 24.7233 11.7934 24.6188C11.8367 24.5143 11.859 24.4023 11.859 24.2891C11.859 24.176 11.8367 24.064 11.7934 23.9595C11.7501 23.8549 11.6867 23.76 11.6067 23.68L6.53001 18.6033C6.45006 18.5232 6.3551 18.4597 6.25058 18.4164C6.14605 18.373 6.034 18.3507 5.92085 18.3507C5.80769 18.3507 5.69564 18.373 5.59112 18.4164C5.48659 18.4597 5.39163 18.5232 5.31168 18.6033Z" fill="#FFAC33"/>
<path d="M11.6067 26.3559C12.4121 26.3559 13.065 25.703 13.065 24.8975C13.065 24.0921 12.4121 23.4392 11.6067 23.4392C10.8013 23.4392 10.1483 24.0921 10.1483 24.8975C10.1483 25.703 10.8013 26.3559 11.6067 26.3559Z" fill="#FFAC33"/>
<path d="M5.31167 20.0608C6.11708 20.0608 6.77 19.4079 6.77 18.6025C6.77 17.7971 6.11708 17.1442 5.31167 17.1442C4.50625 17.1442 3.85333 17.7971 3.85333 18.6025C3.85333 19.4079 4.50625 20.0608 5.31167 20.0608Z" fill="#FFAC33"/>
<path d="M11.6067 25.7309C12.0669 25.7309 12.44 25.3578 12.44 24.8975C12.44 24.4373 12.0669 24.0642 11.6067 24.0642C11.1464 24.0642 10.7733 24.4373 10.7733 24.8975C10.7733 25.3578 11.1464 25.7309 11.6067 25.7309Z" fill="#FFCC4D"/>
<path d="M5.31167 19.4358C5.7719 19.4358 6.145 19.0627 6.145 18.6025C6.145 18.1423 5.7719 17.7692 5.31167 17.7692C4.85143 17.7692 4.47833 18.1423 4.47833 18.6025C4.47833 19.0627 4.85143 19.4358 5.31167 19.4358Z" fill="#FFCC4D"/>
<path d="M1.74751 24.4516C1.6885 24.5106 1.64169 24.5806 1.60975 24.6577C1.57781 24.7348 1.56137 24.8174 1.56137 24.9008C1.56137 24.9842 1.57781 25.0668 1.60975 25.1439C1.64169 25.221 1.6885 25.291 1.74751 25.35L4.64418 28.2458C4.70316 28.3048 4.77319 28.3516 4.85026 28.3835C4.92733 28.4154 5.00993 28.4319 5.09335 28.4319C5.17676 28.4319 5.25936 28.4154 5.33643 28.3835C5.4135 28.3516 5.48353 28.3048 5.54251 28.2458C5.6015 28.1868 5.64829 28.1168 5.68021 28.0397C5.71213 27.9627 5.72856 27.8801 5.72856 27.7966C5.72856 27.7132 5.71213 27.6306 5.68021 27.5536C5.64829 27.4765 5.6015 27.4065 5.54251 27.3475L2.64585 24.4516C2.58687 24.3926 2.51685 24.3458 2.43978 24.3139C2.36271 24.2819 2.2801 24.2655 2.19668 24.2655C2.11325 24.2655 2.03064 24.2819 1.95357 24.3139C1.8765 24.3458 1.80648 24.3926 1.74751 24.4516Z" fill="#FFAC33"/>
</g>
<defs>
<clipPath id="clip0_1755_8199">
<rect width="30" height="30" fill="white"/>
</clipPath>
</defs>
</svg>
