<svg width="30" height="30" viewBox="0 0 30 30" fill="none" xmlns="http://www.w3.org/2000/svg">
<g clip-path="url(#clip0_1755_8114)">
<path d="M25.6077 25.6081C31.4659 19.7499 31.4659 10.2518 25.6077 4.39363C19.7495 -1.46458 10.2514 -1.46458 4.39323 4.39363C-1.46497 10.2518 -1.46497 19.7499 4.39323 25.6081C10.2514 31.4663 19.7495 31.4663 25.6077 25.6081Z" fill="#FFD05D"/>
<path d="M22.848 2.19793C24.3421 4.52972 25.208 7.30322 25.208 10.2774C25.208 18.5609 18.4924 25.2782 10.2071 25.2782C7.32974 25.2782 4.64247 24.4669 2.35995 23.0626C5.02611 27.2246 9.69145 29.9823 15.0009 29.9823C23.2845 29.9823 30.0018 23.2667 30.0018 14.9814C30.0018 9.57342 27.1403 4.83593 22.8498 2.19617L22.848 2.19793Z" fill="#FDC453"/>
<path d="M2.03789 16.583C2.03789 8.89071 8.27476 2.65559 15.9653 2.65559C20.4617 2.65559 24.4583 4.78676 27.0047 8.0935C24.6008 3.9174 20.0921 1.10693 14.9287 1.10693C7.23822 1.10693 1.00134 7.34205 1.00134 15.0343C1.00134 18.2302 2.07837 21.1744 3.88924 23.5238C2.71191 21.4806 2.03789 19.1101 2.03789 16.583Z" fill="#FFD77F"/>
<path d="M10.5784 11.3615C10.5784 12.391 10.0839 13.2251 9.47322 13.2251C8.86256 13.2251 8.36804 12.391 8.36804 11.3615C8.36804 10.332 8.86256 9.4978 9.47322 9.4978C10.0839 9.4978 10.5784 10.332 10.5784 11.3615Z" fill="#303030"/>
<path d="M21.632 11.3615C21.632 12.391 21.1374 13.2251 20.5268 13.2251C19.9161 13.2251 19.4216 12.391 19.4216 11.3615C19.4216 10.332 19.9161 9.4978 20.5268 9.4978C21.1374 9.4978 21.632 10.332 21.632 11.3615Z" fill="#303030"/>
<path d="M23.8599 8.21665C23.698 8.16913 23.5414 8.12514 23.3883 8.0829C23.0504 7.98787 22.7336 7.89988 22.4256 7.79253C21.9663 7.63766 21.5528 7.46168 21.1621 7.25578C20.7503 7.03756 20.3772 6.79646 20.0199 6.51488C19.6293 6.21219 19.2667 5.8567 18.9324 5.51881C18.913 5.49946 18.8848 5.49418 18.8602 5.50474C18.8356 5.5153 18.8197 5.53993 18.8215 5.56809C18.8461 6.0802 19.0485 6.60992 19.4075 7.09915C19.7348 7.54263 20.1748 7.91572 20.6764 8.17793C21.1498 8.42607 21.6777 8.57918 22.2092 8.61789C22.2303 8.61789 22.2497 8.62141 22.2708 8.62141C22.8674 8.65309 23.4041 8.55806 23.8705 8.33808C23.8951 8.32576 23.9092 8.30112 23.9074 8.27472C23.9057 8.24833 23.8863 8.22545 23.8599 8.21665Z" fill="#414042"/>
<path d="M6.14007 8.21665C6.30198 8.16913 6.4586 8.12514 6.61171 8.0829C6.9496 7.98787 7.26637 7.89988 7.57434 7.79253C8.03366 7.63766 8.44722 7.46168 8.83791 7.25578C9.24971 7.03756 9.62279 6.79646 9.98004 6.51488C10.3707 6.21219 10.7333 5.8567 11.0676 5.51881C11.087 5.49946 11.1151 5.49418 11.1398 5.50474C11.1644 5.5153 11.1803 5.53993 11.1785 5.56809C11.1539 6.0802 10.9515 6.60992 10.5925 7.09915C10.2651 7.54263 9.82518 7.91572 9.32362 8.17793C8.85022 8.42607 8.32227 8.57918 7.7908 8.61789C7.76968 8.61789 7.75032 8.62141 7.72921 8.62141C7.13262 8.65309 6.59587 8.55806 6.12951 8.33808C6.10487 8.32576 6.09079 8.30112 6.09255 8.27472C6.09431 8.24833 6.11367 8.22545 6.14007 8.21665Z" fill="#414042"/>
<path d="M9.3289 21.456C9.17228 21.4736 9.08252 21.28 9.08428 21.1357C9.09132 20.4687 9.26907 19.7877 9.61224 19.1119C9.93781 18.4907 10.4042 17.9134 10.962 17.4418C12.069 16.5161 13.5402 15.9829 14.9991 15.9776C16.4844 15.9495 17.968 16.4845 19.0643 17.433C20.203 18.4062 20.8963 19.7894 20.9175 21.1322C20.9192 21.2853 20.8171 21.4842 20.6464 21.4525C20.5056 21.4278 20.3913 21.236 20.2874 21.1498C20.1273 21.016 19.9619 20.8911 19.7912 20.7714C19.4515 20.5321 19.096 20.3174 18.7282 20.122C17.3767 19.4005 15.8456 19.0116 14.311 19.1453C13.3343 19.2298 12.3857 19.5237 11.5146 19.9707C10.992 20.2382 10.4957 20.5585 10.0293 20.9157C9.85158 21.0512 9.5612 21.4138 9.34298 21.456C9.3377 21.456 9.33418 21.456 9.3289 21.4578V21.456Z" fill="#5E4939"/>
</g>
<defs>
<clipPath id="clip0_1755_8114">
<rect width="30" height="30" fill="white"/>
</clipPath>
</defs>
</svg>
