<svg width="30" height="30" viewBox="0 0 30 30" fill="none" xmlns="http://www.w3.org/2000/svg">
<g clip-path="url(#clip0_1755_8113)">
<path d="M29.8091 17.4042C31.1365 9.22643 25.5833 1.52099 17.4055 0.193556C9.22782 -1.13388 1.52237 4.41938 0.194939 12.5971C-1.13249 20.7748 4.42076 28.4803 12.5985 29.8077C20.7762 31.1351 28.4817 25.5819 29.8091 17.4042Z" fill="#F16D24"/>
<path d="M22.848 2.19805C24.3421 4.52984 25.208 7.30335 25.208 10.2775C25.208 18.561 18.4924 25.2784 10.2071 25.2784C7.32974 25.2784 4.64247 24.4671 2.35995 23.0627C5.02611 27.2247 9.69145 29.9824 15.0009 29.9824C23.2845 29.9824 30.0018 23.2669 30.0018 14.9815C30.0018 9.57354 27.1403 4.83605 22.8498 2.19629L22.848 2.19805Z" fill="#EF6421"/>
<path d="M2.03792 16.583C2.03792 8.89071 8.27479 2.65559 15.9653 2.65559C20.4617 2.65559 24.4583 4.78676 27.0048 8.0935C24.6008 3.9174 20.0921 1.10693 14.9288 1.10693C7.23825 1.10693 1.00137 7.34205 1.00137 15.0343C1.00137 18.2302 2.0784 21.1744 3.88927 23.5238C2.71194 21.4806 2.03792 19.1101 2.03792 16.583Z" fill="#F2824E"/>
<path d="M9.47322 14.0717C10.0836 14.0717 10.5784 13.2373 10.5784 12.208C10.5784 11.1788 10.0836 10.3444 9.47322 10.3444C8.86285 10.3444 8.36804 11.1788 8.36804 12.208C8.36804 13.2373 8.86285 14.0717 9.47322 14.0717Z" fill="#303030"/>
<path d="M21.632 12.208C21.632 13.2375 21.1374 14.0717 20.5268 14.0717C19.9161 14.0717 19.4216 13.2375 19.4216 12.208C19.4216 11.1785 19.9161 10.3444 20.5268 10.3444C21.1374 10.3444 21.632 11.1785 21.632 12.208Z" fill="#303030"/>
<path d="M21.148 21.6672C21.5352 22.042 22.1529 21.6267 21.954 21.1269C20.8453 18.3569 18.1387 16.4017 14.9727 16.4017C11.8068 16.4017 9.18988 18.2936 8.04951 20.9896C7.84185 21.4806 8.46483 21.9065 8.84847 21.5352C11.043 19.4075 15.7048 16.3789 21.148 21.6672Z" fill="#5E4939"/>
<path d="M9.23319 6.26089L8.22772 7.26636L11.5839 10.6225L12.5893 9.61702L9.23319 6.26089Z" fill="#303030"/>
<path d="M21.7724 7.26646L20.7669 6.26099L17.4108 9.61712L18.4162 10.6226L21.7724 7.26646Z" fill="#303030"/>
</g>
<defs>
<clipPath id="clip0_1755_8113">
<rect width="30" height="30" fill="white"/>
</clipPath>
</defs>
</svg>
