<svg width="20" height="20" viewBox="0 0 20 20" fill="none" xmlns="http://www.w3.org/2000/svg">
<g clip-path="url(#clip0_2114_5897)">
<path d="M13.3333 16.1111L16.1111 13.3333L3.33332 0.555542H0.555542V3.33332L13.3333 16.1111Z" fill="#CCD6DD"/>
<path d="M0.555542 0.555542V3.33332L13.3333 16.1111L14.7222 14.7222L0.555542 0.555542Z" fill="#9AAAB4"/>
<path d="M18.5689 18.2266C18.7267 18.0689 18.8233 17.8789 18.8639 17.6889L15.9517 14.2472L15.5622 13.8572C15.2489 13.5439 14.69 13.5944 14.3133 13.9711L13.9722 14.3111C13.5961 14.6872 13.5456 15.2461 13.8589 15.5594L14.2706 15.9711L17.6872 18.8628C17.8789 18.8228 18.0695 18.7255 18.2283 18.5672L18.5689 18.2266V18.2266Z" fill="#D99E82"/>
<path d="M18.5689 18.2267C18.7266 18.0689 18.8233 17.8789 18.8639 17.6889L18.1183 16.8078L17.7089 18.8545C17.8928 18.8117 18.0761 18.7195 18.2283 18.5667L18.5689 18.2267ZM16.73 15.1678L16.2366 17.635L16.9366 18.2272L17.3922 15.9495L16.73 15.1678ZM15.9516 14.2472L15.5622 13.8572C15.5091 13.806 15.4479 13.764 15.3811 13.7328L14.8378 16.4506L15.5378 17.0428L16.0694 14.3856L15.9516 14.2472V14.2472ZM14.6178 13.7539C14.5048 13.8089 14.4019 13.8826 14.3133 13.9717L13.9722 14.3111C13.8383 14.4435 13.7405 14.608 13.6883 14.7889C13.6094 15.0722 13.6628 15.3639 13.8589 15.5595L14.19 15.8906L14.6178 13.7539C14.6178 13.7533 14.6178 13.7533 14.6178 13.7539Z" fill="#BF6952"/>
<path d="M18.4722 20C19.316 20 20 19.316 20 18.4722C20 17.6285 19.316 16.9445 18.4722 16.9445C17.6284 16.9445 16.9444 17.6285 16.9444 18.4722C16.9444 19.316 17.6284 20 18.4722 20Z" fill="#8A4633"/>
<path d="M16.4589 12.4022C16.5123 12.4555 16.5546 12.5188 16.5835 12.5885C16.6124 12.6581 16.6273 12.7328 16.6273 12.8083C16.6273 12.8837 16.6124 12.9584 16.5835 13.0281C16.5546 13.0978 16.5123 13.1611 16.4589 13.2144L13.0744 16.5988C13.0211 16.6522 12.9578 16.6945 12.8881 16.7233C12.8184 16.7522 12.7437 16.767 12.6683 16.767C12.5929 16.767 12.5182 16.7522 12.4485 16.7233C12.3789 16.6945 12.3155 16.6522 12.2622 16.5988C12.2089 16.5455 12.1666 16.4822 12.1377 16.4125C12.1088 16.3428 12.094 16.2681 12.094 16.1927C12.094 16.1173 12.1088 16.0426 12.1377 15.9729C12.1666 15.9033 12.2089 15.8399 12.2622 15.7866L15.6467 12.4022C15.7 12.3488 15.7633 12.3064 15.8329 12.2775C15.9026 12.2486 15.9773 12.2338 16.0528 12.2338C16.1282 12.2338 16.2029 12.2486 16.2726 12.2775C16.3423 12.3064 16.4056 12.3488 16.4589 12.4022V12.4022Z" fill="#FFAC33"/>
<path d="M12.2622 17.5705C12.7992 17.5705 13.2345 17.1353 13.2345 16.5983C13.2345 16.0614 12.7992 15.6261 12.2622 15.6261C11.7253 15.6261 11.29 16.0614 11.29 16.5983C11.29 17.1353 11.7253 17.5705 12.2622 17.5705Z" fill="#FFAC33"/>
<path d="M16.4589 13.3739C16.9958 13.3739 17.4311 12.9386 17.4311 12.4017C17.4311 11.8647 16.9958 11.4294 16.4589 11.4294C15.9219 11.4294 15.4867 11.8647 15.4867 12.4017C15.4867 12.9386 15.9219 13.3739 16.4589 13.3739Z" fill="#FFAC33"/>
<path d="M12.2622 17.1538C12.569 17.1538 12.8178 16.9051 12.8178 16.5983C12.8178 16.2915 12.569 16.0427 12.2622 16.0427C11.9554 16.0427 11.7067 16.2915 11.7067 16.5983C11.7067 16.9051 11.9554 17.1538 12.2622 17.1538Z" fill="#FFCC4D"/>
<path d="M16.4589 12.9572C16.7657 12.9572 17.0144 12.7084 17.0144 12.4016C17.0144 12.0948 16.7657 11.8461 16.4589 11.8461C16.1521 11.8461 15.9033 12.0948 15.9033 12.4016C15.9033 12.7084 16.1521 12.9572 16.4589 12.9572Z" fill="#FFCC4D"/>
<path d="M18.835 16.3011C18.8743 16.3404 18.9056 16.3871 18.9268 16.4385C18.9481 16.4899 18.9591 16.5449 18.9591 16.6005C18.9591 16.6562 18.9481 16.7112 18.9268 16.7626C18.9056 16.814 18.8743 16.8607 18.835 16.9L16.9039 18.8305C16.8646 18.8699 16.8179 18.9011 16.7665 18.9223C16.7151 18.9436 16.6601 18.9546 16.6044 18.9546C16.5488 18.9546 16.4938 18.9436 16.4424 18.9223C16.391 18.9011 16.3443 18.8699 16.305 18.8305C16.2657 18.7912 16.2345 18.7445 16.2132 18.6932C16.1919 18.6418 16.181 18.5867 16.181 18.5311C16.181 18.4755 16.1919 18.4204 16.2132 18.369C16.2345 18.3177 16.2657 18.271 16.305 18.2317L18.2361 16.3011C18.2754 16.2618 18.3221 16.2305 18.3735 16.2093C18.4249 16.188 18.4799 16.177 18.5356 16.177C18.5912 16.177 18.6462 16.188 18.6976 16.2093C18.749 16.2305 18.7957 16.2618 18.835 16.3011V16.3011Z" fill="#FFAC33"/>
<path d="M6.66666 16.1111L3.88889 13.3333L16.6667 0.555542H19.4444V3.33332L6.66666 16.1111Z" fill="#CCD6DD"/>
<path d="M19.4444 0.555542V3.33332L6.66666 16.1111L5.27777 14.7222L19.4444 0.555542Z" fill="#9AAAB4"/>
<path d="M1.43111 18.2266C1.28292 18.0796 1.18046 17.8929 1.13611 17.6889L4.04833 14.2472L4.43777 13.8572C4.75111 13.5439 5.31 13.5944 5.68666 13.9711L6.02722 14.3111C6.40333 14.6872 6.45388 15.2461 6.14055 15.5594L5.72889 15.9711L2.31222 18.8628C2.10698 18.8189 1.91897 18.7162 1.77111 18.5672L1.43111 18.2266V18.2266Z" fill="#D99E82"/>
<path d="M1.43111 18.2267C1.28292 18.0797 1.18046 17.8929 1.13611 17.6889L1.88166 16.8078L2.29111 18.8545C2.09434 18.8093 1.9143 18.7095 1.77166 18.5667L1.43111 18.2267V18.2267ZM3.27 15.1678L3.76333 17.635L3.06333 18.2272L2.60778 15.9495L3.27 15.1678ZM4.04833 14.2472L4.43778 13.8572C4.49085 13.806 4.55205 13.764 4.61889 13.7328L5.16222 16.4506L4.46222 17.0428L3.93055 14.3856L4.04833 14.2472V14.2472ZM5.38222 13.7539C5.49055 13.8067 5.59444 13.8789 5.68666 13.9717L6.02722 14.3117C6.16833 14.4528 6.26333 14.6195 6.31111 14.7895C6.39 15.0728 6.33666 15.3645 6.14055 15.56L5.80944 15.8911L5.38222 13.7539C5.38222 13.7533 5.38222 13.7533 5.38222 13.7539V13.7539Z" fill="#BF6952"/>
<path d="M1.52778 20C2.37155 20 3.05555 19.316 3.05555 18.4722C3.05555 17.6285 2.37155 16.9445 1.52778 16.9445C0.684009 16.9445 0 17.6285 0 18.4722C0 19.316 0.684009 20 1.52778 20Z" fill="#8A4633"/>
<path d="M3.54111 12.4022C3.48773 12.4555 3.44538 12.5188 3.41648 12.5885C3.38758 12.6581 3.37271 12.7328 3.37271 12.8083C3.37271 12.8837 3.38758 12.9584 3.41648 13.0281C3.44538 13.0978 3.48773 13.1611 3.54111 13.2144L6.92555 16.5988C6.97888 16.6522 7.0422 16.6945 7.11188 16.7233C7.18156 16.7522 7.25624 16.767 7.33166 16.767C7.40709 16.767 7.48177 16.7522 7.55145 16.7233C7.62113 16.6945 7.68444 16.6522 7.73778 16.5988C7.79111 16.5455 7.83341 16.4822 7.86227 16.4125C7.89114 16.3428 7.90599 16.2681 7.90599 16.1927C7.90599 16.1173 7.89114 16.0426 7.86227 15.9729C7.83341 15.9033 7.79111 15.8399 7.73778 15.7866L4.35333 12.4022C4.30003 12.3488 4.23673 12.3064 4.16704 12.2775C4.09736 12.2486 4.02266 12.2338 3.94722 12.2338C3.87178 12.2338 3.79708 12.2486 3.7274 12.2775C3.65772 12.3064 3.59441 12.3488 3.54111 12.4022V12.4022Z" fill="#FFAC33"/>
<path d="M7.73779 17.5705C8.27473 17.5705 8.71001 17.1353 8.71001 16.5983C8.71001 16.0614 8.27473 15.6261 7.73779 15.6261C7.20084 15.6261 6.76556 16.0614 6.76556 16.5983C6.76556 17.1353 7.20084 17.5705 7.73779 17.5705Z" fill="#FFAC33"/>
<path d="M3.5411 13.3739C4.07804 13.3739 4.51332 12.9386 4.51332 12.4017C4.51332 11.8647 4.07804 11.4294 3.5411 11.4294C3.00416 11.4294 2.56888 11.8647 2.56888 12.4017C2.56888 12.9386 3.00416 13.3739 3.5411 13.3739Z" fill="#FFAC33"/>
<path d="M7.73778 17.1538C8.0446 17.1538 8.29333 16.9051 8.29333 16.5983C8.29333 16.2915 8.0446 16.0427 7.73778 16.0427C7.43095 16.0427 7.18222 16.2915 7.18222 16.5983C7.18222 16.9051 7.43095 17.1538 7.73778 17.1538Z" fill="#FFCC4D"/>
<path d="M3.54112 12.9572C3.84795 12.9572 4.09668 12.7084 4.09668 12.4016C4.09668 12.0948 3.84795 11.8461 3.54112 11.8461C3.2343 11.8461 2.98557 12.0948 2.98557 12.4016C2.98557 12.7084 3.2343 12.9572 3.54112 12.9572Z" fill="#FFCC4D"/>
<path d="M1.16499 16.3011C1.12565 16.3404 1.09444 16.3871 1.07315 16.4385C1.05185 16.4899 1.04089 16.5449 1.04089 16.6005C1.04089 16.6562 1.05185 16.7112 1.07315 16.7626C1.09444 16.814 1.12565 16.8607 1.16499 16.9L3.0961 18.8305C3.13542 18.8699 3.18211 18.9011 3.23348 18.9223C3.28486 18.9436 3.33993 18.9546 3.39554 18.9546C3.45116 18.9546 3.50622 18.9436 3.5576 18.9223C3.60898 18.9011 3.65566 18.8699 3.69499 18.8305C3.73431 18.7912 3.7655 18.7445 3.78679 18.6932C3.80807 18.6418 3.81902 18.5867 3.81902 18.5311C3.81902 18.4755 3.80807 18.4204 3.78679 18.369C3.7655 18.3177 3.73431 18.271 3.69499 18.2317L1.76388 16.3011C1.72456 16.2618 1.67788 16.2305 1.6265 16.2093C1.57512 16.188 1.52005 16.177 1.46443 16.177C1.40881 16.177 1.35374 16.188 1.30236 16.2093C1.25098 16.2305 1.2043 16.2618 1.16499 16.3011V16.3011Z" fill="#FFAC33"/>
</g>
<defs>
<clipPath id="clip0_2114_5897">
<rect width="20" height="20" fill="white"/>
</clipPath>
</defs>
</svg>
