<svg width="20" height="20" viewBox="0 0 20 20" fill="none" xmlns="http://www.w3.org/2000/svg">
<g clip-path="url(#clip0_2114_5887)">
<path d="M14.7872 13.8925L1.76238 19.5599C0.91336 19.8978 0.0696097 19.0613 0.400118 18.2095L6.09188 4.97961" fill="#FFB636"/>
<path d="M0.400117 18.2094L0.852461 17.158C0.89125 17.0989 0.929922 17.0397 0.96875 16.9806C3.21863 13.5531 5.50148 10.1465 7.8623 6.79431L10.5094 9.50759C8.51211 10.8788 2.02695 17.5806 0.668555 19.3583C0.372851 19.0863 0.22914 18.6501 0.400117 18.2094Z" fill="#FFD469"/>
<path d="M11.8899 7.98576C14.3061 10.4019 15.6276 12.9978 14.8416 13.7838C14.0557 14.5698 11.4598 13.2483 9.04359 10.8321C6.62738 8.41592 5.3059 5.82006 6.09187 5.03404C6.87785 4.24803 9.47371 5.56955 11.8899 7.98576Z" fill="#A06C33"/>
<path d="M6.07816 12.7958C6.07816 13.0306 5.88777 13.221 5.65296 13.221C5.41816 13.221 5.22777 13.0306 5.22777 12.7958C5.22777 12.561 5.41812 12.3706 5.65296 12.3706C5.88781 12.3706 6.07816 12.561 6.07816 12.7958Z" fill="#F7F9AA"/>
<path d="M19.6088 8.32654C19.6088 8.66357 19.3356 8.93678 18.9986 8.93678C18.6616 8.93678 18.3884 8.66357 18.3884 8.32654C18.3884 7.98951 18.6616 7.71631 18.9986 7.71631C19.3356 7.71631 19.6088 7.98951 19.6088 8.32654ZM15.5337 16.4524C15.1967 16.4524 14.9235 16.7256 14.9235 17.0626C14.9235 17.3997 15.1967 17.6729 15.5337 17.6729C15.8707 17.6729 16.1439 17.3997 16.1439 17.0626C16.1439 16.7256 15.8707 16.4524 15.5337 16.4524Z" fill="#FFB636"/>
<path d="M13.9043 3.10637C13.8519 3.46047 13.6231 3.77325 13.2765 3.9645C13.0372 4.09653 12.7558 4.16516 12.4637 4.16516C12.3707 4.16512 12.2778 4.15825 12.1857 4.14461C11.9792 4.11407 11.7724 4.14524 11.6185 4.23012C11.5496 4.26817 11.431 4.35141 11.4118 4.48161C11.3926 4.6118 11.4819 4.72579 11.5369 4.78215C11.6564 4.90461 11.8387 4.99235 12.0388 5.02512C12.0443 5.02571 12.0498 5.0259 12.0553 5.02672C12.8998 5.15157 13.503 5.82047 13.3999 6.51786C13.3475 6.872 13.1187 7.18477 12.7721 7.37602C12.5328 7.50805 12.2514 7.57668 11.9594 7.57668C11.8663 7.57664 11.7734 7.56977 11.6814 7.55614C11.4748 7.52555 11.268 7.55672 11.1141 7.64165C11.0452 7.67969 10.9266 7.76293 10.9074 7.89313C10.8765 8.10208 11.1331 8.37793 11.5507 8.43965C11.778 8.47325 11.935 8.68469 11.9014 8.91196C11.8708 9.1186 11.6932 9.26711 11.4904 9.26711C11.4702 9.26711 11.4497 9.26563 11.4291 9.26258C10.5846 9.13774 9.9814 8.46879 10.0845 7.77145C10.1368 7.41731 10.3656 7.10454 10.7123 6.91329C11.0269 6.73969 11.4143 6.67571 11.803 6.73317C12.0096 6.76368 12.2163 6.73254 12.3702 6.64766C12.4392 6.60961 12.5577 6.52637 12.577 6.39618C12.6073 6.19063 12.3591 5.92075 11.9534 5.85329C11.9468 5.85262 11.9401 5.85208 11.9334 5.8511C11.5447 5.7936 11.1924 5.62032 10.9414 5.36309C10.665 5.07973 10.5365 4.71411 10.5889 4.35993C10.6412 4.00583 10.87 3.69305 11.2166 3.5018C11.5312 3.32821 11.9186 3.26422 12.3074 3.32169C12.5139 3.35215 12.7207 3.32106 12.8746 3.23618C12.9435 3.19813 13.0621 3.11489 13.0813 2.98469C13.1005 2.8545 13.0112 2.74051 12.9562 2.68415C12.8335 2.55836 12.6446 2.46868 12.438 2.43817C12.2107 2.40458 12.0537 2.19313 12.0873 1.96587C12.1209 1.7386 12.3324 1.5818 12.5596 1.6152C12.9484 1.6727 13.3007 1.84598 13.5516 2.10321C13.8281 2.38661 13.9566 2.75223 13.9043 3.10637Z" fill="#BEA4FF"/>
<path d="M3.19262 6.23791C3.19262 6.61982 2.88301 6.92943 2.50109 6.92943C2.11918 6.92943 1.80957 6.61982 1.80957 6.23791C1.80957 5.856 2.11918 5.54639 2.50109 5.54639C2.88301 5.54639 3.19262 5.85596 3.19262 6.23791ZM15.5538 5.43896C15.1125 5.43896 14.7548 5.79666 14.7548 6.23787C14.7548 6.67908 15.1125 7.03678 15.5538 7.03678C15.995 7.03678 16.3527 6.67908 16.3527 6.23787C16.3527 5.79666 15.995 5.43896 15.5538 5.43896ZM8.4191 15.4649C7.97785 15.4649 7.6202 15.8226 7.6202 16.2638C7.6202 16.705 7.97789 17.0627 8.4191 17.0627C8.86035 17.0627 9.21801 16.705 9.21801 16.2638C9.21801 15.8226 8.86035 15.4649 8.4191 15.4649ZM19.0169 11.8068C19.1377 11.5729 19.046 11.2853 18.812 11.1644C18.7188 11.1163 18.6074 11.0524 18.4785 10.9785C17.346 10.3287 14.9895 8.97682 12.2148 11.2171C12.0099 11.3825 11.9779 11.6827 12.1433 11.8875C12.3087 12.0924 12.6088 12.1244 12.8138 11.959C15.0807 10.1287 16.9107 11.1783 18.004 11.8055C18.137 11.8818 18.2625 11.9538 18.3745 12.0116C18.4301 12.0404 18.4908 12.0579 18.5532 12.0631C18.6156 12.0684 18.6784 12.0613 18.7381 12.0423C18.7977 12.0233 18.8531 11.9927 18.9009 11.9523C18.9487 11.9119 18.9881 11.8624 19.0169 11.8068Z" fill="#FF6E83"/>
<path d="M16.9857 2.4522C16.9857 2.68705 16.7953 2.8774 16.5605 2.8774C16.3257 2.8774 16.1353 2.68705 16.1353 2.4522C16.1353 2.21736 16.3257 2.02701 16.5605 2.02701C16.7954 2.02697 16.9857 2.21736 16.9857 2.4522ZM1.80953 0.464626C1.57469 0.464626 1.38434 0.654978 1.38434 0.889821C1.38434 1.12467 1.57469 1.31502 1.80953 1.31502C2.04438 1.31502 2.23477 1.12467 2.23477 0.889821C2.23477 0.654978 2.04438 0.464626 1.80953 0.464626ZM8.47676 6.01373C8.52485 5.91943 8.58414 5.81205 8.64692 5.69838C8.96543 5.12138 9.4016 4.33123 9.42785 3.41092C9.45938 2.30529 8.88356 1.30146 7.71645 0.427321C7.51383 0.275564 7.22664 0.316853 7.075 0.519392C6.92328 0.72197 6.9645 1.00916 7.16707 1.16084C8.09481 1.85568 8.53465 2.58314 8.5118 3.38478C8.49188 4.08291 8.13301 4.73306 7.84461 5.25545C7.77817 5.37588 7.71535 5.48959 7.66051 5.59713C7.54547 5.82256 7.63496 6.09853 7.86035 6.21357C7.92471 6.24655 7.99598 6.26375 8.06828 6.26377C8.15281 6.26382 8.2357 6.24049 8.30779 6.19636C8.37988 6.15223 8.43836 6.08903 8.47676 6.01373Z" fill="#59CAFC"/>
</g>
<defs>
<clipPath id="clip0_2114_5887">
<rect width="20" height="20" fill="white"/>
</clipPath>
</defs>
</svg>
