<svg width="15" height="14" viewBox="0 0 15 14" fill="none" xmlns="http://www.w3.org/2000/svg">
<g clip-path="url(#clip0_12_3461)">
<path d="M1.57654 12.25L7.9932 1.16666L14.4099 12.25H1.57654ZM3.58904 11.0833H12.3974L7.9932 3.49999L3.58904 11.0833ZM7.9932 10.5C8.15848 10.5 8.29712 10.444 8.40912 10.332C8.52073 10.2204 8.57654 10.0819 8.57654 9.91666C8.57654 9.75138 8.52073 9.61293 8.40912 9.50132C8.29712 9.38932 8.15848 9.33332 7.9932 9.33332C7.82793 9.33332 7.68948 9.38932 7.57787 9.50132C7.46587 9.61293 7.40987 9.75138 7.40987 9.91666C7.40987 10.0819 7.46587 10.2204 7.57787 10.332C7.68948 10.444 7.82793 10.5 7.9932 10.5ZM7.40987 8.74999H8.57654V5.83332H7.40987V8.74999Z" fill="black"/>
</g>
<defs>
<clipPath id="clip0_12_3461">
<rect width="14" height="14" fill="white" transform="translate(0.993164)"/>
</clipPath>
</defs>
</svg>
