<svg width="15" height="14" viewBox="0 0 15 14" fill="none" xmlns="http://www.w3.org/2000/svg">
<path d="M7.99312 9.91666C8.1584 9.91666 8.29704 9.86066 8.40904 9.74866C8.52065 9.63705 8.57646 9.4986 8.57646 9.33332V6.98541C8.57646 6.82013 8.52065 6.68402 8.40904 6.57707C8.29704 6.47013 8.1584 6.41666 7.99312 6.41666C7.82785 6.41666 7.6894 6.47246 7.57779 6.58407C7.46579 6.69607 7.40979 6.83471 7.40979 6.99999V9.34791C7.40979 9.51318 7.46579 9.6493 7.57779 9.75624C7.6894 9.86319 7.82785 9.91666 7.99312 9.91666ZM7.99312 5.24999C8.1584 5.24999 8.29704 5.19399 8.40904 5.08199C8.52065 4.97038 8.57646 4.83193 8.57646 4.66666C8.57646 4.50138 8.52065 4.36274 8.40904 4.25074C8.29704 4.13913 8.1584 4.08332 7.99312 4.08332C7.82785 4.08332 7.6894 4.13913 7.57779 4.25074C7.46579 4.36274 7.40979 4.50138 7.40979 4.66666C7.40979 4.83193 7.46579 4.97038 7.57779 5.08199C7.6894 5.19399 7.82785 5.24999 7.99312 5.24999ZM7.99312 12.8333C7.18618 12.8333 6.42785 12.6801 5.71812 12.3737C5.0084 12.0676 4.39104 11.6521 3.86604 11.1271C3.34104 10.6021 2.92551 9.98471 2.61946 9.27499C2.31301 8.56527 2.15979 7.80693 2.15979 6.99999C2.15979 6.19305 2.31301 5.43471 2.61946 4.72499C2.92551 4.01527 3.34104 3.39791 3.86604 2.87291C4.39104 2.34791 5.0084 1.93218 5.71812 1.62574C6.42785 1.31968 7.18618 1.16666 7.99312 1.16666C8.80007 1.16666 9.5584 1.31968 10.2681 1.62574C10.9778 1.93218 11.5952 2.34791 12.1202 2.87291C12.6452 3.39791 13.0607 4.01527 13.3668 4.72499C13.6732 5.43471 13.8265 6.19305 13.8265 6.99999C13.8265 7.80693 13.6732 8.56527 13.3668 9.27499C13.0607 9.98471 12.6452 10.6021 12.1202 11.1271C11.5952 11.6521 10.9778 12.0676 10.2681 12.3737C9.5584 12.6801 8.80007 12.8333 7.99312 12.8333ZM7.99312 11.6667C9.28618 11.6667 10.3873 11.2122 11.2965 10.3034C12.2054 9.39418 12.6598 8.29305 12.6598 6.99999C12.6598 5.70693 12.2054 4.6058 11.2965 3.69657C10.3873 2.78774 9.28618 2.33332 7.99312 2.33332C6.70007 2.33332 5.59912 2.78774 4.69029 3.69657C3.78107 4.6058 3.32646 5.70693 3.32646 6.99999C3.32646 8.29305 3.78107 9.39418 4.69029 10.3034C5.59912 11.2122 6.70007 11.6667 7.99312 11.6667Z" fill="black"/>
</svg>
