<svg width="14" height="14" viewBox="0 0 14 14" fill="none" xmlns="http://www.w3.org/2000/svg">
<path d="M9.62504 3.50001V10.2083C9.62504 11.4975 8.58087 12.5417 7.29171 12.5417C6.00254 12.5417 4.95837 11.4975 4.95837 10.2083V2.91668C4.95837 2.5299 5.11202 2.15897 5.38551 1.88548C5.659 1.61199 6.02993 1.45834 6.41671 1.45834C6.80348 1.45834 7.17441 1.61199 7.4479 1.88548C7.7214 2.15897 7.87504 2.5299 7.87504 2.91668V9.04168C7.87504 9.36251 7.61254 9.62501 7.29171 9.62501C6.97087 9.62501 6.70837 9.36251 6.70837 9.04168V3.50001H5.83337V9.04168C5.83337 9.42845 5.98702 9.79938 6.26051 10.0729C6.534 10.3464 6.90493 10.5 7.29171 10.5C7.67848 10.5 8.04941 10.3464 8.3229 10.0729C8.5964 9.79938 8.75004 9.42845 8.75004 9.04168V2.91668C8.75004 1.62751 7.70587 0.583344 6.41671 0.583344C5.12754 0.583344 4.08337 1.62751 4.08337 2.91668V10.2083C4.08337 11.9817 5.51837 13.4167 7.29171 13.4167C9.06504 13.4167 10.5 11.9817 10.5 10.2083V3.50001H9.62504Z" fill="black"/>
</svg>
