<svg width="15" height="14" viewBox="0 0 15 14" fill="none" xmlns="http://www.w3.org/2000/svg">
<path d="M5.0765 8.16666V6.99999H10.9098V8.16666H5.0765ZM5.0765 10.5V9.33332H9.15983V10.5H5.0765ZM3.90983 12.8333C3.589 12.8333 3.31425 12.7192 3.08558 12.4909C2.8573 12.2622 2.74316 11.9875 2.74316 11.6667V3.49999C2.74316 3.17916 2.8573 2.9046 3.08558 2.67632C3.31425 2.44766 3.589 2.33332 3.90983 2.33332H4.49316V1.16666H5.65983V2.33332H10.3265V1.16666H11.4932V2.33332H12.0765C12.3973 2.33332 12.6721 2.44766 12.9007 2.67632C13.129 2.9046 13.2432 3.17916 13.2432 3.49999V11.6667C13.2432 11.9875 13.129 12.2622 12.9007 12.4909C12.6721 12.7192 12.3973 12.8333 12.0765 12.8333H3.90983ZM3.90983 11.6667H12.0765V5.83332H3.90983V11.6667Z" fill="black"/>
</svg>
