<svg width="14" height="14" viewBox="0 0 14 14" fill="none" xmlns="http://www.w3.org/2000/svg">
<path d="M10.9142 4.20584C10.86 4.15117 10.7955 4.10777 10.7244 4.07816C10.6533 4.04854 10.5771 4.03329 10.5001 4.03329C10.423 4.03329 10.3468 4.04854 10.2757 4.07816C10.2046 4.10777 10.1401 4.15117 10.0859 4.20584L5.74005 8.55751L3.91422 6.72584C3.85791 6.67145 3.79145 6.62869 3.71862 6.59999C3.64578 6.57128 3.56801 6.55721 3.48974 6.55856C3.41147 6.55992 3.33423 6.57667 3.26243 6.60788C3.19064 6.63908 3.12569 6.68412 3.0713 6.74043C3.01691 6.79673 2.97415 6.8632 2.94544 6.93603C2.91674 7.00886 2.90267 7.08663 2.90402 7.16491C2.90537 7.24318 2.92213 7.32042 2.95334 7.39221C2.98454 7.46401 3.02958 7.52895 3.08589 7.58334L5.32589 9.82334C5.38011 9.87802 5.44463 9.92141 5.51572 9.95103C5.5868 9.98065 5.66305 9.99589 5.74005 9.99589C5.81706 9.99589 5.8933 9.98065 5.96439 9.95103C6.03547 9.92141 6.09999 9.87802 6.15422 9.82334L10.9142 5.06334C10.9734 5.00872 11.0207 4.94242 11.053 4.86863C11.0853 4.79484 11.102 4.71515 11.102 4.63459C11.102 4.55403 11.0853 4.47435 11.053 4.40056C11.0207 4.32677 10.9734 4.26047 10.9142 4.20584Z" fill="black"/>
</svg>
