<svg width="15" height="14" viewBox="0 0 15 14" fill="none" xmlns="http://www.w3.org/2000/svg">
<g clip-path="url(#clip0_12_3480)">
<path d="M4.4932 12.8333C4.17237 12.8333 3.89782 12.7192 3.66954 12.4909C3.44087 12.2622 3.32654 11.9875 3.32654 11.6667V2.33332C3.32654 2.01249 3.44087 1.73774 3.66954 1.50907C3.89782 1.2808 4.17237 1.16666 4.4932 1.16666H9.15987L12.6599 4.66666V6.99999H11.4932V5.24999H8.57654V2.33332H4.4932V11.6667H7.99321V12.8333H4.4932ZM11.6682 8.47291L12.2953 9.09999L10.0349 11.3458V11.9583H10.6474L12.9078 9.71249L13.5203 10.325L11.012 12.8333H9.15987V10.9812L11.6682 8.47291ZM13.5203 10.325L11.6682 8.47291L12.514 7.62707C12.621 7.52013 12.7571 7.46666 12.9224 7.46666C13.0877 7.46666 13.2238 7.52013 13.3307 7.62707L14.3661 8.66249C14.4731 8.76943 14.5265 8.90555 14.5265 9.07082C14.5265 9.2361 14.4731 9.37221 14.3661 9.47916L13.5203 10.325Z" fill="black"/>
</g>
<defs>
<clipPath id="clip0_12_3480">
<rect width="14" height="14" fill="white" transform="translate(0.993164)"/>
</clipPath>
</defs>
</svg>
