<svg width="15" height="15" viewBox="0 0 15 15" fill="none" xmlns="http://www.w3.org/2000/svg">
<path fill-rule="evenodd" clip-rule="evenodd" d="M10.9099 3.44596H5.07654C4.92183 3.44596 4.77346 3.50742 4.66406 3.61682C4.55466 3.72621 4.4932 3.87459 4.4932 4.0293V11.0293C4.4932 11.184 4.55466 11.3324 4.66406 11.4418C4.77346 11.5512 4.92183 11.6126 5.07654 11.6126H10.9099C11.0646 11.6126 11.213 11.5512 11.3224 11.4418C11.4317 11.3324 11.4932 11.184 11.4932 11.0293V4.0293C11.4932 3.87459 11.4317 3.72621 11.3224 3.61682C11.213 3.50742 11.0646 3.44596 10.9099 3.44596ZM5.07654 2.2793C4.61241 2.2793 4.16729 2.46367 3.8391 2.79186C3.51091 3.12005 3.32654 3.56517 3.32654 4.0293V11.0293C3.32654 11.4934 3.51091 11.9385 3.8391 12.2667C4.16729 12.5949 4.61241 12.7793 5.07654 12.7793H10.9099C11.374 12.7793 11.8191 12.5949 12.1473 12.2667C12.4755 11.9385 12.6599 11.4934 12.6599 11.0293V4.0293C12.6599 3.56517 12.4755 3.12005 12.1473 2.79186C11.8191 2.46367 11.374 2.2793 10.9099 2.2793H5.07654Z" fill="black"/>
<path d="M5.65991 4.61264H10.3266V5.77931H5.65991V4.61264ZM5.65991 6.94597H10.3266V8.11264H5.65991V6.94597ZM5.65991 9.27931H8.57658V10.446H5.65991V9.27931Z" fill="black"/>
</svg>
