<svg width="14" height="14" viewBox="0 0 14 14" fill="none" xmlns="http://www.w3.org/2000/svg">
<path d="M9.62496 1.75C8.60996 1.75 7.63579 2.2225 6.99996 2.96917C6.36413 2.2225 5.38996 1.75 4.37496 1.75C2.57829 1.75 1.16663 3.16167 1.16663 4.95833C1.16663 7.16333 3.14996 8.96 6.15413 11.69L6.99996 12.4542L7.84579 11.6842C10.85 8.96 12.8333 7.16333 12.8333 4.95833C12.8333 3.16167 11.4216 1.75 9.62496 1.75ZM7.05829 10.8208L6.99996 10.8792L6.94163 10.8208C4.16496 8.30667 2.33329 6.64417 2.33329 4.95833C2.33329 3.79167 3.20829 2.91667 4.37496 2.91667C5.27329 2.91667 6.14829 3.49417 6.45746 4.29333H7.54829C7.85163 3.49417 8.72663 2.91667 9.62496 2.91667C10.7916 2.91667 11.6666 3.79167 11.6666 4.95833C11.6666 6.64417 9.83496 8.30667 7.05829 10.8208Z" fill="black"/>
</svg>
