<svg width="15" height="14" viewBox="0 0 15 14" fill="none" xmlns="http://www.w3.org/2000/svg">
<path d="M3.3265 10.5C3.16122 10.5 3.02278 10.444 2.91116 10.332C2.79916 10.2204 2.74316 10.0819 2.74316 9.91667C2.74316 9.75139 2.79916 9.61294 2.91116 9.50133C3.02278 9.38933 3.16122 9.33333 3.3265 9.33333H12.6598C12.8251 9.33333 12.9636 9.38933 13.0752 9.50133C13.1872 9.61294 13.2432 9.75139 13.2432 9.91667C13.2432 10.0819 13.1872 10.2204 13.0752 10.332C12.9636 10.444 12.8251 10.5 12.6598 10.5H3.3265ZM3.3265 7.58333C3.16122 7.58333 3.02278 7.52733 2.91116 7.41533C2.79916 7.30372 2.74316 7.16528 2.74316 7C2.74316 6.83472 2.79916 6.69608 2.91116 6.58408C3.02278 6.47247 3.16122 6.41667 3.3265 6.41667H12.6598C12.8251 6.41667 12.9636 6.47247 13.0752 6.58408C13.1872 6.69608 13.2432 6.83472 13.2432 7C13.2432 7.16528 13.1872 7.30372 13.0752 7.41533C12.9636 7.52733 12.8251 7.58333 12.6598 7.58333H3.3265ZM3.3265 4.66667C3.16122 4.66667 3.02278 4.61086 2.91116 4.49925C2.79916 4.38725 2.74316 4.24861 2.74316 4.08333C2.74316 3.91806 2.79916 3.77942 2.91116 3.66742C3.02278 3.55581 3.16122 3.5 3.3265 3.5H12.6598C12.8251 3.5 12.9636 3.55581 13.0752 3.66742C13.1872 3.77942 13.2432 3.91806 13.2432 4.08333C13.2432 4.24861 13.1872 4.38725 13.0752 4.49925C12.9636 4.61086 12.8251 4.66667 12.6598 4.66667H3.3265Z" fill="black"/>
</svg>
