<svg width="15" height="14" viewBox="0 0 15 14" fill="none" xmlns="http://www.w3.org/2000/svg">
<g clip-path="url(#clip0_12_3475)">
<path d="M7.40983 7.00001C6.76816 7.00001 6.21886 6.77154 5.76191 6.31459C5.30497 5.85765 5.0765 5.30834 5.0765 4.66668C5.0765 4.02501 5.30497 3.4757 5.76191 3.01876C6.21886 2.56182 6.76816 2.33334 7.40983 2.33334C8.0515 2.33334 8.6008 2.56182 9.05775 3.01876C9.51469 3.4757 9.74316 4.02501 9.74316 4.66668C9.74316 5.30834 9.51469 5.85765 9.05775 6.31459C8.6008 6.77154 8.0515 7.00001 7.40983 7.00001ZM7.40983 5.83334C7.73066 5.83334 8.00541 5.71901 8.23408 5.49034C8.46236 5.26207 8.5765 4.98751 8.5765 4.66668C8.5765 4.34584 8.46236 4.07129 8.23408 3.84301C8.00541 3.61434 7.73066 3.50001 7.40983 3.50001C7.089 3.50001 6.81444 3.61434 6.58616 3.84301C6.3575 4.07129 6.24316 4.34584 6.24316 4.66668C6.24316 4.98751 6.3575 5.26207 6.58616 5.49034C6.81444 5.71901 7.089 5.83334 7.40983 5.83334ZM13.8848 13.7083L12.0182 11.8417C11.814 11.9583 11.5952 12.0556 11.3619 12.1333C11.1286 12.2111 10.8807 12.25 10.6182 12.25C9.889 12.25 9.26911 11.9949 8.7585 11.4847C8.24828 10.9741 7.99316 10.3542 7.99316 9.62501C7.99316 8.89584 8.24828 8.27595 8.7585 7.76534C9.26911 7.25512 9.889 7.00001 10.6182 7.00001C11.3473 7.00001 11.9672 7.25512 12.4778 7.76534C12.9881 8.27595 13.2432 8.89584 13.2432 9.62501C13.2432 9.88751 13.2043 10.1354 13.1265 10.3688C13.0487 10.6021 12.9515 10.8208 12.8348 11.025L14.7015 12.8917L13.8848 13.7083ZM10.6182 11.0833C11.0265 11.0833 11.3716 10.9424 11.6536 10.6604C11.9355 10.3785 12.0765 10.0333 12.0765 9.62501C12.0765 9.21668 11.9355 8.87154 11.6536 8.58959C11.3716 8.30765 11.0265 8.16668 10.6182 8.16668C10.2098 8.16668 9.86469 8.30765 9.58275 8.58959C9.3008 8.87154 9.15983 9.21668 9.15983 9.62501C9.15983 10.0333 9.3008 10.3785 9.58275 10.6604C9.86469 10.9424 10.2098 11.0833 10.6182 11.0833ZM2.74316 11.6667V10.0479C2.74316 9.71737 2.8258 9.41112 2.99108 9.12918C3.15636 8.84723 3.38483 8.63334 3.6765 8.48751C4.17233 8.23473 4.73136 8.02084 5.35358 7.84584C5.9758 7.67084 6.66608 7.58334 7.42441 7.58334C7.30775 7.75834 7.20819 7.9454 7.12575 8.14451C7.04291 8.34401 6.97719 8.5507 6.92858 8.76459C6.34525 8.8132 5.82511 8.91276 5.36816 9.06326C4.91122 9.21415 4.52719 9.37223 4.21608 9.53751C4.11886 9.58612 4.04361 9.65651 3.99033 9.74868C3.93666 9.84123 3.90983 9.94098 3.90983 10.0479V10.5H6.92858C6.97719 10.7139 7.04291 10.9181 7.12575 11.1125C7.20819 11.307 7.30775 11.4917 7.42441 11.6667H2.74316Z" fill="black"/>
</g>
<defs>
<clipPath id="clip0_12_3475">
<rect width="14" height="14" fill="white" transform="translate(0.993164)"/>
</clipPath>
</defs>
</svg>
