<svg width="15" height="14" viewBox="0 0 15 14" fill="none" xmlns="http://www.w3.org/2000/svg">
<g clip-path="url(#clip0_12_3471)">
<path d="M11.4932 8.16668V6.41668H9.7432V5.25001H11.4932V3.50001H12.6599V5.25001H14.4099V6.41668H12.6599V8.16668H11.4932ZM6.2432 7.00001C5.60154 7.00001 5.05223 6.77154 4.59529 6.31459C4.13834 5.85765 3.90987 5.30834 3.90987 4.66668C3.90987 4.02501 4.13834 3.4757 4.59529 3.01876C5.05223 2.56182 5.60154 2.33334 6.2432 2.33334C6.88487 2.33334 7.43418 2.56182 7.89112 3.01876C8.34807 3.4757 8.57654 4.02501 8.57654 4.66668C8.57654 5.30834 8.34807 5.85765 7.89112 6.31459C7.43418 6.77154 6.88487 7.00001 6.2432 7.00001ZM1.57654 11.6667V10.0333C1.57654 9.70279 1.6617 9.39887 1.83204 9.12159C2.00198 8.8447 2.22793 8.63334 2.50987 8.48751C3.11265 8.18612 3.72515 7.95998 4.34737 7.80909C4.96959 7.65859 5.60154 7.58334 6.2432 7.58334C6.88487 7.58334 7.51682 7.65859 8.13904 7.80909C8.76126 7.95998 9.37376 8.18612 9.97654 8.48751C10.2585 8.63334 10.4844 8.8447 10.6544 9.12159C10.8247 9.39887 10.9099 9.70279 10.9099 10.0333V11.6667H1.57654ZM2.7432 10.5H9.7432V10.0333C9.7432 9.9264 9.71657 9.82918 9.66329 9.74168C9.60962 9.65418 9.53904 9.58612 9.45154 9.53751C8.92654 9.27501 8.39668 9.07804 7.86195 8.94659C7.32723 8.81554 6.78765 8.75001 6.2432 8.75001C5.69876 8.75001 5.15918 8.81554 4.62445 8.94659C4.08973 9.07804 3.55987 9.27501 3.03487 9.53751C2.94737 9.58612 2.87698 9.65418 2.8237 9.74168C2.77004 9.82918 2.7432 9.9264 2.7432 10.0333V10.5ZM6.2432 5.83334C6.56404 5.83334 6.83879 5.71901 7.06745 5.49034C7.29573 5.26207 7.40987 4.98751 7.40987 4.66668C7.40987 4.34584 7.29573 4.07129 7.06745 3.84301C6.83879 3.61434 6.56404 3.50001 6.2432 3.50001C5.92237 3.50001 5.64782 3.61434 5.41954 3.84301C5.19087 4.07129 5.07654 4.34584 5.07654 4.66668C5.07654 4.98751 5.19087 5.26207 5.41954 5.49034C5.64782 5.71901 5.92237 5.83334 6.2432 5.83334Z" fill="black"/>
</g>
<defs>
<clipPath id="clip0_12_3471">
<rect width="14" height="14" fill="white" transform="translate(0.993164)"/>
</clipPath>
</defs>
</svg>
