<svg width="15" height="14" viewBox="0 0 15 14" fill="none" xmlns="http://www.w3.org/2000/svg">
<path d="M6.69529 7.00001C6.34529 7.00001 6.05362 6.86876 5.82029 6.60626C5.58695 6.34376 5.49459 6.03751 5.5432 5.68751L5.73279 4.25834C5.81057 3.70418 6.06334 3.2449 6.49112 2.88051C6.9189 2.51573 7.41959 2.33334 7.9932 2.33334C8.56682 2.33334 9.06751 2.51573 9.49529 2.88051C9.92307 3.2449 10.1758 3.70418 10.2536 4.25834L10.4432 5.68751C10.4918 6.03751 10.3995 6.34376 10.1661 6.60626C9.93279 6.86876 9.64112 7.00001 9.29112 7.00001H6.69529ZM6.69529 5.83334H9.29112L9.10154 4.43334C9.06265 4.16112 8.93879 3.93751 8.72995 3.76251C8.52073 3.58751 8.27515 3.50001 7.9932 3.50001C7.71126 3.50001 7.46587 3.58751 7.25704 3.76251C7.04782 3.93751 6.92376 4.16112 6.88487 4.43334L6.69529 5.83334ZM4.4932 11.6667C4.17237 11.6667 3.89782 11.5525 3.66954 11.3243C3.44087 11.0956 3.32654 10.8208 3.32654 10.5V10.0333C3.32654 9.70279 3.4117 9.39887 3.58204 9.12159C3.75198 8.8447 3.97793 8.63334 4.25987 8.48751C4.86265 8.18612 5.47515 7.95998 6.09737 7.80909C6.71959 7.65859 7.35154 7.58334 7.9932 7.58334C8.63487 7.58334 9.26682 7.65859 9.88904 7.80909C10.5113 7.95998 11.1238 8.18612 11.7265 8.48751C12.0085 8.63334 12.2344 8.8447 12.4044 9.12159C12.5747 9.39887 12.6599 9.70279 12.6599 10.0333V10.5C12.6599 10.8208 12.5457 11.0956 12.3175 11.3243C12.0888 11.5525 11.814 11.6667 11.4932 11.6667H4.4932ZM4.4932 10.5H11.4932V10.0333C11.4932 9.9264 11.4666 9.82918 11.4133 9.74168C11.3596 9.65418 11.289 9.58612 11.2015 9.53751C10.6765 9.27501 10.1467 9.07804 9.61195 8.94659C9.07723 8.81554 8.53765 8.75001 7.9932 8.75001C7.44876 8.75001 6.90918 8.81554 6.37445 8.94659C5.83973 9.07804 5.30987 9.27501 4.78487 9.53751C4.69737 9.58612 4.62698 9.65418 4.5737 9.74168C4.52004 9.82918 4.4932 9.9264 4.4932 10.0333V10.5Z" fill="black"/>
</svg>
