<svg width="15" height="14" viewBox="0 0 15 14" fill="none" xmlns="http://www.w3.org/2000/svg">
<path d="M12.0765 4.66667H11.4931V1.75H4.49312V4.66667H3.90979C2.94146 4.66667 2.15979 5.44833 2.15979 6.41667V9.91667H4.49312V12.25H11.4931V9.91667H13.8265V6.41667C13.8265 5.44833 13.0448 4.66667 12.0765 4.66667ZM5.65979 2.91667H10.3265V4.66667H5.65979V2.91667ZM10.3265 9.91667V11.0833H5.65979V8.75H10.3265V9.91667ZM11.4931 8.75V7.58333H4.49312V8.75H3.32646V6.41667C3.32646 6.09583 3.58896 5.83333 3.90979 5.83333H12.0765C12.3973 5.83333 12.6598 6.09583 12.6598 6.41667V8.75H11.4931Z" fill="black"/>
<path d="M11.4931 7.29167C11.8153 7.29167 12.0765 7.0305 12.0765 6.70833C12.0765 6.38617 11.8153 6.125 11.4931 6.125C11.171 6.125 10.9098 6.38617 10.9098 6.70833C10.9098 7.0305 11.171 7.29167 11.4931 7.29167Z" fill="black"/>
</svg>
