<svg width="14" height="14" viewBox="0 0 14 14" fill="none" xmlns="http://www.w3.org/2000/svg">
<path d="M7.00004 2.33334V0.583344L4.66671 2.91668L7.00004 5.25001V3.50001C8.93087 3.50001 10.5 5.06918 10.5 7.00001C10.5 7.58918 10.3542 8.14918 10.0917 8.63334L10.9434 9.48501C11.416 8.74237 11.667 7.88029 11.6667 7.00001C11.6667 4.42168 9.57837 2.33334 7.00004 2.33334ZM7.00004 10.5C5.06921 10.5 3.50004 8.93084 3.50004 7.00001C3.50004 6.41084 3.64587 5.85084 3.90837 5.36668L3.05671 4.51501C2.58406 5.25765 2.33313 6.11973 2.33337 7.00001C2.33337 9.57834 4.42171 11.6667 7.00004 11.6667V13.4167L9.33337 11.0833L7.00004 8.75001V10.5Z" fill="black"/>
</svg>
