<svg width="15" height="15" viewBox="0 0 15 15" fill="none" xmlns="http://www.w3.org/2000/svg">
<path d="M7.98729 1.69595C4.76729 1.69595 2.15979 4.30929 2.15979 7.52929C2.15979 10.7493 4.76729 13.3626 7.98729 13.3626C11.2131 13.3626 13.8265 10.7493 13.8265 7.52929C13.8265 4.30929 11.2131 1.69595 7.98729 1.69595ZM7.99312 12.196C5.41479 12.196 3.32646 10.1076 3.32646 7.52929C3.32646 4.95095 5.41479 2.86262 7.99312 2.86262C10.5715 2.86262 12.6598 4.95095 12.6598 7.52929C12.6598 10.1076 10.5715 12.196 7.99312 12.196ZM7.86479 4.61262H7.82979C7.59646 4.61262 7.40979 4.79929 7.40979 5.03262V7.78595C7.40979 7.99012 7.51479 8.18262 7.69562 8.28762L10.1165 9.74012C10.3148 9.85679 10.5715 9.79845 10.6881 9.60012C10.7174 9.55289 10.7369 9.50024 10.7454 9.44532C10.7539 9.3904 10.7513 9.33432 10.7377 9.28044C10.7241 9.22655 10.6998 9.17595 10.6662 9.13166C10.6326 9.08737 10.5905 9.05028 10.5423 9.02262L8.28479 7.68095V5.03262C8.28479 4.79929 8.09812 4.61262 7.86479 4.61262Z" fill="black"/>
</svg>
