<svg width="15" height="14" viewBox="0 0 15 14" fill="none" xmlns="http://www.w3.org/2000/svg">
<path d="M10.9099 10.5C11.2193 10.5 11.516 10.6229 11.7348 10.8417C11.9536 11.0605 12.0765 11.3572 12.0765 11.6667C12.0765 11.9761 11.9536 12.2728 11.7348 12.4916C11.516 12.7104 11.2193 12.8333 10.9099 12.8333C10.6005 12.8333 10.3037 12.7104 10.0849 12.4916C9.86612 12.2728 9.74321 11.9761 9.74321 11.6667C9.74321 11.0192 10.2624 10.5 10.9099 10.5ZM1.57654 1.16666H3.48404L4.03237 2.33332H12.6599C12.8146 2.33332 12.963 2.39478 13.0724 2.50418C13.1817 2.61357 13.2432 2.76195 13.2432 2.91666C13.2432 3.01582 13.214 3.11499 13.1732 3.20832L11.0849 6.98249C10.8865 7.33832 10.5015 7.58332 10.064 7.58332H5.71821L5.1932 8.53416L5.1757 8.60416C5.1757 8.64283 5.19107 8.67993 5.21842 8.70728C5.24577 8.73463 5.28286 8.74999 5.32154 8.74999H12.0765V9.91666H5.07654C4.76712 9.91666 4.47037 9.79374 4.25158 9.57495C4.03279 9.35616 3.90987 9.05941 3.90987 8.74999C3.90987 8.54582 3.96237 8.35332 4.04987 8.18999L4.8432 6.76082L2.7432 2.33332H1.57654V1.16666ZM5.07654 10.5C5.38596 10.5 5.6827 10.6229 5.9015 10.8417C6.12029 11.0605 6.24321 11.3572 6.24321 11.6667C6.24321 11.9761 6.12029 12.2728 5.9015 12.4916C5.6827 12.7104 5.38596 12.8333 5.07654 12.8333C4.76712 12.8333 4.47037 12.7104 4.25158 12.4916C4.03279 12.2728 3.90987 11.9761 3.90987 11.6667C3.90987 11.0192 4.42904 10.5 5.07654 10.5ZM10.3265 6.41666L11.9482 3.49999H4.57487L5.95154 6.41666H10.3265Z" fill="black"/>
</svg>
