<svg width="15" height="14" viewBox="0 0 15 14" fill="none" xmlns="http://www.w3.org/2000/svg">
<path d="M7.99321 9.33332C7.82793 9.33332 7.68948 9.27732 7.57787 9.16532C7.46587 9.05371 7.40987 8.91527 7.40987 8.74999V4.56457L6.30154 5.65832C6.19459 5.76527 6.06101 5.82127 5.90079 5.82632C5.74018 5.83099 5.60154 5.77499 5.48487 5.65832C5.37793 5.55138 5.32445 5.41527 5.32445 5.24999C5.32445 5.08471 5.37793 4.9486 5.48487 4.84165L7.58487 2.74165C7.6432 2.68332 7.7064 2.6419 7.77445 2.6174C7.84251 2.59329 7.91543 2.58124 7.99321 2.58124C8.07098 2.58124 8.1439 2.59329 8.21196 2.6174C8.28001 2.6419 8.3432 2.68332 8.40154 2.74165L10.5015 4.84165C10.6085 4.9486 10.6643 5.08218 10.669 5.2424C10.674 5.40302 10.6182 5.54165 10.5015 5.65832C10.3946 5.76527 10.2585 5.81874 10.0932 5.81874C9.92793 5.81874 9.79182 5.76527 9.68487 5.65832L8.57654 4.56457V8.74999C8.57654 8.91527 8.52073 9.05371 8.40912 9.16532C8.29712 9.27732 8.15848 9.33332 7.99321 9.33332ZM5.65987 11.6667C5.49459 11.6667 5.35595 11.6107 5.24395 11.4987C5.13234 11.387 5.07654 11.2486 5.07654 11.0833C5.07654 10.918 5.13234 10.7796 5.24395 10.668C5.35595 10.556 5.49459 10.5 5.65987 10.5H10.3265C10.4918 10.5 10.6303 10.556 10.7419 10.668C10.8539 10.7796 10.9099 10.918 10.9099 11.0833C10.9099 11.2486 10.8539 11.387 10.7419 11.4987C10.6303 11.6107 10.4918 11.6667 10.3265 11.6667H5.65987Z" fill="black"/>
</svg>
