<svg width="14" height="14" viewBox="0 0 14 14" fill="none" xmlns="http://www.w3.org/2000/svg">
<path d="M1.20168 5.86834C1.49918 6.16584 1.97168 6.19501 2.29251 5.92668C5.01668 3.68668 8.97168 3.68668 11.7017 5.92084C12.0283 6.18918 12.5067 6.16584 12.8042 5.86834C13.1483 5.52418 13.125 4.95251 12.7458 4.64334C9.41501 1.91918 4.59668 1.91918 1.26001 4.64334C0.880842 4.94668 0.851675 5.51834 1.20168 5.86834ZM5.72834 10.395L6.58584 11.2525C6.81334 11.48 7.18084 11.48 7.40834 11.2525L8.26584 10.395C8.54001 10.1208 8.48168 9.64834 8.13168 9.46751C7.77883 9.28634 7.3879 9.19183 6.99126 9.19183C6.59462 9.19183 6.20369 9.28634 5.85084 9.46751C5.51834 9.64834 5.45418 10.1208 5.72834 10.395ZM3.55251 8.21918C3.83834 8.50501 4.28751 8.53418 4.62001 8.29501C5.31595 7.80262 6.14749 7.5382 7.00001 7.5382C7.85253 7.5382 8.68407 7.80262 9.38001 8.29501C9.71251 8.52834 10.1617 8.50501 10.4475 8.21918L10.4533 8.21334C10.8033 7.86334 10.78 7.26834 10.3775 6.98251C8.37084 5.53001 5.63501 5.53001 3.62251 6.98251C3.22001 7.27418 3.19668 7.86334 3.55251 8.21918Z" fill="black"/>
</svg>
