<svg width="20" height="20" viewBox="0 0 20 20" fill="none" xmlns="http://www.w3.org/2000/svg">
<g clip-path="url(#clip0_2114_5852)">
<path d="M19.8727 11.6029C20.7577 6.15104 17.0555 1.01407 11.6037 0.129119C6.15186 -0.755836 1.01489 2.94634 0.129939 8.39815C-0.755015 13.85 2.94716 18.9869 8.39897 19.8719C13.8508 20.7568 18.9877 17.0547 19.8727 11.6029Z" fill="#F16D24"/>
<path d="M15.232 1.46541C16.2281 3.01993 16.8053 4.86894 16.8053 6.85169C16.8053 12.3741 12.3282 16.8523 6.80469 16.8523C4.88647 16.8523 3.09495 16.3114 1.57327 15.3752C3.35071 18.1499 6.46094 19.9883 10.0006 19.9883C15.5229 19.9883 20.0011 15.5113 20.0011 9.98773C20.0011 6.3824 18.0935 3.22407 15.2332 1.46423L15.232 1.46541Z" fill="#EF6421"/>
<path d="M1.35857 11.0553C1.35857 5.9271 5.51649 1.77035 10.6435 1.77035C13.6411 1.77035 16.3055 3.19113 18.0031 5.39563C16.4005 2.61156 13.3947 0.737915 9.95246 0.737915C4.82546 0.737915 0.667542 4.89466 0.667542 10.0228C0.667542 12.1534 1.38556 14.1162 2.59281 15.6825C1.80792 14.3204 1.35857 12.74 1.35857 11.0553V11.0553Z" fill="#F2824E"/>
<path d="M6.31549 9.38113C6.72241 9.38113 7.05228 8.82487 7.05228 8.13869C7.05228 7.4525 6.72241 6.89624 6.31549 6.89624C5.90858 6.89624 5.5787 7.4525 5.5787 8.13869C5.5787 8.82487 5.90858 9.38113 6.31549 9.38113Z" fill="#303030"/>
<path d="M14.4213 8.13869C14.4213 8.82503 14.0917 9.38113 13.6845 9.38113C13.2774 9.38113 12.9478 8.82503 12.9478 8.13869C12.9478 7.45235 13.2774 6.89624 13.6845 6.89624C14.0917 6.89624 14.4213 7.45235 14.4213 8.13869Z" fill="#303030"/>
<path d="M14.0987 14.4447C14.3568 14.6946 14.7686 14.4178 14.636 14.0846C13.8969 12.2379 12.0924 10.9344 9.9818 10.9344C7.87117 10.9344 6.12658 12.1957 5.36633 13.9931C5.22789 14.3204 5.64321 14.6043 5.89897 14.3568C7.36199 12.9383 10.4699 10.9192 14.0987 14.4447V14.4447Z" fill="#5E4939"/>
<path d="M6.15545 4.1738L5.48514 4.84412L7.72256 7.08154L8.39288 6.41122L6.15545 4.1738Z" fill="#303030"/>
<path d="M14.5149 4.84414L13.8446 4.17383L11.6072 6.41125L12.2775 7.08157L14.5149 4.84414Z" fill="#303030"/>
</g>
<defs>
<clipPath id="clip0_2114_5852">
<rect width="20" height="20" fill="white"/>
</clipPath>
</defs>
</svg>
