<svg width="20" height="20" viewBox="0 0 20 20" fill="none" xmlns="http://www.w3.org/2000/svg">
<rect width="20" height="20" rx="10" fill="#E3D6FF"/>
<path d="M9.56524 4.92749C7.96698 4.92749 6.66669 6.22778 6.66669 7.82604H7.82611C7.82611 6.8672 8.6064 6.08691 9.56524 6.08691C10.5241 6.08691 11.3044 6.8672 11.3044 7.82604C11.3044 8.44575 11.0412 8.67532 10.4458 9.13329C10.2244 9.30372 9.97451 9.49619 9.73509 9.73503C8.97451 10.495 8.98263 11.2446 8.98553 11.3043V12.4637H10.1449V11.2991C10.1449 11.2852 10.1583 10.9507 10.5548 10.5547C10.7403 10.3692 10.9502 10.2081 11.1525 10.0521C11.767 9.57908 12.4638 9.04343 12.4638 7.82604C12.4638 6.22778 11.1635 4.92749 9.56524 4.92749ZM8.98553 13.0434H10.1449V14.2029H8.98553V13.0434Z" fill="white"/>
</svg>
