<svg width="49" height="49" viewBox="0 0 49 49" fill="none" xmlns="http://www.w3.org/2000/svg">
<path d="M0.355225 7C0.355225 3.13401 3.48923 0 7.35522 0H41.6448C45.5108 0 48.6448 3.13401 48.6448 7V41.2896C48.6448 45.1555 45.5108 48.2896 41.6448 48.2896H7.35523C3.48923 48.2896 0.355225 45.1555 0.355225 41.2896V7Z" fill="white"/>
<g clip-path="url(#clip0_1742_2904)">
<path d="M34.6078 34.6082C40.466 28.75 40.466 19.252 34.6078 13.3938C28.7496 7.53555 19.2516 7.53555 13.3934 13.3938C7.53515 19.252 7.53515 28.75 13.3934 34.6082C19.2516 40.4664 28.7496 40.4664 34.6078 34.6082Z" fill="#FFD05D"/>
<path d="M31.8482 11.198C33.3423 13.5298 34.2081 16.3033 34.2081 19.2775C34.2081 27.561 27.4926 34.2784 19.2072 34.2784C16.3299 34.2784 13.6426 33.4671 11.3601 32.0627C14.0263 36.2247 18.6916 38.9824 24.001 38.9824C32.2846 38.9824 39.0019 32.2669 39.0019 23.9815C39.0019 18.5735 36.1404 13.836 31.8499 11.1963L31.8482 11.198Z" fill="#FDC453"/>
<path d="M11.038 25.583C11.038 17.8907 17.2749 11.6556 24.9654 11.6556C29.4618 11.6556 33.4584 13.7868 36.0049 17.0935C33.6009 12.9174 29.0922 10.1069 23.9288 10.1069C16.2383 10.1069 10.0015 16.342 10.0015 24.0343C10.0015 27.2302 11.0785 30.1744 12.8894 32.5238C11.712 30.4806 11.038 28.1101 11.038 25.583Z" fill="#FFD77F"/>
<path d="M19.5785 20.3617C19.5785 21.3912 19.084 22.2254 18.4733 22.2254C17.8627 22.2254 17.3682 21.3912 17.3682 20.3617C17.3682 19.3322 17.8627 18.498 18.4733 18.498C19.084 18.498 19.5785 19.3322 19.5785 20.3617Z" fill="#303030"/>
<path d="M30.632 20.3617C30.632 21.3912 30.1375 22.2254 29.5268 22.2254C28.9161 22.2254 28.4216 21.3912 28.4216 20.3617C28.4216 19.3322 28.9161 18.498 29.5268 18.498C30.1375 18.498 30.632 19.3322 30.632 20.3617Z" fill="#303030"/>
<path d="M32.8603 17.2168C32.6984 17.1693 32.5418 17.1253 32.3887 17.083C32.0508 16.988 31.734 16.9 31.4261 16.7927C30.9667 16.6378 30.5532 16.4618 30.1625 16.2559C29.7507 16.0377 29.3776 15.7966 29.0204 15.515C28.6297 15.2123 28.2672 14.8568 27.9328 14.5189C27.9134 14.4996 27.8853 14.4943 27.8606 14.5049C27.836 14.5154 27.8202 14.5401 27.8219 14.5682C27.8465 15.0803 28.0489 15.61 28.4079 16.0993C28.7353 16.5428 29.1752 16.9158 29.6768 17.1781C30.1502 17.4262 30.6781 17.5793 31.2096 17.618C31.2307 17.618 31.2501 17.6215 31.2712 17.6215C31.8678 17.6532 32.4045 17.5582 32.8709 17.3382C32.8955 17.3259 32.9096 17.3012 32.9078 17.2748C32.9061 17.2484 32.8867 17.2256 32.8603 17.2168Z" fill="#414042"/>
<path d="M15.1404 17.2168C15.3023 17.1693 15.459 17.1253 15.6121 17.083C15.95 16.988 16.2667 16.9 16.5747 16.7927C17.034 16.6378 17.4476 16.4618 17.8383 16.2559C18.2501 16.0377 18.6232 15.7966 18.9804 15.515C19.3711 15.2123 19.7336 14.8568 20.068 14.5189C20.0873 14.4996 20.1155 14.4943 20.1401 14.5049C20.1648 14.5154 20.1806 14.5401 20.1789 14.5682C20.1542 15.0803 19.9518 15.61 19.5928 16.0993C19.2655 16.5428 18.8255 16.9158 18.324 17.1781C17.8506 17.4262 17.3226 17.5793 16.7912 17.618C16.77 17.618 16.7507 17.6215 16.7296 17.6215C16.133 17.6532 15.5962 17.5582 15.1299 17.3382C15.1052 17.3259 15.0912 17.3012 15.0929 17.2748C15.0947 17.2484 15.114 17.2256 15.1404 17.2168Z" fill="#414042"/>
<path d="M18.3291 30.456C18.1725 30.4736 18.0827 30.28 18.0845 30.1357C18.0915 29.4687 18.2693 28.7877 18.6125 28.1119C18.938 27.4907 19.4044 26.9134 19.9622 26.4418C21.0692 25.5161 22.5404 24.9829 23.9993 24.9776C25.4846 24.9495 26.9682 25.4845 28.0646 26.433C29.2032 27.4062 29.8965 28.7894 29.9177 30.1322C29.9194 30.2853 29.8174 30.4842 29.6467 30.4525C29.5059 30.4278 29.3915 30.236 29.2876 30.1498C29.1275 30.016 28.9621 29.8911 28.7914 29.7714C28.4517 29.5321 28.0962 29.3174 27.7284 29.122C26.3769 28.4005 24.8458 28.0116 23.3112 28.1453C22.3345 28.2298 21.386 28.5237 20.5148 28.9707C19.9922 29.2382 19.4959 29.5585 19.0295 29.9157C18.8518 30.0512 18.5614 30.4138 18.3432 30.456C18.3379 30.456 18.3344 30.456 18.3291 30.4578V30.456Z" fill="#5E4939"/>
</g>
<defs>
<clipPath id="clip0_1742_2904">
<rect width="30" height="30" fill="white" transform="translate(9.00024 9)"/>
</clipPath>
</defs>
</svg>
