<svg width="49" height="49" viewBox="0 0 49 49" fill="none" xmlns="http://www.w3.org/2000/svg">
<path d="M0.355225 7C0.355225 3.13401 3.48923 0 7.35522 0H41.6448C45.5108 0 48.6448 3.13401 48.6448 7V41.2896C48.6448 45.1555 45.5108 48.2896 41.6448 48.2896H7.35523C3.48923 48.2896 0.355225 45.1555 0.355225 41.2896V7Z" fill="white"/>
<g clip-path="url(#clip0_1742_2889)">
<path d="M34.6078 34.6082C40.466 28.75 40.466 19.252 34.6078 13.3938C28.7496 7.53555 19.2516 7.53555 13.3934 13.3938C7.53515 19.252 7.53515 28.75 13.3934 34.6082C19.2516 40.4664 28.7496 40.4664 34.6078 34.6082Z" fill="#FFD05D"/>
<path d="M31.8482 11.198C33.3423 13.5298 34.2081 16.3033 34.2081 19.2775C34.2081 27.561 27.4926 34.2784 19.2072 34.2784C16.3299 34.2784 13.6426 33.4671 11.3601 32.0627C14.0263 36.2247 18.6916 38.9824 24.001 38.9824C32.2846 38.9824 39.0019 32.2669 39.0019 23.9815C39.0019 18.5735 36.1404 13.836 31.8499 11.1963L31.8482 11.198Z" fill="#FDC453"/>
<path d="M11.038 25.583C11.038 17.8907 17.2749 11.6556 24.9654 11.6556C29.4618 11.6556 33.4584 13.7868 36.0049 17.0935C33.6009 12.9174 29.0922 10.1069 23.9288 10.1069C16.2366 10.1069 10.0015 16.342 10.0015 24.0343C10.0015 27.2302 11.0785 30.1744 12.8894 32.5238C11.712 30.4806 11.038 28.1101 11.038 25.583Z" fill="#FFD77F"/>
<path d="M17.8521 26.2697C17.4649 25.8949 16.8472 26.3102 17.046 26.81C18.1547 29.58 20.8614 31.5351 24.0273 31.5351C27.1933 31.5351 29.8102 29.6433 30.9505 26.9472C31.1582 26.4562 30.5352 26.0304 30.1516 26.4017C27.9571 28.5293 23.2952 31.558 17.8521 26.2697Z" fill="#5E4939"/>
<path d="M19.5785 21.3153C19.5785 22.3448 19.084 23.179 18.4733 23.179C17.8627 23.179 17.3682 22.3448 17.3682 21.3153C17.3682 20.2858 17.8627 19.4517 18.4733 19.4517C19.084 19.4517 19.5785 20.2858 19.5785 21.3153Z" fill="#303030"/>
<path d="M30.632 21.3153C30.632 22.3448 30.1375 23.179 29.5268 23.179C28.9161 23.179 28.4216 22.3448 28.4216 21.3153C28.4216 20.2858 28.9161 19.4517 29.5268 19.4517C30.1375 19.4517 30.632 20.2858 30.632 21.3153Z" fill="#303030"/>
</g>
<defs>
<clipPath id="clip0_1742_2889">
<rect width="30" height="30" fill="white" transform="translate(9.00024 9)"/>
</clipPath>
</defs>
</svg>
