<svg width="25" height="24" viewBox="0 0 25 24" fill="none" xmlns="http://www.w3.org/2000/svg">
<path d="M21.2022 17.828L20.6529 17.3174L20.6524 17.3179L21.2022 17.828ZM21.2022 4.172L20.6524 4.68214L20.6529 4.68261L21.2022 4.172ZM4.80499 4.172L5.35434 4.68261L5.35477 4.68214L4.80499 4.172ZM4.80499 17.828L5.35494 17.318L5.35434 17.3174L4.80499 17.828ZM7.35291 19.6439C7.76485 19.6872 8.13392 19.3884 8.17725 18.9765C8.22059 18.5645 7.92177 18.1954 7.50983 18.1521L7.35291 19.6439ZM11.2939 20.145L10.928 19.4903L10.928 19.4903L11.2939 20.145ZM8.0536 21.37L8.49359 20.7626L8.49272 20.762L8.0536 21.37ZM7.85672 17.966L8.60404 18.0293L8.6041 18.0286L7.85672 17.966ZM8.64311 17.5626C8.67766 17.1498 8.37105 16.7872 7.95828 16.7526C7.54551 16.7181 7.18289 17.0247 7.14834 17.4374L8.64311 17.5626ZM14.861 19.75C16.5893 19.75 17.9668 19.7518 19.0446 19.5958C20.15 19.4357 21.0485 19.0963 21.752 18.3381L20.6524 17.3179C20.2684 17.7317 19.7474 17.9783 18.8296 18.1112C17.8842 18.2482 16.6349 18.25 14.861 18.25V19.75ZM21.7515 18.3386C22.4484 17.5889 22.7536 16.6448 22.8988 15.482C23.042 14.3354 23.0406 12.8658 23.0406 11H21.5406C21.5406 12.9052 21.5393 14.2641 21.4104 15.296C21.2835 16.3117 21.0445 16.8961 20.6529 17.3174L21.7515 18.3386ZM23.0406 11C23.0406 9.13423 23.042 7.66463 22.8988 6.51804C22.7536 5.35524 22.4484 4.41106 21.7515 3.66139L20.6529 4.68261C21.0445 5.10394 21.2835 5.68826 21.4104 6.70396C21.5393 7.73587 21.5406 9.09477 21.5406 11H23.0406ZM21.752 3.66186C21.0485 2.90368 20.15 2.56433 19.0446 2.40424C17.9668 2.24816 16.5893 2.25 14.861 2.25V3.75C16.6349 3.75 17.8842 3.75184 18.8296 3.88876C19.7474 4.02167 20.2684 4.26832 20.6524 4.68214L21.752 3.66186ZM14.861 2.25H11.1462V3.75H14.861V2.25ZM11.1462 2.25C9.4179 2.25 8.04039 2.24816 6.96261 2.40424C5.85722 2.56433 4.95874 2.90368 4.25522 3.66186L5.35477 4.68214C5.73876 4.26832 6.25981 4.02167 7.1776 3.88876C8.123 3.75184 9.37233 3.75 11.1462 3.75V2.25ZM4.25565 3.66139C3.55883 4.41106 3.25363 5.35524 3.10839 6.51804C2.96517 7.66463 2.96655 9.13423 2.96655 11H4.46655C4.46655 9.09477 4.46793 7.73587 4.59682 6.70396C4.72369 5.68826 4.96271 5.10394 5.35434 4.68261L4.25565 3.66139ZM2.96655 11C2.96655 12.8658 2.96517 14.3354 3.10839 15.482C3.25363 16.6448 3.55883 17.5889 4.25565 18.3386L5.35434 17.3174C4.96271 16.8961 4.72369 16.3117 4.59682 15.296C4.46793 14.2641 4.46655 12.9052 4.46655 11H2.96655ZM4.25505 18.338C5.04105 19.1856 6.06887 19.5088 7.35291 19.6439L7.50983 18.1521C6.37924 18.0332 5.78182 17.7784 5.35494 17.318L4.25505 18.338ZM14.861 18.25C13.52 18.25 12.1188 18.825 10.928 19.4903L11.6597 20.7997C12.7777 20.1751 13.9063 19.75 14.861 19.75V18.25ZM10.928 19.4903C9.98219 20.0189 9.33161 20.3812 8.85974 20.5786C8.625 20.6768 8.48775 20.7106 8.4159 20.7179C8.35807 20.7238 8.41577 20.7062 8.49359 20.7626L7.61361 21.9774C7.9199 22.1993 8.26491 22.241 8.56753 22.2102C8.85614 22.1809 9.15248 22.0822 9.43874 21.9624C10.0089 21.7238 10.75 21.3081 11.6597 20.7997L10.928 19.4903ZM8.49272 20.762C8.54941 20.8029 8.54438 20.838 8.52278 20.7674C8.49835 20.6877 8.47466 20.5426 8.46846 20.2939C8.45592 19.7916 8.51557 19.0731 8.60404 18.0293L7.1094 17.9027C7.02419 18.9079 6.95383 19.7264 6.96892 20.3313C6.97653 20.6362 7.00606 20.9374 7.08853 21.2067C7.17381 21.4852 7.32934 21.7721 7.61448 21.978L8.49272 20.762ZM8.6041 18.0286L8.64311 17.5626L7.14834 17.4374L7.10933 17.9034L8.6041 18.0286Z" fill="white"/>
</svg>
