<svg width="23" height="23" viewBox="0 0 23 23" fill="none" xmlns="http://www.w3.org/2000/svg">
<path d="M1.31885 9.39503H21.3188M1.31885 9.39503L1.31885 20.4477C1.31885 20.7268 1.42975 20.9946 1.62716 21.192C1.82456 21.3894 2.0923 21.5003 2.37148 21.5003H20.2662C20.5454 21.5003 20.8131 21.3894 21.0105 21.192C21.2079 20.9946 21.3188 20.7268 21.3188 20.4477V9.39503M1.31885 9.39503L1.31885 4.13187C1.31885 3.8527 1.42975 3.58496 1.62716 3.38755C1.82456 3.19014 2.0923 3.07924 2.37148 3.07924L20.2662 3.07924C20.5454 3.07924 20.8131 3.19014 21.0105 3.38755C21.2079 3.58496 21.3188 3.8527 21.3188 4.13187V9.39503M7.10827 1.5L7.10827 5.71053M15.5293 1.5V5.71053M13.4241 17.2895H16.582M6.05564 17.2895H9.21354M13.4241 13.0789H16.582M6.05564 13.0789H9.21354" stroke="white" stroke-width="1.5" stroke-linecap="round" stroke-linejoin="round"/>
</svg>
