<?xml version="1.0" standalone="no"?>
<!DOCTYPE svg PUBLIC "-//W3C//DTD SVG 1.1//EN" "http://www.w3.org/Graphics/SVG/1.1/DTD/svg11.dtd" >
<svg xmlns="http://www.w3.org/2000/svg">
<defs>
  <font id="iconly" horiz-adv-x="1024">
    <font-face font-family="iconly"
      units-per-em="1024" ascent="896"
      descent="128" />
    <missing-glyph horiz-adv-x="0" />
    <glyph glyph-name="user"
      unicode="&#xE000;"
      horiz-adv-x="1024" d="M170.667 170.667C170.667 284.1600000000001 398.0800000000001 341.3330000000001 512 341.3330000000001C625.92 341.3330000000001 853.3330000000001 284.1600000000001 853.3330000000001 170.6670000000002V42.6670000000001H170.667zM512 725.333C606.293 725.333 682.667 648.96 682.667 554.667C682.667 460.373 606.293 384 512 384S341.333 460.373 341.333 554.667C341.333 648.96 417.707 725.3330000000001 512 725.3330000000001zM768 170.6669999999999C759.467 200.96 627.2 256 512 256C396.8 256 264.533 200.96 256 170.24V128H768zM597.333 554.6669999999999C597.333 601.6 558.933 640 512 640S426.6670000000001 601.6 426.6670000000001 554.667C426.6670000000001 507.7330000000001 465.067 469.333 512 469.333S597.333 507.733 597.333 554.667z" />
    <glyph glyph-name="user-1"
      unicode="&#x75;&#x73;&#x65;&#x72;"
      horiz-adv-x="1024" d="M170.667 170.667C170.667 284.1600000000001 398.0800000000001 341.3330000000001 512 341.3330000000001C625.92 341.3330000000001 853.3330000000001 284.1600000000001 853.3330000000001 170.6670000000002V42.6670000000001H170.667zM512 725.333C606.293 725.333 682.667 648.96 682.667 554.667C682.667 460.373 606.293 384 512 384S341.333 460.373 341.333 554.667C341.333 648.96 417.707 725.3330000000001 512 725.3330000000001zM768 170.6669999999999C759.467 200.96 627.2 256 512 256C396.8 256 264.533 200.96 256 170.24V128H768zM597.333 554.6669999999999C597.333 601.6 558.933 640 512 640S426.6670000000001 601.6 426.6670000000001 554.667C426.6670000000001 507.7330000000001 465.067 469.333 512 469.333S597.333 507.733 597.333 554.667z" />
    <glyph glyph-name="upload"
      unicode="&#xE001;"
      horiz-adv-x="1024" d="M768 256V128H256V256H170.667V128C170.667 81.067 209.067 42.667 256 42.667H768C814.933 42.667 853.333 81.067 853.333 128V256H768zM298.667 512L358.827 451.84L469.333 561.9200000000001V213.3330000000001H554.6669999999999V561.9200000000001L665.1729999999999 451.84L725.3329999999999 512L512 725.333L298.667 512z" />
    <glyph glyph-name="upload-1"
      unicode="&#x75;&#x70;&#x6C;&#x6F;&#x61;&#x64;"
      horiz-adv-x="1024" d="M768 256V128H256V256H170.667V128C170.667 81.067 209.067 42.667 256 42.667H768C814.933 42.667 853.333 81.067 853.333 128V256H768zM298.667 512L358.827 451.84L469.333 561.9200000000001V213.3330000000001H554.6669999999999V561.9200000000001L665.1729999999999 451.84L725.3329999999999 512L512 725.333L298.667 512z" />
    <glyph glyph-name="today"
      unicode="&#xE002;"
      horiz-adv-x="1024" d="M810.667 725.333C857.6 725.333 896 686.933 896 640V42.667C896 -4.2669999999999 857.6 -42.6669999999999 810.667 -42.6669999999999H213.333C165.973 -42.6669999999999 128 -4.2669999999999 128 42.6670000000001V640C128 686.933 165.973 725.333 213.333 725.333H256V810.667H341.333V725.333H682.6669999999999V810.667H768V725.333zM810.667 42.6669999999999V512H213.333V42.6669999999999zM277.3330000000001 341.333C277.3330000000001 400.213 325.12 448 384 448S490.667 400.213 490.667 341.333S442.88 234.6670000000001 384 234.6670000000001S277.333 282.453 277.333 341.3330000000001z" />
    <glyph glyph-name="today-1"
      unicode="&#x74;&#x6F;&#x64;&#x61;&#x79;"
      horiz-adv-x="1024" d="M810.667 725.333C857.6 725.333 896 686.933 896 640V42.667C896 -4.2669999999999 857.6 -42.6669999999999 810.667 -42.6669999999999H213.333C165.973 -42.6669999999999 128 -4.2669999999999 128 42.6670000000001V640C128 686.933 165.973 725.333 213.333 725.333H256V810.667H341.333V725.333H682.6669999999999V810.667H768V725.333zM810.667 42.6669999999999V512H213.333V42.6669999999999zM277.3330000000001 341.333C277.3330000000001 400.213 325.12 448 384 448S490.667 400.213 490.667 341.333S442.88 234.6670000000001 384 234.6670000000001S277.333 282.453 277.333 341.3330000000001z" />
    <glyph glyph-name="time"
      unicode="&#xE003;"
      horiz-adv-x="1024" d="M511.573 810.667C276.053 810.667 85.333 619.52 85.333 384C85.333 148.48 276.053 -42.6669999999999 511.573 -42.6669999999999C747.52 -42.6669999999999 938.667 148.48 938.667 384.0000000000001C938.667 619.5200000000001 747.52 810.667 511.5729999999999 810.667zM512 42.667C323.413 42.667 170.667 195.413 170.667 384.0000000000001C170.667 572.587 323.413 725.3330000000001 512 725.3330000000001C700.587 725.3330000000001 853.3330000000001 572.5870000000001 853.3330000000001 384.0000000000001C853.3330000000001 195.413 700.5870000000001 42.667 512 42.667zM533.333 597.3330000000001H469.333V341.3330000000001L693.333 206.9330000000001L725.333 259.4130000000001L533.333 373.3330000000001V597.3330000000001z" />
    <glyph glyph-name="time-1"
      unicode="&#x74;&#x69;&#x6D;&#x65;"
      horiz-adv-x="1024" d="M511.573 810.667C276.053 810.667 85.333 619.52 85.333 384C85.333 148.48 276.053 -42.6669999999999 511.573 -42.6669999999999C747.52 -42.6669999999999 938.667 148.48 938.667 384.0000000000001C938.667 619.5200000000001 747.52 810.667 511.5729999999999 810.667zM512 42.667C323.413 42.667 170.667 195.413 170.667 384.0000000000001C170.667 572.587 323.413 725.3330000000001 512 725.3330000000001C700.587 725.3330000000001 853.3330000000001 572.5870000000001 853.3330000000001 384.0000000000001C853.3330000000001 195.413 700.5870000000001 42.667 512 42.667zM533.333 597.3330000000001H469.333V341.3330000000001L693.333 206.9330000000001L725.333 259.4130000000001L533.333 373.3330000000001V597.3330000000001z" />
    <glyph glyph-name="star"
      unicode="&#xE004;"
      horiz-adv-x="1024" d="M938.667 480.427L631.893 506.88L512 789.333L392.107 506.453L85.333 480.427L318.293 278.613L248.32 -21.3330000000001L512 137.813L775.6800000000001 -21.333L706.133 278.6130000000001L938.667 480.427zM512 217.6L351.573 120.7470000000001L394.24 303.36L252.587 426.24L439.467 442.4530000000001L512 614.4L584.96 442.027L771.84 425.813L630.187 302.933L672.8530000000001 120.3199999999999L512 217.6z" />
    <glyph glyph-name="star-1"
      unicode="&#x73;&#x74;&#x61;&#x72;"
      horiz-adv-x="1024" d="M938.667 480.427L631.893 506.88L512 789.333L392.107 506.453L85.333 480.427L318.293 278.613L248.32 -21.3330000000001L512 137.813L775.6800000000001 -21.333L706.133 278.6130000000001L938.667 480.427zM512 217.6L351.573 120.7470000000001L394.24 303.36L252.587 426.24L439.467 442.4530000000001L512 614.4L584.96 442.027L771.84 425.813L630.187 302.933L672.8530000000001 120.3199999999999L512 217.6z" />
    <glyph glyph-name="share"
      unicode="&#xE005;"
      horiz-adv-x="1024" d="M681.387 178.773C704 200.107 734.2929999999999 213.3330000000001 768 213.3330000000001C838.827 213.3330000000001 896 156.1600000000001 896 85.3330000000001C896 14.5070000000001 838.827 -42.6669999999999 768 -42.6669999999999S640 14.5070000000001 640 85.3330000000001C640 95.5730000000001 641.707 105.3870000000001 643.84 114.7730000000002L343.04 290.56C320 269.227 289.707 256 256 256C185.173 256 128 313.173 128 384S185.173 512 256 512C289.707 512 320 498.773 343.04 477.44L643.84 652.8C641.707 662.187 640 672.427 640 682.667C640 753.4929999999999 697.173 810.667 768 810.667S896 753.4929999999999 896 682.667C896 611.84 838.827 554.667 768 554.667C734.293 554.667 703.573 567.893 680.96 589.2270000000001L380.1600000000001 413.867C382.293 404.053 384 394.24 384 384C384 373.76 382.293 363.947 380.1600000000001 354.1330000000001zM256 341.333C279.467 341.333 298.6670000000001 360.533 298.6670000000001 384C298.6670000000001 407.467 279.4670000000001 426.6670000000001 256 426.6670000000001C232.533 426.6670000000001 213.333 407.4670000000001 213.333 384C213.333 360.533 232.533 341.333 256 341.333zM810.667 682.6669999999999C810.667 706.133 791.467 725.333 768 725.333C744.533 725.333 725.333 706.133 725.333 682.6669999999999C725.333 659.2 744.533 640 768 640C791.467 640 810.667 659.2 810.667 682.667zM725.3330000000001 85.3330000000001C725.3330000000001 61.8670000000001 744.5330000000001 42.6670000000001 768.0000000000001 42.6670000000001C791.4670000000001 42.6670000000001 810.6670000000001 61.8670000000002 810.6670000000001 85.3330000000001C810.667 108.8 791.467 128 768 128C744.533 128 725.333 108.8 725.333 85.333z" />
    <glyph glyph-name="share-1"
      unicode="&#x73;&#x68;&#x61;&#x72;&#x65;"
      horiz-adv-x="1024" d="M681.387 178.773C704 200.107 734.2929999999999 213.3330000000001 768 213.3330000000001C838.827 213.3330000000001 896 156.1600000000001 896 85.3330000000001C896 14.5070000000001 838.827 -42.6669999999999 768 -42.6669999999999S640 14.5070000000001 640 85.3330000000001C640 95.5730000000001 641.707 105.3870000000001 643.84 114.7730000000002L343.04 290.56C320 269.227 289.707 256 256 256C185.173 256 128 313.173 128 384S185.173 512 256 512C289.707 512 320 498.773 343.04 477.44L643.84 652.8C641.707 662.187 640 672.427 640 682.667C640 753.4929999999999 697.173 810.667 768 810.667S896 753.4929999999999 896 682.667C896 611.84 838.827 554.667 768 554.667C734.293 554.667 703.573 567.893 680.96 589.2270000000001L380.1600000000001 413.867C382.293 404.053 384 394.24 384 384C384 373.76 382.293 363.947 380.1600000000001 354.1330000000001zM256 341.333C279.467 341.333 298.6670000000001 360.533 298.6670000000001 384C298.6670000000001 407.467 279.4670000000001 426.6670000000001 256 426.6670000000001C232.533 426.6670000000001 213.333 407.4670000000001 213.333 384C213.333 360.533 232.533 341.333 256 341.333zM810.667 682.6669999999999C810.667 706.133 791.467 725.333 768 725.333C744.533 725.333 725.333 706.133 725.333 682.6669999999999C725.333 659.2 744.533 640 768 640C791.467 640 810.667 659.2 810.667 682.667zM725.3330000000001 85.3330000000001C725.3330000000001 61.8670000000001 744.5330000000001 42.6670000000001 768.0000000000001 42.6670000000001C791.4670000000001 42.6670000000001 810.6670000000001 61.8670000000002 810.6670000000001 85.3330000000001C810.667 108.8 791.467 128 768 128C744.533 128 725.333 108.8 725.333 85.333z" />
    <glyph glyph-name="settings"
      unicode="&#xE006;"
      horiz-adv-x="1024" d="M653.227 -1.28C648.9599999999999 -30.293 622.507 -53.333 590.933 -53.333H433.067C401.493 -53.333 375.04 -30.293 371.2 0.8530000000001L359.68 81.4930000000001C348.1600000000001 87.4670000000001 337.067 93.8670000000001 325.973 101.12L249.173 70.4C219.307 59.307 186.453 71.68 171.947 98.1329999999999L93.867 233.387C78.933 261.5469999999999 85.333 294.827 109.227 313.5999999999999L174.507 364.373C174.08 370.7729999999999 173.653 377.1729999999999 173.653 383.9999999999999C173.653 390.3999999999999 174.08 397.2269999999999 174.507 403.6269999999999L109.653 454.4C84.48 473.6 78.08 508.16 93.867 534.6129999999999L172.8 670.72C187.307 697.173 220.16 709.12 249.173 697.6L326.4 666.453C337.493 673.707 348.587 680.107 359.68 686.08L371.2 767.573C375.0399999999999 797.44 401.493 820.907 432.64 820.907H590.507C622.0799999999999 820.907 648.5329999999999 797.867 652.3729999999999 766.72L663.8929999999999 686.08C675.4129999999999 680.107 686.507 673.7070000000001 697.5999999999999 666.453L774.3999999999999 697.173C804.6929999999999 708.267 837.5469999999999 695.893 852.0529999999999 669.44L930.56 533.76C945.92 505.6 939.093 472.32 915.2 453.547L850.347 402.773C850.773 396.3730000000001 851.1999999999999 389.973 851.1999999999999 383.1470000000001C851.1999999999999 376.3200000000001 850.7729999999999 369.9200000000001 850.347 363.5200000000001L915.2 312.7470000000001C939.093 293.5470000000001 945.92 260.2670000000001 930.987 233.3870000000001L851.627 96C837.12 69.547 804.2669999999999 57.6 774.827 69.12L698.027 99.84C686.933 92.587 675.84 86.187 664.7470000000001 80.2130000000001zM453.12 32H570.88L586.667 140.8L609.28 150.1869999999999C628.053 157.8669999999999 646.827 168.9599999999999 666.453 183.4669999999999L685.653 197.9729999999999L787.2 157.0129999999998L846.08 259.4129999999998L759.4670000000001 326.8269999999998L762.4530000000001 350.7199999999998L762.5810000000001 351.8719999999999C763.8210000000001 362.5389999999999 765.0140000000001 372.8639999999998 765.0140000000001 383.9999999999999C765.0140000000001 395.5199999999999 763.7340000000002 406.6129999999999 762.4540000000002 417.2799999999999L759.4680000000002 441.1729999999999L846.0810000000001 508.5869999999999L786.7740000000001 610.9869999999999L684.8010000000002 570.0269999999998L665.6010000000001 584.9599999999998C647.6810000000002 598.6129999999998 628.4810000000001 609.7069999999999 608.8540000000002 617.8129999999999L586.6680000000001 627.1999999999998L570.88 736H453.12L437.3330000000001 627.2L414.7200000000001 618.24C395.947 610.133 377.173 599.467 357.5470000000001 584.533L338.3470000000001 570.453L236.8 610.9870000000001L177.493 509.013L264.107 441.6L261.12 417.707C259.84 406.613 258.56 395.093 258.56 384S259.413 361.387 261.12 350.7200000000001L264.107 326.827L177.493 259.413L236.373 157.013L338.347 197.9730000000001L357.547 183.0400000000001C375.893 168.96 394.24 158.2930000000001 414.293 150.1870000000001L436.907 140.8000000000002zM661.333 384C661.333 301.525 594.4749999999999 234.6670000000001 512 234.6670000000001S362.667 301.525 362.667 384S429.525 533.3330000000001 512 533.3330000000001S661.333 466.475 661.333 384z" />
    <glyph glyph-name="settings-1"
      unicode="&#x73;&#x65;&#x74;&#x74;&#x69;&#x6E;&#x67;&#x73;"
      horiz-adv-x="1024" d="M653.227 -1.28C648.9599999999999 -30.293 622.507 -53.333 590.933 -53.333H433.067C401.493 -53.333 375.04 -30.293 371.2 0.8530000000001L359.68 81.4930000000001C348.1600000000001 87.4670000000001 337.067 93.8670000000001 325.973 101.12L249.173 70.4C219.307 59.307 186.453 71.68 171.947 98.1329999999999L93.867 233.387C78.933 261.5469999999999 85.333 294.827 109.227 313.5999999999999L174.507 364.373C174.08 370.7729999999999 173.653 377.1729999999999 173.653 383.9999999999999C173.653 390.3999999999999 174.08 397.2269999999999 174.507 403.6269999999999L109.653 454.4C84.48 473.6 78.08 508.16 93.867 534.6129999999999L172.8 670.72C187.307 697.173 220.16 709.12 249.173 697.6L326.4 666.453C337.493 673.707 348.587 680.107 359.68 686.08L371.2 767.573C375.0399999999999 797.44 401.493 820.907 432.64 820.907H590.507C622.0799999999999 820.907 648.5329999999999 797.867 652.3729999999999 766.72L663.8929999999999 686.08C675.4129999999999 680.107 686.507 673.7070000000001 697.5999999999999 666.453L774.3999999999999 697.173C804.6929999999999 708.267 837.5469999999999 695.893 852.0529999999999 669.44L930.56 533.76C945.92 505.6 939.093 472.32 915.2 453.547L850.347 402.773C850.773 396.3730000000001 851.1999999999999 389.973 851.1999999999999 383.1470000000001C851.1999999999999 376.3200000000001 850.7729999999999 369.9200000000001 850.347 363.5200000000001L915.2 312.7470000000001C939.093 293.5470000000001 945.92 260.2670000000001 930.987 233.3870000000001L851.627 96C837.12 69.547 804.2669999999999 57.6 774.827 69.12L698.027 99.84C686.933 92.587 675.84 86.187 664.7470000000001 80.2130000000001zM453.12 32H570.88L586.667 140.8L609.28 150.1869999999999C628.053 157.8669999999999 646.827 168.9599999999999 666.453 183.4669999999999L685.653 197.9729999999999L787.2 157.0129999999998L846.08 259.4129999999998L759.4670000000001 326.8269999999998L762.4530000000001 350.7199999999998L762.5810000000001 351.8719999999999C763.8210000000001 362.5389999999999 765.0140000000001 372.8639999999998 765.0140000000001 383.9999999999999C765.0140000000001 395.5199999999999 763.7340000000002 406.6129999999999 762.4540000000002 417.2799999999999L759.4680000000002 441.1729999999999L846.0810000000001 508.5869999999999L786.7740000000001 610.9869999999999L684.8010000000002 570.0269999999998L665.6010000000001 584.9599999999998C647.6810000000002 598.6129999999998 628.4810000000001 609.7069999999999 608.8540000000002 617.8129999999999L586.6680000000001 627.1999999999998L570.88 736H453.12L437.3330000000001 627.2L414.7200000000001 618.24C395.947 610.133 377.173 599.467 357.5470000000001 584.533L338.3470000000001 570.453L236.8 610.9870000000001L177.493 509.013L264.107 441.6L261.12 417.707C259.84 406.613 258.56 395.093 258.56 384S259.413 361.387 261.12 350.7200000000001L264.107 326.827L177.493 259.413L236.373 157.013L338.347 197.9730000000001L357.547 183.0400000000001C375.893 168.96 394.24 158.2930000000001 414.293 150.1870000000001L436.907 140.8000000000002zM661.333 384C661.333 301.525 594.4749999999999 234.6670000000001 512 234.6670000000001S362.667 301.525 362.667 384S429.525 533.3330000000001 512 533.3330000000001S661.333 466.475 661.333 384z" />
    <glyph glyph-name="search"
      unicode="&#xE007;"
      horiz-adv-x="1024" d="M629.76 329.813L874.24 85.333L810.667 21.76L566.187 266.24C520.533 233.3870000000001 465.493 213.333 405.333 213.333C252.16 213.333 128 337.4930000000001 128 490.667C128 643.84 252.16 768 405.3330000000001 768C558.5070000000001 768 682.667 643.84 682.667 490.667C682.667 430.507 662.613 375.467 629.76 329.813zM405.3330000000001 682.667C299.093 682.667 213.333 596.9069999999999 213.333 490.667S299.093 298.6670000000001 405.3330000000001 298.6670000000001S597.3330000000001 384.427 597.3330000000001 490.667S511.5730000000001 682.667 405.3330000000001 682.667z" />
    <glyph glyph-name="search-1"
      unicode="&#x73;&#x65;&#x61;&#x72;&#x63;&#x68;"
      horiz-adv-x="1024" d="M629.76 329.813L874.24 85.333L810.667 21.76L566.187 266.24C520.533 233.3870000000001 465.493 213.333 405.333 213.333C252.16 213.333 128 337.4930000000001 128 490.667C128 643.84 252.16 768 405.3330000000001 768C558.5070000000001 768 682.667 643.84 682.667 490.667C682.667 430.507 662.613 375.467 629.76 329.813zM405.3330000000001 682.667C299.093 682.667 213.333 596.9069999999999 213.333 490.667S299.093 298.6670000000001 405.3330000000001 298.6670000000001S597.3330000000001 384.427 597.3330000000001 490.667S511.5730000000001 682.667 405.3330000000001 682.667z" />
    <glyph glyph-name="navigate_next"
      unicode="&#xE008;"
      horiz-adv-x="1024" d="M414.08 640L353.92 579.84L549.333 384L353.92 188.16L414.08 128L670.0799999999999 384L414.08 640z" />
    <glyph glyph-name="navigate_next-1"
      unicode="&#x6E;&#x61;&#x76;&#x69;&#x67;&#x61;&#x74;&#x65;&#x5F;&#x6E;&#x65;&#x78;&#x74;"
      horiz-adv-x="1024" d="M414.08 640L353.92 579.84L549.333 384L353.92 188.16L414.08 128L670.0799999999999 384L414.08 640z" />
    <glyph glyph-name="navigate_before"
      unicode="&#xE009;"
      horiz-adv-x="1024" d="M670.08 579.8399999999999L609.92 640L353.92 384L609.92 128L670.0799999999999 188.16L474.667 384L670.08 579.8399999999999z" />
    <glyph glyph-name="navigate_before-1"
      unicode="&#x6E;&#x61;&#x76;&#x69;&#x67;&#x61;&#x74;&#x65;&#x5F;&#x62;&#x65;&#x66;&#x6F;&#x72;&#x65;"
      horiz-adv-x="1024" d="M670.08 579.8399999999999L609.92 640L353.92 384L609.92 128L670.0799999999999 188.16L474.667 384L670.08 579.8399999999999z" />
    <glyph glyph-name="more"
      unicode="&#xE00A;"
      horiz-adv-x="1024" d="M426.667 384C426.667 430.933 465.067 469.333 512 469.333S597.333 430.933 597.333 384S558.933 298.6670000000001 512 298.6670000000001S426.6670000000001 337.067 426.6670000000001 384zM768 469.333C814.933 469.333 853.333 430.9330000000001 853.333 384S814.933 298.6670000000001 768 298.6670000000001S682.667 337.067 682.667 384S721.067 469.333 768 469.333zM256 469.333C302.933 469.333 341.333 430.9330000000001 341.333 384S302.933 298.6670000000001 256 298.6670000000001S170.667 337.067 170.667 384S209.067 469.333 256 469.333z" />
    <glyph glyph-name="more-1"
      unicode="&#x6D;&#x6F;&#x72;&#x65;"
      horiz-adv-x="1024" d="M426.667 384C426.667 430.933 465.067 469.333 512 469.333S597.333 430.933 597.333 384S558.933 298.6670000000001 512 298.6670000000001S426.6670000000001 337.067 426.6670000000001 384zM768 469.333C814.933 469.333 853.333 430.9330000000001 853.333 384S814.933 298.6670000000001 768 298.6670000000001S682.667 337.067 682.667 384S721.067 469.333 768 469.333zM256 469.333C302.933 469.333 341.333 430.9330000000001 341.333 384S302.933 298.6670000000001 256 298.6670000000001S170.667 337.067 170.667 384S209.067 469.333 256 469.333z" />
    <glyph glyph-name="more_vert"
      unicode="&#xE00B;"
      horiz-adv-x="1024" d="M426.667 128C426.667 174.933 465.067 213.333 512 213.333S597.333 174.933 597.333 128S558.933 42.667 512 42.667S426.6670000000001 81.067 426.6670000000001 128zM512 469.333C558.933 469.333 597.333 430.9330000000001 597.333 384S558.933 298.6670000000001 512 298.6670000000001S426.6670000000001 337.067 426.6670000000001 384S465.067 469.333 512 469.333zM512 554.667C465.067 554.667 426.6670000000001 593.067 426.6670000000001 640S465.067 725.3330000000001 512 725.3330000000001S597.333 686.933 597.333 640S558.933 554.667 512 554.667z" />
    <glyph glyph-name="more_vert-1"
      unicode="&#x6D;&#x6F;&#x72;&#x65;&#x5F;&#x76;&#x65;&#x72;&#x74;"
      horiz-adv-x="1024" d="M426.667 128C426.667 174.933 465.067 213.333 512 213.333S597.333 174.933 597.333 128S558.933 42.667 512 42.667S426.6670000000001 81.067 426.6670000000001 128zM512 469.333C558.933 469.333 597.333 430.9330000000001 597.333 384S558.933 298.6670000000001 512 298.6670000000001S426.6670000000001 337.067 426.6670000000001 384S465.067 469.333 512 469.333zM512 554.667C465.067 554.667 426.6670000000001 593.067 426.6670000000001 640S465.067 725.3330000000001 512 725.3330000000001S597.333 686.933 597.333 640S558.933 554.667 512 554.667z" />
    <glyph glyph-name="menu"
      unicode="&#xE00C;"
      horiz-adv-x="1024" d="M128 554.6669999999999V640H896V554.667zM128 341.333V426.667H896V341.333zM128 128V213.333H896V128z" />
    <glyph glyph-name="menu-1"
      unicode="&#x6D;&#x65;&#x6E;&#x75;"
      horiz-adv-x="1024" d="M128 554.6669999999999V640H896V554.667zM128 341.333V426.667H896V341.333zM128 128V213.333H896V128z" />
    <glyph glyph-name="typewhatsapp"
      unicode="&#xE00E;"
      horiz-adv-x="1024" d="M812.8 686.49C773.683 726.0160000000001 727.0899999999999 757.35 675.7379999999999 778.65C624.3839999999999 800 569.2929999999999 810.854 513.6899999999999 810.65C280.7299999999999 810.65 90.8799999999999 620.8 90.8799999999999 387.8400000000001C90.8799999999999 313.1900000000001 110.4899999999999 240.6400000000001 147.1999999999999 176.6400000000001L87.45 -42.65L311.45 16.23C373.35 -17.51 442.88 -35.4299999999999 513.69 -35.4299999999999C746.6500000000001 -35.4299999999999 936.55 154.47 936.55 387.4300000000001C936.55 500.4800000000001 892.57 606.72 812.8000000000001 686.49zM513.69 36.25C450.5600000000001 36.25 388.7100000000001 53.35 334.4900000000001 85.35L321.6900000000001 93.03L188.5700000000001 58.01L224 187.75L215.45 200.96C180.378 256.9730000000001 161.74 321.74 161.69 387.8400000000001C161.69 581.53 319.5900000000001 739.4300000000001 513.28 739.4300000000001C607.13 739.4300000000001 695.4499999999999 702.72 761.5999999999999 636.1600000000001C794.3679999999999 603.546 820.2749999999999 564.787 837.9399999999999 522.086C855.603 479.386 864.6139999999999 433.613 864.41 387.43C865.28 193.6900000000001 707.43 36.25 513.6899999999999 36.25zM706.5600000000001 299.11C695.9100000000001 304.23 643.84 329.8300000000001 634.47 333.6700000000001C624.64 337.0500000000001 617.83 338.7900000000001 610.5600000000001 328.5500000000001C603.2900000000001 317.85 583.2700000000001 293.99 577.2800000000001 287.1300000000001C571.2900000000001 279.9100000000001 564.8900000000001 279.0400000000001 554.2400000000001 284.5700000000002C543.5900000000001 289.6900000000002 509.4400000000001 301.2100000000002 469.3500000000001 337.0500000000002C437.7600000000002 365.2100000000002 416.8700000000001 399.7700000000002 410.4700000000002 410.4700000000002C404.4800000000002 421.1200000000002 409.6000000000002 426.6500000000002 415.1300000000002 432.2300000000002C419.8400000000002 436.8900000000002 425.8300000000002 444.5700000000002 430.9500000000002 450.5600000000002C436.0700000000002 456.5500000000002 438.1700000000002 461.2100000000002 441.6000000000002 468.0700000000002C445.0300000000002 475.2900000000002 443.2900000000002 481.2800000000001 440.7300000000002 486.4000000000001C438.1700000000002 491.5200000000002 416.8700000000001 543.5900000000001 408.3200000000002 564.8900000000001C399.7700000000002 585.3700000000001 390.8100000000002 582.8100000000002 384.4100000000002 583.2700000000002H363.9300000000001C356.7100000000001 583.2700000000002 345.6000000000002 580.7100000000002 335.7700000000001 570.0100000000002C326.4000000000001 559.3600000000001 299.1100000000002 533.7600000000002 299.1100000000002 481.6900000000002C299.1100000000002 429.6700000000002 337.0500000000002 379.2900000000002 342.1700000000002 372.4800000000002C347.2900000000002 365.2100000000002 416.8700000000001 258.5600000000002 522.6500000000001 212.8900000000001C547.8400000000001 201.8300000000002 567.45 195.4300000000001 582.8100000000001 190.7200000000002C608.0000000000001 182.6300000000001 631.0400000000001 183.9100000000002 649.3700000000001 186.4700000000002C669.8500000000001 189.4400000000002 712.0900000000001 212.0700000000002 720.6400000000001 236.8000000000002C729.6000000000001 261.5300000000002 729.6000000000001 282.4700000000002 726.6300000000001 287.1300000000002C723.6100000000001 291.8400000000003 717.2100000000002 293.9900000000003 706.5600000000001 299.1100000000003z" />
    <glyph glyph-name="typewhatsapp-1"
      unicode="&#x74;&#x79;&#x70;&#x65;&#x77;&#x68;&#x61;&#x74;&#x73;&#x61;&#x70;&#x70;"
      horiz-adv-x="1024" d="M812.8 686.49C773.683 726.0160000000001 727.0899999999999 757.35 675.7379999999999 778.65C624.3839999999999 800 569.2929999999999 810.854 513.6899999999999 810.65C280.7299999999999 810.65 90.8799999999999 620.8 90.8799999999999 387.8400000000001C90.8799999999999 313.1900000000001 110.4899999999999 240.6400000000001 147.1999999999999 176.6400000000001L87.45 -42.65L311.45 16.23C373.35 -17.51 442.88 -35.4299999999999 513.69 -35.4299999999999C746.6500000000001 -35.4299999999999 936.55 154.47 936.55 387.4300000000001C936.55 500.4800000000001 892.57 606.72 812.8000000000001 686.49zM513.69 36.25C450.5600000000001 36.25 388.7100000000001 53.35 334.4900000000001 85.35L321.6900000000001 93.03L188.5700000000001 58.01L224 187.75L215.45 200.96C180.378 256.9730000000001 161.74 321.74 161.69 387.8400000000001C161.69 581.53 319.5900000000001 739.4300000000001 513.28 739.4300000000001C607.13 739.4300000000001 695.4499999999999 702.72 761.5999999999999 636.1600000000001C794.3679999999999 603.546 820.2749999999999 564.787 837.9399999999999 522.086C855.603 479.386 864.6139999999999 433.613 864.41 387.43C865.28 193.6900000000001 707.43 36.25 513.6899999999999 36.25zM706.5600000000001 299.11C695.9100000000001 304.23 643.84 329.8300000000001 634.47 333.6700000000001C624.64 337.0500000000001 617.83 338.7900000000001 610.5600000000001 328.5500000000001C603.2900000000001 317.85 583.2700000000001 293.99 577.2800000000001 287.1300000000001C571.2900000000001 279.9100000000001 564.8900000000001 279.0400000000001 554.2400000000001 284.5700000000002C543.5900000000001 289.6900000000002 509.4400000000001 301.2100000000002 469.3500000000001 337.0500000000002C437.7600000000002 365.2100000000002 416.8700000000001 399.7700000000002 410.4700000000002 410.4700000000002C404.4800000000002 421.1200000000002 409.6000000000002 426.6500000000002 415.1300000000002 432.2300000000002C419.8400000000002 436.8900000000002 425.8300000000002 444.5700000000002 430.9500000000002 450.5600000000002C436.0700000000002 456.5500000000002 438.1700000000002 461.2100000000002 441.6000000000002 468.0700000000002C445.0300000000002 475.2900000000002 443.2900000000002 481.2800000000001 440.7300000000002 486.4000000000001C438.1700000000002 491.5200000000002 416.8700000000001 543.5900000000001 408.3200000000002 564.8900000000001C399.7700000000002 585.3700000000001 390.8100000000002 582.8100000000002 384.4100000000002 583.2700000000002H363.9300000000001C356.7100000000001 583.2700000000002 345.6000000000002 580.7100000000002 335.7700000000001 570.0100000000002C326.4000000000001 559.3600000000001 299.1100000000002 533.7600000000002 299.1100000000002 481.6900000000002C299.1100000000002 429.6700000000002 337.0500000000002 379.2900000000002 342.1700000000002 372.4800000000002C347.2900000000002 365.2100000000002 416.8700000000001 258.5600000000002 522.6500000000001 212.8900000000001C547.8400000000001 201.8300000000002 567.45 195.4300000000001 582.8100000000001 190.7200000000002C608.0000000000001 182.6300000000001 631.0400000000001 183.9100000000002 649.3700000000001 186.4700000000002C669.8500000000001 189.4400000000002 712.0900000000001 212.0700000000002 720.6400000000001 236.8000000000002C729.6000000000001 261.5300000000002 729.6000000000001 282.4700000000002 726.6300000000001 287.1300000000002C723.6100000000001 291.8400000000003 717.2100000000002 293.9900000000003 706.5600000000001 299.1100000000003z" />
    <glyph glyph-name="location"
      unicode="&#xE012;"
      horiz-adv-x="1024" d="M512 384C535.467 384 555.563 392.363 572.288 409.088C589.013 425.8130000000001 597.376 445.908 597.333 469.333C597.333 492.8 588.971 512.896 572.245 529.6210000000001C555.52 546.348 535.425 554.711 512 554.6680000000001C488.533 554.6680000000001 468.437 546.3050000000001 451.712 529.58C434.987 512.8530000000001 426.624 492.7570000000001 426.667 469.333C426.667 445.867 435.029 425.771 451.755 409.045C468.48 392.32 488.575 383.957 512 384zM512 70.4C598.74 150.06 663.125 222.42 705.067 287.488C747.007 352.555 768 410.325 768 460.8C768 538.325 743.296 601.77 693.845 651.1800000000001C644.395 700.587 583.808 725.29 512 725.3330000000001C440.192 725.3330000000001 379.563 700.629 330.112 651.1790000000001C280.662 601.7270000000001 255.957 538.282 256 460.799C256 410.324 276.992 352.5110000000001 318.933 287.4440000000001C360.875 222.38 425.26 150.015 512 70.4zM512 -42.667C397.525 54.74 312.02 145.237 255.488 228.78C198.955 312.32 170.708 389.675 170.668 460.8C170.668 567.467 204.971 652.4599999999999 273.621 715.733C342.273 779.008 421.718 810.667 512 810.667C602.325 810.667 681.77 779.0070000000001 750.42 715.733C819.073 652.46 853.377 567.467 853.334 460.8C853.334 389.675 825.0459999999999 312.3630000000001 768.5139999999999 228.78C711.978 145.194 626.474 54.74 512 -42.668z" />
    <glyph glyph-name="location-1"
      unicode="&#x6C;&#x6F;&#x63;&#x61;&#x74;&#x69;&#x6F;&#x6E;"
      horiz-adv-x="1024" d="M512 384C535.467 384 555.563 392.363 572.288 409.088C589.013 425.8130000000001 597.376 445.908 597.333 469.333C597.333 492.8 588.971 512.896 572.245 529.6210000000001C555.52 546.348 535.425 554.711 512 554.6680000000001C488.533 554.6680000000001 468.437 546.3050000000001 451.712 529.58C434.987 512.8530000000001 426.624 492.7570000000001 426.667 469.333C426.667 445.867 435.029 425.771 451.755 409.045C468.48 392.32 488.575 383.957 512 384zM512 70.4C598.74 150.06 663.125 222.42 705.067 287.488C747.007 352.555 768 410.325 768 460.8C768 538.325 743.296 601.77 693.845 651.1800000000001C644.395 700.587 583.808 725.29 512 725.3330000000001C440.192 725.3330000000001 379.563 700.629 330.112 651.1790000000001C280.662 601.7270000000001 255.957 538.282 256 460.799C256 410.324 276.992 352.5110000000001 318.933 287.4440000000001C360.875 222.38 425.26 150.015 512 70.4zM512 -42.667C397.525 54.74 312.02 145.237 255.488 228.78C198.955 312.32 170.708 389.675 170.668 460.8C170.668 567.467 204.971 652.4599999999999 273.621 715.733C342.273 779.008 421.718 810.667 512 810.667C602.325 810.667 681.77 779.0070000000001 750.42 715.733C819.073 652.46 853.377 567.467 853.334 460.8C853.334 389.675 825.0459999999999 312.3630000000001 768.5139999999999 228.78C711.978 145.194 626.474 54.74 512 -42.668z" />
    <glyph glyph-name="link"
      unicode="&#xE013;"
      horiz-adv-x="1024" d="M451.84 323.8400000000001C469.333 307.2000000000001 469.333 279.8930000000001 451.84 263.2530000000001C435.2 246.6130000000001 407.893 246.6130000000001 391.253 263.2530000000001C351.275 303.2750000000001 328.833 357.5030000000001 328.833 414.0800000000001C328.833 470.6560000000001 351.275 524.885 391.253 564.907L542.293 715.947C582.315 755.9250000000001 636.543 778.3670000000001 693.12 778.3670000000001C749.696 778.3670000000001 803.925 755.9250000000001 843.947 715.947C883.925 675.9250000000001 906.367 621.697 906.367 565.12C906.367 508.544 883.925 454.315 843.947 414.293L780.373 350.7200000000001C780.8000000000001 385.7070000000001 775.253 420.6930000000001 763.307 453.973L783.36 474.453C795.307 486.273 804.82 500.353 811.307 515.883C817.792 531.413 821.12 548.096 821.12 564.907C821.12 581.7170000000001 817.792 598.4000000000001 811.307 613.931C804.821 629.461 795.307 643.541 783.36 655.3610000000001C771.54 667.308 757.46 676.821 741.9300000000001 683.308C726.4000000000001 689.7930000000001 709.7170000000001 693.1210000000001 692.907 693.1210000000001C676.0970000000001 693.1210000000001 659.413 689.793 643.883 683.308C628.3530000000001 676.8220000000001 614.273 667.308 602.4530000000001 655.3610000000001L451.84 504.747C439.893 492.927 430.38 478.847 423.893 463.317C417.408 447.7870000000001 414.08 431.104 414.08 414.293C414.08 397.483 417.408 380.8 423.893 365.269C430.379 349.7390000000001 439.893 335.659 451.84 323.8390000000001zM572.16 504.7470000000001C588.8 521.3870000000001 616.107 521.3870000000001 632.747 504.7470000000001C672.7249999999999 464.7250000000001 695.1669999999999 410.4970000000001 695.1669999999999 353.9200000000001C695.1669999999999 297.3440000000001 672.7249999999999 243.115 632.747 203.0930000000001L481.707 52.0530000000001C441.685 12.0750000000002 387.457 -10.3669999999998 330.88 -10.3669999999998C274.304 -10.3669999999998 220.075 12.0750000000002 180.053 52.0530000000001C140.075 92.0750000000002 117.633 146.3030000000001 117.633 202.8800000000001C117.633 259.4560000000002 140.075 313.6850000000002 180.053 353.7070000000001L243.627 417.2800000000001C243.2 382.2930000000001 248.747 347.3070000000002 260.693 313.6000000000002L240.64 293.5470000000002C228.693 281.7270000000001 219.18 267.6470000000002 212.693 252.1170000000002C206.208 236.5870000000002 202.88 219.9040000000002 202.88 203.0930000000002C202.88 186.2830000000003 206.208 169.6000000000001 212.693 154.0690000000002C219.179 138.5390000000002 228.693 124.4590000000002 240.64 112.6390000000002C252.46 100.6920000000002 266.54 91.1790000000002 282.07 84.6920000000002C297.6 78.2070000000002 314.283 74.8790000000003 331.093 74.8790000000003C347.903 74.8790000000003 364.587 78.2070000000002 380.117 84.6920000000002C395.647 91.1780000000002 409.7270000000001 100.6920000000002 421.5470000000001 112.6390000000002L572.16 263.2530000000001C584.107 275.0730000000001 593.62 289.153 600.107 304.683C606.592 320.213 609.92 336.896 609.92 353.707C609.92 370.517 606.592 387.2 600.107 402.731C593.621 418.261 584.107 432.341 572.16 444.161C568.02 448.044 564.736 452.737 562.432 457.941C560.212 463.148 559.019 468.7809999999999 559.019 474.454C559.019 480.129 560.212 485.761 562.431 490.966C564.735 496.172 568.0210000000001 500.8659999999999 572.159 504.7479999999999z" />
    <glyph glyph-name="link-1"
      unicode="&#x6C;&#x69;&#x6E;&#x6B;"
      horiz-adv-x="1024" d="M451.84 323.8400000000001C469.333 307.2000000000001 469.333 279.8930000000001 451.84 263.2530000000001C435.2 246.6130000000001 407.893 246.6130000000001 391.253 263.2530000000001C351.275 303.2750000000001 328.833 357.5030000000001 328.833 414.0800000000001C328.833 470.6560000000001 351.275 524.885 391.253 564.907L542.293 715.947C582.315 755.9250000000001 636.543 778.3670000000001 693.12 778.3670000000001C749.696 778.3670000000001 803.925 755.9250000000001 843.947 715.947C883.925 675.9250000000001 906.367 621.697 906.367 565.12C906.367 508.544 883.925 454.315 843.947 414.293L780.373 350.7200000000001C780.8000000000001 385.7070000000001 775.253 420.6930000000001 763.307 453.973L783.36 474.453C795.307 486.273 804.82 500.353 811.307 515.883C817.792 531.413 821.12 548.096 821.12 564.907C821.12 581.7170000000001 817.792 598.4000000000001 811.307 613.931C804.821 629.461 795.307 643.541 783.36 655.3610000000001C771.54 667.308 757.46 676.821 741.9300000000001 683.308C726.4000000000001 689.7930000000001 709.7170000000001 693.1210000000001 692.907 693.1210000000001C676.0970000000001 693.1210000000001 659.413 689.793 643.883 683.308C628.3530000000001 676.8220000000001 614.273 667.308 602.4530000000001 655.3610000000001L451.84 504.747C439.893 492.927 430.38 478.847 423.893 463.317C417.408 447.7870000000001 414.08 431.104 414.08 414.293C414.08 397.483 417.408 380.8 423.893 365.269C430.379 349.7390000000001 439.893 335.659 451.84 323.8390000000001zM572.16 504.7470000000001C588.8 521.3870000000001 616.107 521.3870000000001 632.747 504.7470000000001C672.7249999999999 464.7250000000001 695.1669999999999 410.4970000000001 695.1669999999999 353.9200000000001C695.1669999999999 297.3440000000001 672.7249999999999 243.115 632.747 203.0930000000001L481.707 52.0530000000001C441.685 12.0750000000002 387.457 -10.3669999999998 330.88 -10.3669999999998C274.304 -10.3669999999998 220.075 12.0750000000002 180.053 52.0530000000001C140.075 92.0750000000002 117.633 146.3030000000001 117.633 202.8800000000001C117.633 259.4560000000002 140.075 313.6850000000002 180.053 353.7070000000001L243.627 417.2800000000001C243.2 382.2930000000001 248.747 347.3070000000002 260.693 313.6000000000002L240.64 293.5470000000002C228.693 281.7270000000001 219.18 267.6470000000002 212.693 252.1170000000002C206.208 236.5870000000002 202.88 219.9040000000002 202.88 203.0930000000002C202.88 186.2830000000003 206.208 169.6000000000001 212.693 154.0690000000002C219.179 138.5390000000002 228.693 124.4590000000002 240.64 112.6390000000002C252.46 100.6920000000002 266.54 91.1790000000002 282.07 84.6920000000002C297.6 78.2070000000002 314.283 74.8790000000003 331.093 74.8790000000003C347.903 74.8790000000003 364.587 78.2070000000002 380.117 84.6920000000002C395.647 91.1780000000002 409.7270000000001 100.6920000000002 421.5470000000001 112.6390000000002L572.16 263.2530000000001C584.107 275.0730000000001 593.62 289.153 600.107 304.683C606.592 320.213 609.92 336.896 609.92 353.707C609.92 370.517 606.592 387.2 600.107 402.731C593.621 418.261 584.107 432.341 572.16 444.161C568.02 448.044 564.736 452.737 562.432 457.941C560.212 463.148 559.019 468.7809999999999 559.019 474.454C559.019 480.129 560.212 485.761 562.431 490.966C564.735 496.172 568.0210000000001 500.8659999999999 572.159 504.7479999999999z" />
    <glyph glyph-name="folder"
      unicode="&#xE014;"
      horiz-adv-x="1024" d="M391.253 640L476.587 554.667H853.333V128H170.667V640H391.2530000000001zM426.667 725.333H170.667C123.733 725.333 85.76 686.933 85.76 640L85.333 128C85.333 81.067 123.733 42.667 170.667 42.667H853.3330000000001C900.267 42.667 938.6670000000001 81.067 938.6670000000001 128V554.6669999999999C938.6670000000001 601.5999999999999 900.2670000000002 640 853.3330000000001 640H512L426.6670000000001 725.333z" />
    <glyph glyph-name="folder-1"
      unicode="&#x66;&#x6F;&#x6C;&#x64;&#x65;&#x72;"
      horiz-adv-x="1024" d="M391.253 640L476.587 554.667H853.333V128H170.667V640H391.2530000000001zM426.667 725.333H170.667C123.733 725.333 85.76 686.933 85.76 640L85.333 128C85.333 81.067 123.733 42.667 170.667 42.667H853.3330000000001C900.267 42.667 938.6670000000001 81.067 938.6670000000001 128V554.6669999999999C938.6670000000001 601.5999999999999 900.2670000000002 640 853.3330000000001 640H512L426.6670000000001 725.333z" />
    <glyph glyph-name="exit"
      unicode="&#xE015;"
      horiz-adv-x="1024" d="M430.507 230.827L490.667 170.667L704 384L490.667 597.3330000000001L430.507 537.173L540.587 426.6670000000001H128V341.3330000000001H540.587L430.507 230.8270000000001zM810.667 768H213.333C190.72 768 169.003 758.9970000000001 153.003 742.9970000000001S128 705.28 128 682.667V512H213.333V682.667H810.6669999999999V85.3330000000001H213.333V256H128V85.333C128 62.72 137.003 41.0029999999999 153.003 25.0029999999999S190.72 0 213.333 0H810.6669999999999C857.6 0 896 38.4 896 85.333V682.667C896 729.6 857.6 768 810.667 768z" />
    <glyph glyph-name="exit-1"
      unicode="&#x65;&#x78;&#x69;&#x74;"
      horiz-adv-x="1024" d="M430.507 230.827L490.667 170.667L704 384L490.667 597.3330000000001L430.507 537.173L540.587 426.6670000000001H128V341.3330000000001H540.587L430.507 230.8270000000001zM810.667 768H213.333C190.72 768 169.003 758.9970000000001 153.003 742.9970000000001S128 705.28 128 682.667V512H213.333V682.667H810.6669999999999V85.3330000000001H213.333V256H128V85.333C128 62.72 137.003 41.0029999999999 153.003 25.0029999999999S190.72 0 213.333 0H810.6669999999999C857.6 0 896 38.4 896 85.333V682.667C896 729.6 857.6 768 810.667 768z" />
    <glyph glyph-name="error"
      unicode="&#xE016;"
      horiz-adv-x="1024" d="M512 810.667C747.52 810.667 938.667 619.52 938.667 384C938.667 148.48 747.52 -42.6669999999999 511.9999999999999 -42.6669999999999C276.48 -42.667 85.333 148.48 85.333 384C85.333 619.52 276.48 810.667 512 810.667zM469.333 597.333V341.333H554.6669999999999V597.333zM469.333 170.6669999999999H554.6669999999999V256H469.3329999999999z" />
    <glyph glyph-name="error-1"
      unicode="&#x65;&#x72;&#x72;&#x6F;&#x72;"
      horiz-adv-x="1024" d="M512 810.667C747.52 810.667 938.667 619.52 938.667 384C938.667 148.48 747.52 -42.6669999999999 511.9999999999999 -42.6669999999999C276.48 -42.667 85.333 148.48 85.333 384C85.333 619.52 276.48 810.667 512 810.667zM469.333 597.333V341.333H554.6669999999999V597.333zM469.333 170.6669999999999H554.6669999999999V256H469.3329999999999z" />
    <glyph glyph-name="edit"
      unicode="&#xE017;"
      horiz-adv-x="1024" d="M813.227 742.827L870.827 685.227C904.533 651.947 904.533 597.76 870.827 564.48L306.347 0H128V178.347L571.733 622.5070000000001L692.4799999999999 742.827C725.7599999999999 776.107 779.9469999999999 776.107 813.2269999999999 742.827zM213.333 85.333L273.493 82.773L692.48 502.187L632.32 562.347L213.333 143.36z" />
    <glyph glyph-name="edit-1"
      unicode="&#x65;&#x64;&#x69;&#x74;"
      horiz-adv-x="1024" d="M813.227 742.827L870.827 685.227C904.533 651.947 904.533 597.76 870.827 564.48L306.347 0H128V178.347L571.733 622.5070000000001L692.4799999999999 742.827C725.7599999999999 776.107 779.9469999999999 776.107 813.2269999999999 742.827zM213.333 85.333L273.493 82.773L692.48 502.187L632.32 562.347L213.333 143.36z" />
    <glyph glyph-name="download"
      unicode="&#xE018;"
      horiz-adv-x="1024" d="M768 256V128H256V256H170.667V128C170.667 81.067 209.067 42.667 256 42.667H768C814.933 42.667 853.333 81.067 853.333 128V256H768zM725.333 426.6670000000001L665.173 486.827L554.667 376.747V725.333H469.333V376.747L358.827 486.8269999999999L298.6670000000001 426.6669999999999L512 213.333L725.333 426.667z" />
    <glyph glyph-name="download-1"
      unicode="&#x64;&#x6F;&#x77;&#x6E;&#x6C;&#x6F;&#x61;&#x64;"
      horiz-adv-x="1024" d="M768 256V128H256V256H170.667V128C170.667 81.067 209.067 42.667 256 42.667H768C814.933 42.667 853.333 81.067 853.333 128V256H768zM725.333 426.6670000000001L665.173 486.827L554.667 376.747V725.333H469.333V376.747L358.827 486.8269999999999L298.6670000000001 426.6669999999999L512 213.333L725.333 426.667z" />
    <glyph glyph-name="delete"
      unicode="&#xE019;"
      horiz-adv-x="1024" d="M640 768V725.333H853.333V640H810.6669999999999V85.333C810.6669999999999 38.4 772.2669999999999 0 725.3329999999999 0H298.667C251.733 0 213.333 38.4 213.333 85.333V640H170.667V725.333H384V768zM298.667 85.333H725.333V640H298.667zM384 554.6669999999999H469.333V170.6669999999999H384zM640 554.6669999999999V170.6669999999999H554.667V554.6669999999999z" />
    <glyph glyph-name="delete-1"
      unicode="&#x64;&#x65;&#x6C;&#x65;&#x74;&#x65;"
      horiz-adv-x="1024" d="M640 768V725.333H853.333V640H810.6669999999999V85.333C810.6669999999999 38.4 772.2669999999999 0 725.3329999999999 0H298.667C251.733 0 213.333 38.4 213.333 85.333V640H170.667V725.333H384V768zM298.667 85.333H725.333V640H298.667zM384 554.6669999999999H469.333V170.6669999999999H384zM640 554.6669999999999V170.6669999999999H554.667V554.6669999999999z" />
    <glyph glyph-name="date"
      unicode="&#xE01A;"
      horiz-adv-x="1024" d="M341.3330000000001 298.6670000000001C329.259 298.6670000000001 319.103 302.7630000000001 310.913 310.9550000000001C302.7200000000001 319.1470000000001 298.623 329.259 298.6670000000001 341.3330000000001C298.6670000000001 353.4080000000002 302.7630000000001 363.5630000000001 310.9550000000001 371.7550000000001S329.26 384.043 341.3330000000001 384C353.408 384 363.5630000000001 379.904 371.7550000000001 371.712S384.0430000000001 353.408 384.0000000000001 341.332C384.0000000000001 329.259 379.9040000000001 319.1040000000001 371.7120000000001 310.9120000000001S353.4080000000001 298.624 341.3320000000001 298.6670000000001zM512 298.6670000000001C499.925 298.6670000000001 489.77 302.7630000000001 481.58 310.9550000000001C473.387 319.1470000000001 469.29 329.259 469.333 341.3330000000001C469.333 353.4080000000002 473.429 363.5630000000001 481.621 371.7550000000001C489.814 379.9470000000001 499.926 384.0430000000001 512.001 384.0000000000001C524.076 384.0000000000001 534.231 379.9040000000001 542.4209999999999 371.7120000000001C550.6139999999999 363.5200000000001 554.7109999999999 353.4080000000002 554.6679999999999 341.3320000000001C554.6679999999999 329.2590000000002 550.5719999999999 319.1040000000002 542.3799999999999 310.9120000000002C534.1869999999999 302.7200000000002 524.0749999999999 298.6240000000002 511.9999999999999 298.6670000000002zM682.667 298.6670000000001C670.592 298.6670000000001 660.437 302.7630000000001 652.245 310.9550000000001S639.957 329.26 640 341.333C640 353.408 644.096 363.563 652.288 371.755S670.592 384.043 682.668 384C694.741 384 704.896 379.904 713.088 371.712S725.376 353.408 725.333 341.332C725.333 329.259 721.237 319.1040000000001 713.045 310.9120000000001S694.741 298.624 682.6669999999999 298.6670000000001zM213.333 -42.667C189.867 -42.667 169.771 -34.3040000000001 153.045 -17.5790000000001C136.32 -0.8520000000001 127.957 19.2439999999999 128 42.6679999999999V640C128 663.467 136.363 683.563 153.088 700.288C169.813 717.013 189.908 725.376 213.333 725.3330000000001H256V810.667H341.333V725.333H682.6669999999999V810.667H768V725.333H810.667C834.133 725.333 854.229 716.971 870.955 700.245C887.68 683.52 896.043 663.425 896 640V42.667C896 19.2 887.637 -0.896 870.912 -17.621C854.187 -34.348 834.092 -42.711 810.667 -42.668H213.333zM213.333 42.6669999999999H810.6669999999999V469.333H213.333V42.667zM213.333 554.6669999999999H810.6669999999999V640H213.333V554.667z" />
    <glyph glyph-name="date-1"
      unicode="&#x64;&#x61;&#x74;&#x65;"
      horiz-adv-x="1024" d="M341.3330000000001 298.6670000000001C329.259 298.6670000000001 319.103 302.7630000000001 310.913 310.9550000000001C302.7200000000001 319.1470000000001 298.623 329.259 298.6670000000001 341.3330000000001C298.6670000000001 353.4080000000002 302.7630000000001 363.5630000000001 310.9550000000001 371.7550000000001S329.26 384.043 341.3330000000001 384C353.408 384 363.5630000000001 379.904 371.7550000000001 371.712S384.0430000000001 353.408 384.0000000000001 341.332C384.0000000000001 329.259 379.9040000000001 319.1040000000001 371.7120000000001 310.9120000000001S353.4080000000001 298.624 341.3320000000001 298.6670000000001zM512 298.6670000000001C499.925 298.6670000000001 489.77 302.7630000000001 481.58 310.9550000000001C473.387 319.1470000000001 469.29 329.259 469.333 341.3330000000001C469.333 353.4080000000002 473.429 363.5630000000001 481.621 371.7550000000001C489.814 379.9470000000001 499.926 384.0430000000001 512.001 384.0000000000001C524.076 384.0000000000001 534.231 379.9040000000001 542.4209999999999 371.7120000000001C550.6139999999999 363.5200000000001 554.7109999999999 353.4080000000002 554.6679999999999 341.3320000000001C554.6679999999999 329.2590000000002 550.5719999999999 319.1040000000002 542.3799999999999 310.9120000000002C534.1869999999999 302.7200000000002 524.0749999999999 298.6240000000002 511.9999999999999 298.6670000000002zM682.667 298.6670000000001C670.592 298.6670000000001 660.437 302.7630000000001 652.245 310.9550000000001S639.957 329.26 640 341.333C640 353.408 644.096 363.563 652.288 371.755S670.592 384.043 682.668 384C694.741 384 704.896 379.904 713.088 371.712S725.376 353.408 725.333 341.332C725.333 329.259 721.237 319.1040000000001 713.045 310.9120000000001S694.741 298.624 682.6669999999999 298.6670000000001zM213.333 -42.667C189.867 -42.667 169.771 -34.3040000000001 153.045 -17.5790000000001C136.32 -0.8520000000001 127.957 19.2439999999999 128 42.6679999999999V640C128 663.467 136.363 683.563 153.088 700.288C169.813 717.013 189.908 725.376 213.333 725.3330000000001H256V810.667H341.333V725.333H682.6669999999999V810.667H768V725.333H810.667C834.133 725.333 854.229 716.971 870.955 700.245C887.68 683.52 896.043 663.425 896 640V42.667C896 19.2 887.637 -0.896 870.912 -17.621C854.187 -34.348 834.092 -42.711 810.667 -42.668H213.333zM213.333 42.6669999999999H810.6669999999999V469.333H213.333V42.667zM213.333 554.6669999999999H810.6669999999999V640H213.333V554.667z" />
    <glyph glyph-name="close"
      unicode="&#xE01B;"
      horiz-adv-x="1024" d="M810.667 622.5070000000001L750.5070000000001 682.667L512 444.1600000000001L273.493 682.667L213.333 622.5070000000001L451.84 384L213.333 145.4930000000001L273.493 85.3330000000001L512 323.8400000000001L750.5070000000001 85.3330000000001L810.667 145.4930000000001L572.16 384L810.6669999999999 622.5070000000001z" />
    <glyph glyph-name="close-1"
      unicode="&#x63;&#x6C;&#x6F;&#x73;&#x65;"
      horiz-adv-x="1024" d="M810.667 622.5070000000001L750.5070000000001 682.667L512 444.1600000000001L273.493 682.667L213.333 622.5070000000001L451.84 384L213.333 145.4930000000001L273.493 85.3330000000001L512 323.8400000000001L750.5070000000001 85.3330000000001L810.667 145.4930000000001L572.16 384L810.6669999999999 622.5070000000001z" />
    <glyph glyph-name="check"
      unicode="&#xE01C;"
      horiz-adv-x="1024" d="M384 206.0800000000001L206.08 384L145.493 323.8400000000001L384 85.333L896 597.333L835.84 657.4929999999999L384 206.0800000000001z" />
    <glyph glyph-name="check-1"
      unicode="&#x63;&#x68;&#x65;&#x63;&#x6B;"
      horiz-adv-x="1024" d="M384 206.0800000000001L206.08 384L145.493 323.8400000000001L384 85.333L896 597.333L835.84 657.4929999999999L384 206.0800000000001z" />
    <glyph glyph-name="cancel"
      unicode="&#xE01D;"
      horiz-adv-x="1024" d="M512 810.667C747.947 810.667 938.667 619.947 938.667 384C938.667 148.053 747.9469999999999 -42.6669999999999 511.9999999999999 -42.6669999999999C276.053 -42.6669999999999 85.333 148.0530000000001 85.333 384.0000000000001C85.333 619.9470000000001 276.053 810.667 511.9999999999999 810.667zM512 42.667C700.16 42.667 853.3330000000001 195.84 853.3330000000001 384.0000000000001C853.3330000000001 572.1600000000001 700.1600000000001 725.3330000000001 512 725.3330000000001C323.8400000000001 725.3330000000001 170.667 572.1600000000001 170.667 384.0000000000001C170.667 195.84 323.84 42.667 512 42.667zM512 444.1600000000001L665.173 597.3330000000001L725.333 537.173L572.16 384L725.333 230.827L665.173 170.667L512 323.8400000000001L358.827 170.667L298.6670000000001 230.827L451.84 384L298.667 537.173L358.827 597.333z" />
    <glyph glyph-name="cancel-1"
      unicode="&#x63;&#x61;&#x6E;&#x63;&#x65;&#x6C;"
      horiz-adv-x="1024" d="M512 810.667C747.947 810.667 938.667 619.947 938.667 384C938.667 148.053 747.9469999999999 -42.6669999999999 511.9999999999999 -42.6669999999999C276.053 -42.6669999999999 85.333 148.0530000000001 85.333 384.0000000000001C85.333 619.9470000000001 276.053 810.667 511.9999999999999 810.667zM512 42.667C700.16 42.667 853.3330000000001 195.84 853.3330000000001 384.0000000000001C853.3330000000001 572.1600000000001 700.1600000000001 725.3330000000001 512 725.3330000000001C323.8400000000001 725.3330000000001 170.667 572.1600000000001 170.667 384.0000000000001C170.667 195.84 323.84 42.667 512 42.667zM512 444.1600000000001L665.173 597.3330000000001L725.333 537.173L572.16 384L725.333 230.827L665.173 170.667L512 323.8400000000001L358.827 170.667L298.6670000000001 230.827L451.84 384L298.667 537.173L358.827 597.333z" />
    <glyph glyph-name="attach_file"
      unicode="&#xE01E;"
      horiz-adv-x="1024" d="M661.333 640V192C661.333 97.707 584.9599999999999 21.333 490.667 21.333C396.373 21.333 320 97.707 320 192V640C320 698.88 367.787 746.667 426.6670000000001 746.667S533.333 698.88 533.333 640V234.6669999999999C533.333 211.1999999999999 514.1329999999999 191.9999999999999 490.667 191.9999999999999C467.2 192 448 211.2000000000001 448 234.6670000000001V640H384V234.6669999999999C384 175.787 431.787 128 490.667 128S597.333 175.787 597.333 234.6670000000001V640C597.333 734.293 520.9599999999999 810.667 426.667 810.667C332.373 810.667 256 734.293 256 640V192C256 62.293 360.96 -42.667 490.667 -42.667C620.373 -42.667 725.3330000000001 62.293 725.3330000000001 192V640H661.3330000000001z" />
    <glyph glyph-name="attach_file-1"
      unicode="&#x61;&#x74;&#x74;&#x61;&#x63;&#x68;&#x5F;&#x66;&#x69;&#x6C;&#x65;"
      horiz-adv-x="1024" d="M661.333 640V192C661.333 97.707 584.9599999999999 21.333 490.667 21.333C396.373 21.333 320 97.707 320 192V640C320 698.88 367.787 746.667 426.6670000000001 746.667S533.333 698.88 533.333 640V234.6669999999999C533.333 211.1999999999999 514.1329999999999 191.9999999999999 490.667 191.9999999999999C467.2 192 448 211.2000000000001 448 234.6670000000001V640H384V234.6669999999999C384 175.787 431.787 128 490.667 128S597.333 175.787 597.333 234.6670000000001V640C597.333 734.293 520.9599999999999 810.667 426.667 810.667C332.373 810.667 256 734.293 256 640V192C256 62.293 360.96 -42.667 490.667 -42.667C620.373 -42.667 725.3330000000001 62.293 725.3330000000001 192V640H661.3330000000001z" />
    <glyph glyph-name="arrow-up"
      unicode="&#xE01F;"
      horiz-adv-x="1024" d="M298.667 298.6670000000001L512 512L725.333 298.6670000000001H298.667z" />
    <glyph glyph-name="arrow-up-1"
      unicode="&#x61;&#x72;&#x72;&#x6F;&#x77;&#x5F;&#x75;&#x70;"
      horiz-adv-x="1024" d="M298.667 298.6670000000001L512 512L725.333 298.6670000000001H298.667z" />
    <glyph glyph-name="arrow-right"
      unicode="&#xE020;"
      horiz-adv-x="1024" d="M426.667 170.667L640 384L426.667 597.3330000000001V170.667z" />
    <glyph glyph-name="arrow-right-1"
      unicode="&#x61;&#x72;&#x72;&#x6F;&#x77;&#x5F;&#x72;&#x69;&#x67;&#x68;&#x74;"
      horiz-adv-x="1024" d="M426.667 170.667L640 384L426.667 597.3330000000001V170.667z" />
    <glyph glyph-name="arrow-left"
      unicode="&#xE021;"
      horiz-adv-x="1024" d="M597.333 597.3330000000001L384 384L597.333 170.667V597.3330000000001z" />
    <glyph glyph-name="arrow-left-1"
      unicode="&#x61;&#x72;&#x72;&#x6F;&#x77;&#x5F;&#x6C;&#x65;&#x66;&#x74;"
      horiz-adv-x="1024" d="M597.333 597.3330000000001L384 384L597.333 170.667V597.3330000000001z" />
    <glyph glyph-name="arrow-down"
      unicode="&#xE022;"
      horiz-adv-x="1024" d="M298.667 469.333L512 256L725.333 469.333H298.667z" />
    <glyph glyph-name="arrow-down-1"
      unicode="&#x61;&#x72;&#x72;&#x6F;&#x77;&#x5F;&#x64;&#x6F;&#x77;&#x6E;"
      horiz-adv-x="1024" d="M298.667 469.333L512 256L725.333 469.333H298.667z" />
    <glyph glyph-name="arrow_forward"
      unicode="&#xE023;"
      horiz-adv-x="1024" d="M512 725.333L451.84 665.173L689.9200000000001 426.6670000000001H170.667V341.3330000000001H689.92L451.84 102.827L512 42.667L853.333 384L512 725.333z" />
    <glyph glyph-name="arrow_forward-1"
      unicode="&#x61;&#x72;&#x72;&#x6F;&#x77;&#x5F;&#x66;&#x6F;&#x72;&#x77;&#x61;&#x72;&#x64;"
      horiz-adv-x="1024" d="M512 725.333L451.84 665.173L689.9200000000001 426.6670000000001H170.667V341.3330000000001H689.92L451.84 102.827L512 42.667L853.333 384L512 725.333z" />
    <glyph glyph-name="arrow_back"
      unicode="&#xE024;"
      horiz-adv-x="1024" d="M853.333 426.667H334.08L572.587 665.173L512 725.333L170.667 384L512 42.667L572.16 102.827L334.08 341.333H853.333V426.667z" />
    <glyph glyph-name="arrow_back-1"
      unicode="&#x61;&#x72;&#x72;&#x6F;&#x77;&#x5F;&#x62;&#x61;&#x63;&#x6B;"
      horiz-adv-x="1024" d="M853.333 426.667H334.08L572.587 665.173L512 725.333L170.667 384L512 42.667L572.16 102.827L334.08 341.333H853.333V426.667z" />
    <glyph glyph-name="add"
      unicode="&#xE025;"
      horiz-adv-x="1024" d="M853.333 341.333H554.667V42.6669999999999H469.333V341.333H170.667V426.667H469.333V725.333H554.6669999999999V426.6670000000001H853.3329999999999V341.3330000000001z" />
    <glyph glyph-name="add-1"
      unicode="&#x61;&#x64;&#x64;"
      horiz-adv-x="1024" d="M853.333 341.333H554.667V42.6669999999999H469.333V341.333H170.667V426.667H469.333V725.333H554.6669999999999V426.6670000000001H853.3329999999999V341.3330000000001z" />
    <glyph glyph-name="alert"
      unicode="&#xE026;"
      horiz-adv-x="1024" d="M548.907 768L955.35 64C959.104 57.515 961.067 50.176 961.067 42.667C961.067 35.2 959.104 27.8190000000001 955.349 21.3330000000001C951.594 14.8480000000001 946.219 9.4730000000001 939.732 5.7170000000001C933.248 1.963 925.91 0 918.4 0H105.515C98.005 0 90.667 1.963 84.181 5.717C77.697 9.472 72.321 14.847 68.566 21.333C64.812 27.819 62.849 35.1999999999999 62.849 42.6669999999999C62.849 50.1769999999999 64.812 57.5149999999999 68.566 63.9999999999999L475.009 767.9999999999999C478.764 774.4849999999999 484.139 779.8599999999999 490.625 783.6159999999999C497.11 787.3709999999999 504.449 789.3329999999999 511.958 789.3329999999999C519.468 789.3329999999999 526.8059999999999 787.3709999999999 533.2919999999999 783.6159999999999C539.7779999999999 779.8609999999999 545.1539999999999 774.4859999999999 548.9089999999999 767.9999999999999zM179.413 85.333H844.5L512 661.333L179.413 85.333zM469.291 213.333H554.625V128H469.29V213.333zM469.291 511.9999999999999H554.625V298.6669999999999H469.29V512z" />
    <glyph glyph-name="alert-1"
      unicode="&#x61;&#x6C;&#x65;&#x72;&#x74;"
      horiz-adv-x="1024" d="M548.907 768L955.35 64C959.104 57.515 961.067 50.176 961.067 42.667C961.067 35.2 959.104 27.8190000000001 955.349 21.3330000000001C951.594 14.8480000000001 946.219 9.4730000000001 939.732 5.7170000000001C933.248 1.963 925.91 0 918.4 0H105.515C98.005 0 90.667 1.963 84.181 5.717C77.697 9.472 72.321 14.847 68.566 21.333C64.812 27.819 62.849 35.1999999999999 62.849 42.6669999999999C62.849 50.1769999999999 64.812 57.5149999999999 68.566 63.9999999999999L475.009 767.9999999999999C478.764 774.4849999999999 484.139 779.8599999999999 490.625 783.6159999999999C497.11 787.3709999999999 504.449 789.3329999999999 511.958 789.3329999999999C519.468 789.3329999999999 526.8059999999999 787.3709999999999 533.2919999999999 783.6159999999999C539.7779999999999 779.8609999999999 545.1539999999999 774.4859999999999 548.9089999999999 767.9999999999999zM179.413 85.333H844.5L512 661.333L179.413 85.333zM469.291 213.333H554.625V128H469.29V213.333zM469.291 511.9999999999999H554.625V298.6669999999999H469.29V512z" />
    <glyph glyph-name="call"
      unicode="&#xE027;"
      horiz-adv-x="1024" d="M301.1070000000001 792.832L350.874 807.834C378.1640000000001 816.026 407.5010000000001 814.029 433.408 802.254C459.366 790.4259999999999 480.102 769.587 491.776 743.578L530.278 658.0219999999999C540.314 635.6479999999999 543.078 610.7139999999999 538.2660000000001 586.702C533.402 562.688 521.166 540.774 503.2460000000001 524.082L439.45 464.64C437.606 462.9 436.43 460.544 436.122 458.035C434.278 441.088 445.747 408.115 472.218 362.24C491.418 328.91 508.878 305.51 523.674 292.403C534.067 283.2380000000001 539.75 281.2430000000001 542.1569999999999 281.958L627.9169999999999 308.173C651.367 315.341 676.4029999999999 314.983 699.6469999999999 307.2000000000001C722.842 299.418 743.0139999999999 284.5180000000001 757.4019999999999 264.653L811.982 188.8770000000001C828.622 165.8370000000001 836.302 137.5740000000001 833.6379999999999 109.2610000000001C831.0279999999999 80.999 818.1759999999999 54.6310000000001 797.5939999999999 35.0730000000001L759.7059999999999 -0.7669999999999C739.6859999999999 -19.7619999999999 715.0079999999999 -33.227 688.1789999999999 -39.8839999999999C661.4009999999998 -46.5399999999998 633.2919999999999 -46.1299999999999 606.6689999999999 -38.7059999999999C489.1639999999999 -5.8859999999999 383.8449999999999 93.287 289.4329999999999 256.7180000000001C194.9689999999999 420.4040000000001 161.7909999999999 561.3580000000001 192.4089999999999 679.681C199.3209999999999 706.3050000000001 212.9389999999999 730.6760000000002 231.9349999999999 750.4910000000001C250.9809999999999 770.3050000000001 274.7889999999999 784.8970000000002 301.1049999999999 792.8330000000001zM319.5900000000001 731.546C303.7700000000001 726.784 289.485 718.029 278.067 706.15C266.597 694.2719999999999 258.457 679.63 254.31 663.7059999999999C228.608 564.173 257.997 439.194 344.883 288.7159999999999C431.667 138.4459999999999 525.056 50.5859999999999 623.923 22.9379999999999C639.898 18.4319999999999 656.743 18.2279999999998 672.819 22.2209999999999C688.895 26.2149999999999 703.692 34.3049999999998 715.7239999999999 45.6709999999999L753.5089999999999 81.511C762.9289999999999 90.4209999999999 768.7669999999999 102.401 769.9449999999999 115.251C771.1729999999999 128.103 767.641 141.006 760.1149999999999 151.451L705.4849999999999 227.227C698.9809999999999 236.237 689.8169999999999 242.997 679.2179999999998 246.58C668.6699999999998 250.112 657.2519999999998 250.266 646.6029999999998 246.9899999999999L560.64 220.67C510.72 205.822 465.46 245.963 416.82 330.238C384 386.9700000000001 368.74 430.95 372.58 465.1C374.526 482.867 382.82 499.25 395.825 511.437L459.62 570.88C467.76 578.458 473.29 588.442 475.492 599.347C477.694 610.2529999999999 476.414 621.6189999999999 471.857 631.757L433.4050000000001 717.3629999999999C428.0800000000001 729.1899999999999 418.6590000000001 738.663 406.8830000000001 743.987C395.1070000000001 749.3629999999999 381.7430000000001 750.285 369.3530000000001 746.5469999999999L319.5870000000001 731.5469999999999z" />
    <glyph glyph-name="call-1"
      unicode="&#x63;&#x61;&#x6C;&#x6C;"
      horiz-adv-x="1024" d="M301.1070000000001 792.832L350.874 807.834C378.1640000000001 816.026 407.5010000000001 814.029 433.408 802.254C459.366 790.4259999999999 480.102 769.587 491.776 743.578L530.278 658.0219999999999C540.314 635.6479999999999 543.078 610.7139999999999 538.2660000000001 586.702C533.402 562.688 521.166 540.774 503.2460000000001 524.082L439.45 464.64C437.606 462.9 436.43 460.544 436.122 458.035C434.278 441.088 445.747 408.115 472.218 362.24C491.418 328.91 508.878 305.51 523.674 292.403C534.067 283.2380000000001 539.75 281.2430000000001 542.1569999999999 281.958L627.9169999999999 308.173C651.367 315.341 676.4029999999999 314.983 699.6469999999999 307.2000000000001C722.842 299.418 743.0139999999999 284.5180000000001 757.4019999999999 264.653L811.982 188.8770000000001C828.622 165.8370000000001 836.302 137.5740000000001 833.6379999999999 109.2610000000001C831.0279999999999 80.999 818.1759999999999 54.6310000000001 797.5939999999999 35.0730000000001L759.7059999999999 -0.7669999999999C739.6859999999999 -19.7619999999999 715.0079999999999 -33.227 688.1789999999999 -39.8839999999999C661.4009999999998 -46.5399999999998 633.2919999999999 -46.1299999999999 606.6689999999999 -38.7059999999999C489.1639999999999 -5.8859999999999 383.8449999999999 93.287 289.4329999999999 256.7180000000001C194.9689999999999 420.4040000000001 161.7909999999999 561.3580000000001 192.4089999999999 679.681C199.3209999999999 706.3050000000001 212.9389999999999 730.6760000000002 231.9349999999999 750.4910000000001C250.9809999999999 770.3050000000001 274.7889999999999 784.8970000000002 301.1049999999999 792.8330000000001zM319.5900000000001 731.546C303.7700000000001 726.784 289.485 718.029 278.067 706.15C266.597 694.2719999999999 258.457 679.63 254.31 663.7059999999999C228.608 564.173 257.997 439.194 344.883 288.7159999999999C431.667 138.4459999999999 525.056 50.5859999999999 623.923 22.9379999999999C639.898 18.4319999999999 656.743 18.2279999999998 672.819 22.2209999999999C688.895 26.2149999999999 703.692 34.3049999999998 715.7239999999999 45.6709999999999L753.5089999999999 81.511C762.9289999999999 90.4209999999999 768.7669999999999 102.401 769.9449999999999 115.251C771.1729999999999 128.103 767.641 141.006 760.1149999999999 151.451L705.4849999999999 227.227C698.9809999999999 236.237 689.8169999999999 242.997 679.2179999999998 246.58C668.6699999999998 250.112 657.2519999999998 250.266 646.6029999999998 246.9899999999999L560.64 220.67C510.72 205.822 465.46 245.963 416.82 330.238C384 386.9700000000001 368.74 430.95 372.58 465.1C374.526 482.867 382.82 499.25 395.825 511.437L459.62 570.88C467.76 578.458 473.29 588.442 475.492 599.347C477.694 610.2529999999999 476.414 621.6189999999999 471.857 631.757L433.4050000000001 717.3629999999999C428.0800000000001 729.1899999999999 418.6590000000001 738.663 406.8830000000001 743.987C395.1070000000001 749.3629999999999 381.7430000000001 750.285 369.3530000000001 746.5469999999999L319.5870000000001 731.5469999999999z" />
    <glyph glyph-name="menu-yoga"
      unicode="&#xE029;"
      horiz-adv-x="1024" d="M662.912 255.1040000000001L696.917 181.9310000000001Q889.3870000000001 136.6610000000001 889.4290000000001 22.956Q889.4290000000001 -74.6659999999999 776.0630000000001 -74.6659999999999H559.4030000000001Q551.1230000000002 -74.6659999999999 543.8710000000001 -70.6559999999999L437.205 -11.39Q425.6 -4.947 421.973 7.8100000000001Q418.347 20.567 424.747 32.1300000000001Q431.189 43.7350000000001 443.947 47.3620000000001Q456.704 50.989 468.2669999999999 44.5890000000001L567.68 -10.665H776.064Q825.429 -10.665 825.429 22.957Q825.386 89.389 667.903 122.839Q652.287 126.1249999999999 645.546 140.631L604.884 228.097Q599.294 240.129 603.818 252.587Q608.382 265.004 620.371 270.593Q632.403 276.183 644.861 271.66Q657.321 267.093 662.911 255.104zM419.1570000000001 228.096L378.4970000000001 140.629Q371.7550000000001 126.1220000000001 356.1390000000001 122.836Q198.5690000000001 89.386 198.5690000000001 22.954Q198.5690000000001 -10.668 247.9350000000001 -10.668H337.7910000000001L436.3510000000001 44.116L565.931 126.548Q577.1080000000001 133.673 590.0360000000001 130.814Q603.0060000000001 127.914 610.09 116.7339999999999Q617.216 105.554 614.3570000000001 92.627Q611.4570000000001 79.6569999999999 600.277 72.573L469.93 -10.41Q469.12 -10.923 468.267 -11.3919999999999L361.6 -70.6559999999999Q354.3470000000001 -74.6659999999999 346.0700000000001 -74.6659999999999H247.9360000000001Q134.571 -74.6659999999999 134.571 22.9540000000001Q134.571 136.6610000000001 327.1260000000001 181.9310000000001L361.0890000000001 255.0610000000001Q366.6790000000001 267.0940000000001 379.1370000000001 271.6610000000001Q391.5970000000001 276.1810000000001 403.5850000000001 270.6360000000001Q415.617 265.0460000000001 420.182 252.5880000000001Q424.706 240.1280000000001 419.159 228.0980000000001zM78.592 229.163Q164.6080000000001 247.6800000000001 220.2880000000001 265.9410000000001Q286.5080000000001 566.145 509.268 557.9960000000001Q511.616 557.9100000000001 512 557.9100000000001Q512.384 557.9100000000001 514.73 557.995Q737.493 566.145 803.6700000000001 265.985Q859.4350000000001 247.6800000000001 945.4080000000002 229.163Q958.3780000000002 226.347 965.5480000000002 215.211Q972.7580000000002 204.076 969.9410000000001 191.148Q967.169 178.178 956.0330000000002 171.0080000000001Q944.8970000000002 163.798 931.9260000000002 166.614Q828.2890000000002 188.9290000000001 765.3130000000001 211.457Q748.2460000000001 217.557 744.7050000000002 235.35Q691.9690000000002 500.437 517.0780000000002 494.037Q513.5380000000002 493.909 512.0010000000002 493.909Q510.4650000000002 493.909 506.9240000000002 494.0360000000001Q332.0340000000002 500.436 279.2970000000002 235.3480000000001Q275.7570000000002 217.5550000000001 258.6890000000002 211.4540000000001Q195.7130000000002 188.884 92.0760000000002 166.6110000000001Q79.1060000000002 163.7950000000001 67.9690000000002 171.0060000000001Q56.8330000000002 178.1740000000001 54.0590000000002 191.1460000000001Q51.2440000000002 204.1160000000001 58.4540000000002 215.2510000000001Q65.6640000000002 226.3870000000001 78.5940000000002 229.1610000000001zM512 589.056Q459.477 589.056 422.315 626.1759999999999Q385.195 663.3389999999999 385.195 715.861Q385.195 768.385 422.315 805.505Q459.477 842.667 512 842.667T601.685 805.504Q638.805 768.384 638.805 715.861Q638.805 663.341 601.685 626.177Q564.5229999999999 589.057 511.9999999999999 589.057zM512 653.056Q538.027 653.056 556.4159999999999 671.4459999999999Q574.8059999999999 689.836 574.8059999999999 715.861Q574.8059999999999 741.8889999999999 556.4159999999999 760.278Q538.026 778.668 511.9999999999999 778.668Q485.973 778.668 467.5839999999999 760.278Q449.194 741.8879999999999 449.194 715.862Q449.194 689.837 467.5839999999999 671.447T512 653.0550000000001z" />
    <glyph glyph-name="menu-yoga-1"
      unicode="&#x6D;&#x65;&#x6E;&#x75;&#x5F;&#x79;&#x6F;&#x67;&#x61;"
      horiz-adv-x="1024" d="M662.912 255.1040000000001L696.917 181.9310000000001Q889.3870000000001 136.6610000000001 889.4290000000001 22.956Q889.4290000000001 -74.6659999999999 776.0630000000001 -74.6659999999999H559.4030000000001Q551.1230000000002 -74.6659999999999 543.8710000000001 -70.6559999999999L437.205 -11.39Q425.6 -4.947 421.973 7.8100000000001Q418.347 20.567 424.747 32.1300000000001Q431.189 43.7350000000001 443.947 47.3620000000001Q456.704 50.989 468.2669999999999 44.5890000000001L567.68 -10.665H776.064Q825.429 -10.665 825.429 22.957Q825.386 89.389 667.903 122.839Q652.287 126.1249999999999 645.546 140.631L604.884 228.097Q599.294 240.129 603.818 252.587Q608.382 265.004 620.371 270.593Q632.403 276.183 644.861 271.66Q657.321 267.093 662.911 255.104zM419.1570000000001 228.096L378.4970000000001 140.629Q371.7550000000001 126.1220000000001 356.1390000000001 122.836Q198.5690000000001 89.386 198.5690000000001 22.954Q198.5690000000001 -10.668 247.9350000000001 -10.668H337.7910000000001L436.3510000000001 44.116L565.931 126.548Q577.1080000000001 133.673 590.0360000000001 130.814Q603.0060000000001 127.914 610.09 116.7339999999999Q617.216 105.554 614.3570000000001 92.627Q611.4570000000001 79.6569999999999 600.277 72.573L469.93 -10.41Q469.12 -10.923 468.267 -11.3919999999999L361.6 -70.6559999999999Q354.3470000000001 -74.6659999999999 346.0700000000001 -74.6659999999999H247.9360000000001Q134.571 -74.6659999999999 134.571 22.9540000000001Q134.571 136.6610000000001 327.1260000000001 181.9310000000001L361.0890000000001 255.0610000000001Q366.6790000000001 267.0940000000001 379.1370000000001 271.6610000000001Q391.5970000000001 276.1810000000001 403.5850000000001 270.6360000000001Q415.617 265.0460000000001 420.182 252.5880000000001Q424.706 240.1280000000001 419.159 228.0980000000001zM78.592 229.163Q164.6080000000001 247.6800000000001 220.2880000000001 265.9410000000001Q286.5080000000001 566.145 509.268 557.9960000000001Q511.616 557.9100000000001 512 557.9100000000001Q512.384 557.9100000000001 514.73 557.995Q737.493 566.145 803.6700000000001 265.985Q859.4350000000001 247.6800000000001 945.4080000000002 229.163Q958.3780000000002 226.347 965.5480000000002 215.211Q972.7580000000002 204.076 969.9410000000001 191.148Q967.169 178.178 956.0330000000002 171.0080000000001Q944.8970000000002 163.798 931.9260000000002 166.614Q828.2890000000002 188.9290000000001 765.3130000000001 211.457Q748.2460000000001 217.557 744.7050000000002 235.35Q691.9690000000002 500.437 517.0780000000002 494.037Q513.5380000000002 493.909 512.0010000000002 493.909Q510.4650000000002 493.909 506.9240000000002 494.0360000000001Q332.0340000000002 500.436 279.2970000000002 235.3480000000001Q275.7570000000002 217.5550000000001 258.6890000000002 211.4540000000001Q195.7130000000002 188.884 92.0760000000002 166.6110000000001Q79.1060000000002 163.7950000000001 67.9690000000002 171.0060000000001Q56.8330000000002 178.1740000000001 54.0590000000002 191.1460000000001Q51.2440000000002 204.1160000000001 58.4540000000002 215.2510000000001Q65.6640000000002 226.3870000000001 78.5940000000002 229.1610000000001zM512 589.056Q459.477 589.056 422.315 626.1759999999999Q385.195 663.3389999999999 385.195 715.861Q385.195 768.385 422.315 805.505Q459.477 842.667 512 842.667T601.685 805.504Q638.805 768.384 638.805 715.861Q638.805 663.341 601.685 626.177Q564.5229999999999 589.057 511.9999999999999 589.057zM512 653.056Q538.027 653.056 556.4159999999999 671.4459999999999Q574.8059999999999 689.836 574.8059999999999 715.861Q574.8059999999999 741.8889999999999 556.4159999999999 760.278Q538.026 778.668 511.9999999999999 778.668Q485.973 778.668 467.5839999999999 760.278Q449.194 741.8879999999999 449.194 715.862Q449.194 689.837 467.5839999999999 671.447T512 653.0550000000001z" />
    <glyph glyph-name="menu-retos-2"
      unicode="&#xE02A;"
      horiz-adv-x="1024" d="M725.333 437.3330000000001Q565.333 437.3330000000001 565.333 597.3330000000001V682.667Q565.333 842.667 725.333 842.667H810.6669999999999Q970.667 842.667 970.667 682.667V597.3330000000001Q970.667 437.3330000000001 810.6669999999999 437.3330000000001zM725.333 501.333H810.6669999999999Q906.667 501.333 906.667 597.3330000000001V682.667Q906.667 778.667 810.6669999999999 778.667H725.3329999999999Q629.3329999999999 778.667 629.3329999999999 682.667V597.3330000000001Q629.3329999999999 501.333 725.3329999999999 501.333zM213.333 -74.6669999999999Q53.333 -74.6669999999999 53.333 85.3330000000001V170.6670000000002Q53.333 330.6670000000002 213.333 330.6670000000002H298.667Q458.667 330.6670000000002 458.667 170.6670000000002V85.3330000000001Q458.667 -74.6669999999999 298.667 -74.6669999999999zM213.333 -10.6669999999999H298.667Q394.667 -10.6669999999999 394.667 85.3330000000001V170.6670000000002Q394.667 266.6670000000002 298.667 266.6670000000002H213.333Q117.333 266.6670000000002 117.333 170.6670000000002V85.3330000000001Q117.333 -10.6669999999999 213.333 -10.6669999999999zM256 437.3330000000001Q172.032 437.3330000000001 112.683 496.6830000000001Q53.333 556.0330000000001 53.333 640.0000000000001Q53.333 723.9680000000001 112.683 783.3170000000001Q172.033 842.6670000000001 256 842.6670000000001Q339.968 842.6670000000001 399.317 783.3170000000001Q458.667 723.9670000000001 458.667 640.0000000000001Q458.667 556.0320000000002 399.317 496.6830000000001Q339.967 437.3330000000001 256 437.3330000000001zM256 501.3330000000001Q313.43 501.3330000000001 354.048 541.9530000000001Q394.668 582.5710000000001 394.668 640.0000000000001Q394.668 778.6670000000001 256 778.6670000000001Q117.333 778.6670000000001 117.333 640.0000000000001Q117.333 582.5700000000002 157.953 541.9520000000001Q198.571 501.3320000000001 256 501.3320000000001zM768 -74.6669999999999Q684.075 -74.6669999999999 624.683 -15.3169999999999Q565.333 44.0750000000002 565.333 128.0000000000001Q565.333 211.9250000000001 624.683 271.3170000000001Q684.075 330.6670000000002 768 330.6670000000002Q851.925 330.6670000000002 911.317 271.3170000000001Q970.667 211.9250000000001 970.667 128.0000000000001Q970.667 44.0750000000002 911.317 -15.3169999999999Q851.925 -74.6669999999999 768 -74.6669999999999zM768 -10.6669999999999Q906.667 -10.6669999999999 906.667 128.0000000000001T768 266.6670000000001Q629.333 266.6670000000001 629.333 128T768 -10.667z" />
    <glyph glyph-name="menu-retos-2-1"
      unicode="&#x6D;&#x65;&#x6E;&#x75;&#x5F;&#x72;&#x65;&#x74;&#x6F;&#x73;&#x5F;&#x32;"
      horiz-adv-x="1024" d="M725.333 437.3330000000001Q565.333 437.3330000000001 565.333 597.3330000000001V682.667Q565.333 842.667 725.333 842.667H810.6669999999999Q970.667 842.667 970.667 682.667V597.3330000000001Q970.667 437.3330000000001 810.6669999999999 437.3330000000001zM725.333 501.333H810.6669999999999Q906.667 501.333 906.667 597.3330000000001V682.667Q906.667 778.667 810.6669999999999 778.667H725.3329999999999Q629.3329999999999 778.667 629.3329999999999 682.667V597.3330000000001Q629.3329999999999 501.333 725.3329999999999 501.333zM213.333 -74.6669999999999Q53.333 -74.6669999999999 53.333 85.3330000000001V170.6670000000002Q53.333 330.6670000000002 213.333 330.6670000000002H298.667Q458.667 330.6670000000002 458.667 170.6670000000002V85.3330000000001Q458.667 -74.6669999999999 298.667 -74.6669999999999zM213.333 -10.6669999999999H298.667Q394.667 -10.6669999999999 394.667 85.3330000000001V170.6670000000002Q394.667 266.6670000000002 298.667 266.6670000000002H213.333Q117.333 266.6670000000002 117.333 170.6670000000002V85.3330000000001Q117.333 -10.6669999999999 213.333 -10.6669999999999zM256 437.3330000000001Q172.032 437.3330000000001 112.683 496.6830000000001Q53.333 556.0330000000001 53.333 640.0000000000001Q53.333 723.9680000000001 112.683 783.3170000000001Q172.033 842.6670000000001 256 842.6670000000001Q339.968 842.6670000000001 399.317 783.3170000000001Q458.667 723.9670000000001 458.667 640.0000000000001Q458.667 556.0320000000002 399.317 496.6830000000001Q339.967 437.3330000000001 256 437.3330000000001zM256 501.3330000000001Q313.43 501.3330000000001 354.048 541.9530000000001Q394.668 582.5710000000001 394.668 640.0000000000001Q394.668 778.6670000000001 256 778.6670000000001Q117.333 778.6670000000001 117.333 640.0000000000001Q117.333 582.5700000000002 157.953 541.9520000000001Q198.571 501.3320000000001 256 501.3320000000001zM768 -74.6669999999999Q684.075 -74.6669999999999 624.683 -15.3169999999999Q565.333 44.0750000000002 565.333 128.0000000000001Q565.333 211.9250000000001 624.683 271.3170000000001Q684.075 330.6670000000002 768 330.6670000000002Q851.925 330.6670000000002 911.317 271.3170000000001Q970.667 211.9250000000001 970.667 128.0000000000001Q970.667 44.0750000000002 911.317 -15.3169999999999Q851.925 -74.6669999999999 768 -74.6669999999999zM768 -10.6669999999999Q906.667 -10.6669999999999 906.667 128.0000000000001T768 266.6670000000001Q629.333 266.6670000000001 629.333 128T768 -10.667z" />
    <glyph glyph-name="menu-home"
      unicode="&#xE02B;"
      horiz-adv-x="1024" d="M466.005 794.496C478.848 804.949 495.147 810.6659999999999 512 810.6659999999999C528.853 810.6659999999999 545.152 804.949 557.995 794.496L913.535 505.131C921.429 498.731 927.7450000000002 490.796 932.095 481.7929999999999C936.405 472.833 938.667 463.0199999999999 938.667 453.1209999999999V25.558C938.667 7.468 931.157 -9.898 917.845 -22.698C904.491 -35.4979999999999 886.4 -42.665 867.541 -42.665H637.61C628.1800000000001 -42.665 619.136 -39.081 612.48 -32.6809999999999C605.8240000000001 -26.2809999999999 602.07 -17.6189999999999 602.07 -8.574V275.627H421.93V-8.576C421.93 -17.621 418.176 -26.283 411.52 -32.683C404.864 -39.083 395.82 -42.667 386.39 -42.667H156.46C137.6 -42.667 119.51 -35.499 106.155 -22.6990000000001C92.843 -9.8990000000001 85.333 7.468 85.333 25.5579999999999V453.12C85.333 473.13 94.549 492.203 110.463 505.13L466.005 794.496zM512 742.486L156.46 453.12V25.557H350.805V309.76C350.805 318.805 354.56 327.467 361.2150000000001 333.867C367.915 340.267 376.9600000000001 343.851 386.389 343.851H637.609C647.039 343.851 656.0840000000001 340.2680000000001 662.783 333.8680000000001C669.439 327.4680000000001 673.193 318.8060000000001 673.193 309.7610000000001V25.5580000000001H867.54V453.12L512 742.485z" />
    <glyph glyph-name="menu-home-1"
      unicode="&#x6D;&#x65;&#x6E;&#x75;&#x5F;&#x68;&#x6F;&#x6D;&#x65;"
      horiz-adv-x="1024" d="M466.005 794.496C478.848 804.949 495.147 810.6659999999999 512 810.6659999999999C528.853 810.6659999999999 545.152 804.949 557.995 794.496L913.535 505.131C921.429 498.731 927.7450000000002 490.796 932.095 481.7929999999999C936.405 472.833 938.667 463.0199999999999 938.667 453.1209999999999V25.558C938.667 7.468 931.157 -9.898 917.845 -22.698C904.491 -35.4979999999999 886.4 -42.665 867.541 -42.665H637.61C628.1800000000001 -42.665 619.136 -39.081 612.48 -32.6809999999999C605.8240000000001 -26.2809999999999 602.07 -17.6189999999999 602.07 -8.574V275.627H421.93V-8.576C421.93 -17.621 418.176 -26.283 411.52 -32.683C404.864 -39.083 395.82 -42.667 386.39 -42.667H156.46C137.6 -42.667 119.51 -35.499 106.155 -22.6990000000001C92.843 -9.8990000000001 85.333 7.468 85.333 25.5579999999999V453.12C85.333 473.13 94.549 492.203 110.463 505.13L466.005 794.496zM512 742.486L156.46 453.12V25.557H350.805V309.76C350.805 318.805 354.56 327.467 361.2150000000001 333.867C367.915 340.267 376.9600000000001 343.851 386.389 343.851H637.609C647.039 343.851 656.0840000000001 340.2680000000001 662.783 333.8680000000001C669.439 327.4680000000001 673.193 318.8060000000001 673.193 309.7610000000001V25.5580000000001H867.54V453.12L512 742.485z" />
    <glyph glyph-name="menu-contact-2"
      unicode="&#xE02C;"
      horiz-adv-x="1024" d="M53.333 676.096Q53.333 726.741 86.869 762.88Q121.386 800 170.666 800H853.3320000000001Q902.612 800 937.1300000000002 762.88Q970.6670000000001 726.74 970.6670000000001 676.096V124.8Q970.6670000000001 74.197 937.131 38.0599999999999Q902.614 0.9399999999999 853.3340000000001 0.9399999999999H170.667Q121.344 0.9399999999999 86.869 38.0599999999999Q53.332 74.1969999999999 53.332 124.8zM117.333 676.096V598.912L426.283 332.7570000000001Q464 300.245 512 300.245T597.717 332.7570000000001L906.667 598.912V676.096Q906.667 701.6110000000001 890.2399999999999 719.316Q874.71 736 853.333 736H170.667Q149.291 736 133.76 719.317Q117.333 701.611 117.333 676.097zM117.333 514.432V124.8Q117.333 99.328 133.76 81.62Q149.29 64.9400000000001 170.667 64.9400000000001H853.3330000000001Q874.7090000000001 64.9400000000001 890.2400000000001 81.62Q906.6670000000001 99.328 906.6670000000001 124.8V514.432L639.53 284.288Q583.766 236.245 512 236.245T384.4700000000001 284.288L117.332 514.432z" />
    <glyph glyph-name="menu-contact-2-1"
      unicode="&#x6D;&#x65;&#x6E;&#x75;&#x5F;&#x63;&#x6F;&#x6E;&#x74;&#x61;&#x63;&#x74;&#x5F;&#x32;"
      horiz-adv-x="1024" d="M53.333 676.096Q53.333 726.741 86.869 762.88Q121.386 800 170.666 800H853.3320000000001Q902.612 800 937.1300000000002 762.88Q970.6670000000001 726.74 970.6670000000001 676.096V124.8Q970.6670000000001 74.197 937.131 38.0599999999999Q902.614 0.9399999999999 853.3340000000001 0.9399999999999H170.667Q121.344 0.9399999999999 86.869 38.0599999999999Q53.332 74.1969999999999 53.332 124.8zM117.333 676.096V598.912L426.283 332.7570000000001Q464 300.245 512 300.245T597.717 332.7570000000001L906.667 598.912V676.096Q906.667 701.6110000000001 890.2399999999999 719.316Q874.71 736 853.333 736H170.667Q149.291 736 133.76 719.317Q117.333 701.611 117.333 676.097zM117.333 514.432V124.8Q117.333 99.328 133.76 81.62Q149.29 64.9400000000001 170.667 64.9400000000001H853.3330000000001Q874.7090000000001 64.9400000000001 890.2400000000001 81.62Q906.6670000000001 99.328 906.6670000000001 124.8V514.432L639.53 284.288Q583.766 236.245 512 236.245T384.4700000000001 284.288L117.332 514.432z" />
    <glyph glyph-name="menu-calendar-2"
      unicode="&#xE02D;"
      horiz-adv-x="1024" d="M364.33 810.667V775.297H659.67V810.667Q659.627 823.937 669.0129999999999 833.28Q678.3999999999999 842.667 691.627 842.667Q704.8969999999999 842.667 714.2829999999999 833.28Q723.627 823.936 723.6689999999999 810.667V775.297H893.7389999999998Q925.6089999999998 775.297 948.1389999999998 752.767Q970.6659999999998 730.24 970.6659999999998 698.367V2.22Q970.6659999999998 -29.61 948.1379999999998 -52.14Q925.6079999999998 -74.667 893.7379999999998 -74.667H130.26Q98.39 -74.667 75.86 -52.139Q53.333 -29.609 53.333 2.221V698.367Q53.333 730.239 75.861 752.767Q98.391 775.295 130.261 775.295H300.331V810.665Q300.331 823.935 309.718 833.279Q319.105 842.6659999999999 332.332 842.6659999999999Q345.602 842.6659999999999 354.989 833.279Q364.333 823.935 364.333 810.6659999999999zM117.334 441.813V2.22Q117.334 -3.115 121.132 -6.9119999999999Q124.887 -10.6669999999999 130.262 -10.6669999999999H893.742Q899.117 -10.6669999999999 902.872 -6.9119999999999Q906.669 -3.1149999999999 906.669 2.2180000000001V441.814H117.333zM300.33 711.296H130.26Q124.885 711.296 121.13 707.499Q117.333 703.699 117.333 698.367V505.812H906.667V698.3679999999999Q906.667 703.701 902.869 707.498Q899.1139999999999 711.296 893.7389999999999 711.296H723.67V630.996Q723.627 617.771 714.2829999999999 608.384Q704.896 598.997 691.627 598.997Q678.4 598.997 669.0129999999999 608.384Q659.627 617.771 659.6689999999999 630.997V711.297H364.33V630.997Q364.33 617.771 354.987 608.384Q345.6 598.997 332.331 598.997Q319.105 598.997 309.718 608.384Q300.332 617.771 300.332 630.997V711.297zM287.4460000000001 348.63H422.188Q435.414 348.63 444.801 339.243Q454.188 329.8989999999999 454.188 316.6289999999999Q454.188 303.3589999999999 444.801 294.0149999999999Q435.414 284.628 422.188 284.628H287.445Q274.175 284.628 264.789 294.0139999999999Q255.444 303.358 255.444 316.627Q255.444 329.897 264.788 339.24Q274.1740000000001 348.626 287.443 348.626zM601.8140000000001 348.63H736.556Q749.826 348.63 759.1690000000001 339.243Q768.556 329.8989999999999 768.556 316.6289999999999Q768.556 303.3589999999999 759.1690000000001 294.0149999999999Q749.825 284.628 736.556 284.628H601.813Q588.587 284.628 579.2 294.0139999999999Q569.8130000000001 303.358 569.8130000000001 316.627Q569.8130000000001 329.897 579.2 339.24Q588.587 348.626 601.8130000000001 348.626zM601.8140000000001 169.0029999999999H736.556Q749.826 169.0029999999999 759.1690000000001 159.616Q768.556 150.2290000000001 768.556 137.0029999999999Q768.556 123.733 759.1690000000001 114.347Q749.825 105.0029999999999 736.556 105.0029999999999H601.813Q588.587 105.0029999999999 579.2 114.347Q569.8130000000001 123.733 569.8130000000001 137.0029999999999Q569.8130000000001 150.2289999999999 579.2 159.616Q588.587 169.0029999999999 601.8130000000001 169.0029999999999zM287.4460000000001 169.0029999999999H422.1880000000001Q435.4140000000001 169.0029999999999 444.8010000000001 159.616Q454.1880000000001 150.2290000000001 454.1880000000001 137.0029999999999Q454.1880000000001 123.733 444.8010000000001 114.347Q435.4140000000001 105.0029999999999 422.1880000000001 105.0029999999999H287.445Q274.175 105.0029999999999 264.789 114.347Q255.444 123.733 255.444 137.0029999999999Q255.444 150.2289999999999 264.788 159.616Q274.1740000000001 169.0029999999999 287.443 169.0029999999999z" />
    <glyph glyph-name="menu-calendar-2-1"
      unicode="&#x6D;&#x65;&#x6E;&#x75;&#x5F;&#x63;&#x61;&#x6C;&#x65;&#x6E;&#x64;&#x61;&#x72;&#x5F;&#x32;"
      horiz-adv-x="1024" d="M364.33 810.667V775.297H659.67V810.667Q659.627 823.937 669.0129999999999 833.28Q678.3999999999999 842.667 691.627 842.667Q704.8969999999999 842.667 714.2829999999999 833.28Q723.627 823.936 723.6689999999999 810.667V775.297H893.7389999999998Q925.6089999999998 775.297 948.1389999999998 752.767Q970.6659999999998 730.24 970.6659999999998 698.367V2.22Q970.6659999999998 -29.61 948.1379999999998 -52.14Q925.6079999999998 -74.667 893.7379999999998 -74.667H130.26Q98.39 -74.667 75.86 -52.139Q53.333 -29.609 53.333 2.221V698.367Q53.333 730.239 75.861 752.767Q98.391 775.295 130.261 775.295H300.331V810.665Q300.331 823.935 309.718 833.279Q319.105 842.6659999999999 332.332 842.6659999999999Q345.602 842.6659999999999 354.989 833.279Q364.333 823.935 364.333 810.6659999999999zM117.334 441.813V2.22Q117.334 -3.115 121.132 -6.9119999999999Q124.887 -10.6669999999999 130.262 -10.6669999999999H893.742Q899.117 -10.6669999999999 902.872 -6.9119999999999Q906.669 -3.1149999999999 906.669 2.2180000000001V441.814H117.333zM300.33 711.296H130.26Q124.885 711.296 121.13 707.499Q117.333 703.699 117.333 698.367V505.812H906.667V698.3679999999999Q906.667 703.701 902.869 707.498Q899.1139999999999 711.296 893.7389999999999 711.296H723.67V630.996Q723.627 617.771 714.2829999999999 608.384Q704.896 598.997 691.627 598.997Q678.4 598.997 669.0129999999999 608.384Q659.627 617.771 659.6689999999999 630.997V711.297H364.33V630.997Q364.33 617.771 354.987 608.384Q345.6 598.997 332.331 598.997Q319.105 598.997 309.718 608.384Q300.332 617.771 300.332 630.997V711.297zM287.4460000000001 348.63H422.188Q435.414 348.63 444.801 339.243Q454.188 329.8989999999999 454.188 316.6289999999999Q454.188 303.3589999999999 444.801 294.0149999999999Q435.414 284.628 422.188 284.628H287.445Q274.175 284.628 264.789 294.0139999999999Q255.444 303.358 255.444 316.627Q255.444 329.897 264.788 339.24Q274.1740000000001 348.626 287.443 348.626zM601.8140000000001 348.63H736.556Q749.826 348.63 759.1690000000001 339.243Q768.556 329.8989999999999 768.556 316.6289999999999Q768.556 303.3589999999999 759.1690000000001 294.0149999999999Q749.825 284.628 736.556 284.628H601.813Q588.587 284.628 579.2 294.0139999999999Q569.8130000000001 303.358 569.8130000000001 316.627Q569.8130000000001 329.897 579.2 339.24Q588.587 348.626 601.8130000000001 348.626zM601.8140000000001 169.0029999999999H736.556Q749.826 169.0029999999999 759.1690000000001 159.616Q768.556 150.2290000000001 768.556 137.0029999999999Q768.556 123.733 759.1690000000001 114.347Q749.825 105.0029999999999 736.556 105.0029999999999H601.813Q588.587 105.0029999999999 579.2 114.347Q569.8130000000001 123.733 569.8130000000001 137.0029999999999Q569.8130000000001 150.2289999999999 579.2 159.616Q588.587 169.0029999999999 601.8130000000001 169.0029999999999zM287.4460000000001 169.0029999999999H422.1880000000001Q435.4140000000001 169.0029999999999 444.8010000000001 159.616Q454.1880000000001 150.2290000000001 454.1880000000001 137.0029999999999Q454.1880000000001 123.733 444.8010000000001 114.347Q435.4140000000001 105.0029999999999 422.1880000000001 105.0029999999999H287.445Q274.175 105.0029999999999 264.789 114.347Q255.444 123.733 255.444 137.0029999999999Q255.444 150.2289999999999 264.788 159.616Q274.1740000000001 169.0029999999999 287.443 169.0029999999999z" />
  </font>
</defs>
</svg>
