<svg width="25" height="24" viewBox="0 0 25 24" fill="none" xmlns="http://www.w3.org/2000/svg">
<path d="M3.24414 8L10.2103 14.001C10.8691 14.5685 11.6875 14.8777 12.5312 14.8777C13.3748 14.8777 14.1933 14.5685 14.852 14.001L21.8182 8M3.24414 6C3.24414 5.46957 3.43983 4.96086 3.78816 4.58579C4.13649 4.21071 4.60893 4 5.10155 4H19.9608C20.4534 4 20.9258 4.21071 21.2742 4.58579C21.6225 4.96086 21.8182 5.46957 21.8182 6V18C21.8182 18.5304 21.6225 19.0391 21.2742 19.4142C20.9258 19.7893 20.4534 20 19.9608 20H5.10155C4.60893 20 4.13649 19.7893 3.78816 19.4142C3.43983 19.0391 3.24414 18.5304 3.24414 18V6Z" stroke="white" stroke-width="1.5" stroke-linejoin="round"/>
</svg>
