<svg width="23" height="23" viewBox="0 0 23 23" fill="none" xmlns="http://www.w3.org/2000/svg">
<rect width="23" height="23" rx="11.5" fill="#EF5DA8"/>
<path d="M10.3125 16.918C10.3125 17.2329 10.4376 17.535 10.6603 17.7577C10.883 17.9804 11.1851 18.1055 11.5 18.1055C11.8149 18.1055 12.117 17.9804 12.3397 17.7577C12.5624 17.535 12.6875 17.2329 12.6875 16.918C12.6875 16.603 12.5624 16.301 12.3397 16.0783C12.117 15.8556 11.8149 15.7305 11.5 15.7305C11.1851 15.7305 10.883 15.8556 10.6603 16.0783C10.4376 16.301 10.3125 16.603 10.3125 16.918ZM10.9062 13.8008H12.0938C12.1754 13.8008 12.2422 13.734 12.2422 13.6523V5.04297C12.2422 4.96133 12.1754 4.89453 12.0938 4.89453H10.9062C10.8246 4.89453 10.7578 4.96133 10.7578 5.04297V13.6523C10.7578 13.734 10.8246 13.8008 10.9062 13.8008Z" fill="white"/>
</svg>
