<svg width="23" height="23" viewBox="0 0 23 23" fill="none" xmlns="http://www.w3.org/2000/svg">
<rect width="23" height="23" rx="11.5" fill="#E3D6FF"/>
<path d="M11.0001 5.66675C9.16208 5.66675 7.66675 7.16208 7.66675 9.00008H9.00008C9.00008 7.89741 9.89741 7.00008 11.0001 7.00008C12.1027 7.00008 13.0001 7.89741 13.0001 9.00008C13.0001 9.71275 12.6974 9.97675 12.0127 10.5034C11.7581 10.6994 11.4707 10.9207 11.1954 11.1954C10.3207 12.0694 10.3301 12.9314 10.3334 13.0001V14.3334H11.6667V12.9941C11.6667 12.9781 11.6821 12.5934 12.1381 12.1381C12.3514 11.9247 12.5927 11.7394 12.8254 11.5601C13.5321 11.0161 14.3334 10.4001 14.3334 9.00008C14.3334 7.16208 12.8381 5.66675 11.0001 5.66675ZM10.3334 15.0001H11.6667V16.3334H10.3334V15.0001Z" fill="white"/>
</svg>
