<svg width="25" height="24" viewBox="0 0 25 24" fill="none" xmlns="http://www.w3.org/2000/svg">
<path d="M17.7773 10H19.7773C21.7773 10 22.7773 9 22.7773 7V5C22.7773 3 21.7773 2 19.7773 2H17.7773C15.7773 2 14.7773 3 14.7773 5V7C14.7773 9 15.7773 10 17.7773 10Z" stroke="white" stroke-width="1.5" stroke-miterlimit="10" stroke-linecap="round" stroke-linejoin="round"/>
<path d="M5.77734 22H7.77734C9.77734 22 10.7773 21 10.7773 19V17C10.7773 15 9.77734 14 7.77734 14H5.77734C3.77734 14 2.77734 15 2.77734 17V19C2.77734 21 3.77734 22 5.77734 22Z" stroke="white" stroke-width="1.5" stroke-miterlimit="10" stroke-linecap="round" stroke-linejoin="round"/>
<path d="M6.77734 10C8.98648 10 10.7773 8.20914 10.7773 6C10.7773 3.79086 8.98648 2 6.77734 2C4.5682 2 2.77734 3.79086 2.77734 6C2.77734 8.20914 4.5682 10 6.77734 10Z" stroke="white" stroke-width="1.5" stroke-miterlimit="10" stroke-linecap="round" stroke-linejoin="round"/>
<path d="M18.7773 22C20.9864 22 22.7773 20.2091 22.7773 18C22.7773 15.7909 20.9864 14 18.7773 14C16.5682 14 14.7773 15.7909 14.7773 18C14.7773 20.2091 16.5682 22 18.7773 22Z" stroke="white" stroke-width="1.5" stroke-miterlimit="10" stroke-linecap="round" stroke-linejoin="round"/>
</svg>
