<svg width="49" height="49" viewBox="0 0 49 49" fill="none" xmlns="http://www.w3.org/2000/svg">
<path d="M0.355225 7C0.355225 3.13401 3.48923 0 7.35522 0H41.6448C45.5108 0 48.6448 3.13401 48.6448 7V41.2896C48.6448 45.1555 45.5108 48.2896 41.6448 48.2896H7.35523C3.48923 48.2896 0.355225 45.1555 0.355225 41.2896V7Z" fill="white"/>
<g clip-path="url(#clip0_1742_2896)">
<path d="M34.6078 34.6082C40.466 28.75 40.466 19.252 34.6078 13.3938C28.7496 7.53555 19.2516 7.53555 13.3934 13.3938C7.53515 19.252 7.53515 28.75 13.3934 34.6082C19.2516 40.4664 28.7496 40.4664 34.6078 34.6082Z" fill="#FFD05D"/>
<path d="M31.8482 11.198C33.3423 13.5298 34.2081 16.3033 34.2081 19.2775C34.2081 27.561 27.4926 34.2784 19.2072 34.2784C16.3299 34.2784 13.6426 33.4671 11.3601 32.0627C14.0263 36.2247 18.6916 38.9824 24.001 38.9824C32.2846 38.9824 39.0019 32.2669 39.0019 23.9815C39.0019 18.5735 36.1404 13.836 31.8499 11.1963L31.8482 11.198Z" fill="#FDC453"/>
<path d="M11.038 25.583C11.038 17.8907 17.2749 11.6556 24.9654 11.6556C29.4618 11.6556 33.4584 13.7868 36.0049 17.0935C33.6009 12.9174 29.0922 10.1069 23.9288 10.1069C16.2383 10.1069 10.0015 16.342 10.0015 24.0343C10.0015 27.2302 11.0785 30.1744 12.8894 32.5238C11.712 30.4806 11.038 28.1101 11.038 25.583Z" fill="#FFD77F"/>
<path d="M20.6594 21.8136C20.9637 19.939 19.6907 18.1726 17.8161 17.8683C15.9415 17.564 14.1751 18.837 13.8708 20.7117C13.5665 22.5863 14.8395 24.3526 16.7141 24.6569C18.5887 24.9612 20.3551 23.6882 20.6594 21.8136Z" fill="white"/>
<path d="M19.6772 18.8128C19.056 18.2021 18.206 17.8237 17.2663 17.8237C16.631 17.8237 16.0397 17.998 15.5293 18.2989C15.4255 18.4326 15.3586 18.5822 15.3428 18.7441C15.2759 19.4621 16.2016 20.1344 17.4106 20.2488C18.6196 20.3614 19.6544 19.8722 19.7212 19.1542C19.7318 19.038 19.7142 18.9254 19.6772 18.8128Z" fill="#303030"/>
<path d="M33.1687 23.6938C34.5116 22.3508 34.5116 20.1736 33.1687 18.8307C31.8258 17.4878 29.6485 17.4878 28.3056 18.8307C26.9627 20.1736 26.9627 22.3508 28.3056 23.6938C29.6485 25.0367 31.8258 25.0367 33.1687 23.6938Z" fill="white"/>
<path d="M33.147 18.8128C32.5258 18.2021 31.6757 17.8237 30.736 17.8237C30.1007 17.8237 29.5094 17.998 28.999 18.2989C28.8952 18.4326 28.8283 18.5822 28.8125 18.7441C28.7456 19.4621 29.6713 20.1344 30.8803 20.2488C32.0893 20.3614 33.1241 19.8722 33.191 19.1542C33.2015 19.038 33.1839 18.9254 33.147 18.8128Z" fill="#303030"/>
<path d="M29.5832 27.4377C28.867 26.7285 27.8867 26.2076 26.7481 25.9295C25.7081 25.6796 24.5906 25.6603 23.5135 25.8697C22.4612 26.0738 21.4352 26.4997 20.5429 27.1016C19.5961 27.7474 18.8623 28.52 18.3607 29.3964C18.2833 29.5302 18.3044 29.6991 18.41 29.8117C18.4786 29.8839 18.5719 29.9226 18.6669 29.9226C18.7197 29.9226 18.7725 29.9103 18.8218 29.8856L19.1509 29.7237C19.9235 29.3418 20.652 28.9811 21.3929 28.6907C22.2394 28.3528 23.0877 28.1012 23.9148 27.9428C24.7753 27.7773 25.65 27.7017 26.5123 27.7193C27.313 27.7316 28.1648 27.8284 29.2735 28.0325C29.4248 28.0607 29.578 27.9868 29.6501 27.8495C29.7223 27.7122 29.6959 27.5451 29.585 27.4359L29.5832 27.4377Z" fill="#5E4939"/>
</g>
<defs>
<clipPath id="clip0_1742_2896">
<rect width="30" height="30" fill="white" transform="translate(9.00024 9)"/>
</clipPath>
</defs>
</svg>
