<svg width="20" height="20" viewBox="0 0 20 20" fill="none" xmlns="http://www.w3.org/2000/svg">
<path d="M15.9425 20H14.0093C13.6871 20 13.3781 19.8705 13.1511 19.6402C12.924 19.4099 12.7976 19.0978 12.8 18.7733V15.7156C12.8 15.3408 12.6521 14.9813 12.3889 14.7163C12.1257 14.4512 11.7687 14.3023 11.3965 14.3023H8.56296C7.78781 14.3023 7.15943 14.9351 7.15943 15.7156L15.9425 20ZM15.9425 20C16.8453 20.0023 17.712 19.6428 18.3513 19.0008C18.9905 18.3588 19.3498 17.487 19.3498 16.5778V7.86686C19.3498 7.13246 19.0265 6.43584 18.467 5.96467L15.9425 20ZM6.40943 15.7156V18.234L6.38683 18.2415L6.38297 18.7768C6.38105 19.0436 6.16719 19.25 5.9148 19.25H4.02579C2.56312 19.25 1.3685 18.0546 1.3685 16.5689V7.87633C1.3829 7.3568 1.62767 6.8725 2.0333 6.55589L2.03899 6.55146L2.04458 6.54691L8.47077 1.32922L8.48111 1.32083L8.49115 1.31207C9.3263 0.583263 10.5579 0.560898 11.4185 1.2585L11.4208 1.26031L17.9898 6.5433C18.3756 6.87125 18.5998 7.35525 18.5998 7.86686V16.5778C18.5998 17.2894 18.3185 17.9707 17.8198 18.4716C17.3212 18.9724 16.6463 19.2518 15.9444 19.25H15.9425H14.0093C13.8886 19.25 13.7718 19.2015 13.6852 19.1136C13.5983 19.0256 13.5491 18.9051 13.55 18.7788H13.55V18.7733V15.7156C13.55 15.1435 13.3244 14.5939 12.9211 14.1878C12.5176 13.7815 11.9693 13.5523 11.3965 13.5523H8.56296C7.36869 13.5523 6.40943 14.5258 6.40943 15.7156Z" stroke="white" stroke-width="1.5"/>
</svg>
