<svg width="20" height="20" viewBox="0 0 20 20" fill="none" xmlns="http://www.w3.org/2000/svg">
<path d="M15.9424 20H14.0092C13.687 20 13.378 19.8705 13.151 19.6402C12.9239 19.4099 12.7976 19.0978 12.7999 18.7733V15.7156C12.7999 15.3408 12.652 14.9813 12.3888 14.7163C12.1256 14.4512 11.7686 14.3023 11.3964 14.3023H8.56286C7.78772 14.3023 7.15934 14.9351 7.15934 15.7156L15.9424 20ZM15.9424 20C16.8452 20.0023 17.7119 19.6428 18.3512 19.0008C18.9904 18.3588 19.3497 17.487 19.3497 16.5778V7.86686C19.3497 7.13246 19.0264 6.43584 18.467 5.96467L15.9424 20ZM6.40934 15.7156V18.234L6.38673 18.2415L6.38288 18.7768C6.38096 19.0436 6.1671 19.25 5.91471 19.25H4.0257C2.56303 19.25 1.36841 18.0546 1.36841 16.5689V7.87633C1.38281 7.3568 1.62758 6.8725 2.03321 6.55589L2.03889 6.55146L2.04449 6.54691L8.47067 1.32922L8.48102 1.32083L8.49105 1.31207C9.32621 0.583263 10.5579 0.560897 11.4184 1.2585L11.4207 1.26031L17.9897 6.5433C18.3755 6.87125 18.5997 7.35525 18.5997 7.86686V16.5778C18.5997 17.2894 18.3184 17.9707 17.8197 18.4716C17.3211 18.9724 16.6463 19.2518 15.9443 19.25H15.9424H14.0092C13.8885 19.25 13.7717 19.2015 13.6851 19.1136C13.5982 19.0256 13.549 18.9051 13.5499 18.7788H13.5499V18.7733V15.7156C13.5499 15.1435 13.3243 14.5939 12.921 14.1878C12.5175 13.7815 11.9692 13.5523 11.3964 13.5523H8.56286C7.3686 13.5523 6.40934 14.5258 6.40934 15.7156Z" stroke="white" stroke-width="1.5"/>
</svg>
