<svg width="18" height="18" viewBox="0 0 24 23" fill="none" xmlns="http://www.w3.org/2000/svg">
<path d="M10.7699 1.46177C11.104 0.624596 12.2882 0.622087 12.6259 1.45784L14.9866 7.30081C15.1304 7.6567 15.4652 7.89888 15.8483 7.92404L22.1366 8.33703C23.036 8.39611 23.4043 9.52151 22.7138 10.1009L17.8864 14.1517C17.5923 14.3985 17.4655 14.7917 17.5599 15.1638L19.1103 21.2719C19.3321 22.1456 18.3756 22.8437 17.6111 22.366L12.2668 19.0266C11.9413 18.8232 11.5281 18.8241 11.2034 19.0288L5.87332 22.3909C5.11092 22.8718 4.15146 22.1778 4.36952 21.3032L5.89403 15.1885C5.98688 14.8161 5.85836 14.4233 5.56327 14.1778L0.718669 10.1475C0.0257151 9.57106 0.389247 8.44411 1.28844 8.38122L7.57495 7.94158C7.95787 7.9148 8.29166 7.6712 8.43394 7.31469L10.7699 1.46177Z" fill="#FCC73F"/>
</svg>
