<svg width="32" height="32" viewBox="0 0 32 32" fill="none" xmlns="http://www.w3.org/2000/svg">
<g clip-path="url(#clip0_1742_2940)">
<path d="M21.3334 25.7776L25.7778 21.3331L5.33336 0.888672H0.888916V5.33312L21.3334 25.7776Z" fill="#CCD6DD"/>
<path d="M0.888916 0.888672V5.33312L21.3334 25.7776L23.5556 23.5553L0.888916 0.888672Z" fill="#9AAAB4"/>
<path d="M29.7102 29.1626C29.9626 28.9102 30.1173 28.6062 30.1822 28.3022L25.5226 22.7955L24.8995 22.1715C24.3982 21.6702 23.5039 21.7511 22.9013 22.3538L22.3555 22.8978C21.7537 23.4995 21.6728 24.3938 22.1742 24.8951L22.8328 25.5537L28.2995 30.1804C28.6062 30.1164 28.9111 29.9609 29.1653 29.7075L29.7102 29.1626Z" fill="#D99E82"/>
<path d="M29.7103 29.1629C29.9627 28.9104 30.1174 28.6064 30.1823 28.3024L28.9894 26.8927L28.3343 30.1673C28.6285 30.0989 28.9218 29.9513 29.1654 29.7069L29.7103 29.1629ZM26.768 24.2687L25.9787 28.2162L27.0987 29.1638L27.8276 25.5193L26.768 24.2687ZM25.5227 22.7958L24.8996 22.1718C24.8147 22.0898 24.7168 22.0225 24.6098 21.9727L23.7405 26.3211L24.8605 27.2687L25.7112 23.0171L25.5227 22.7958ZM23.3885 22.0064C23.2078 22.0945 23.0431 22.2123 22.9014 22.3549L22.3556 22.898C22.1413 23.1098 21.9849 23.373 21.9014 23.6624C21.7752 24.1158 21.8605 24.5824 22.1743 24.8953L22.704 25.4251L23.3885 22.0064C23.3885 22.0055 23.3885 22.0055 23.3885 22.0064Z" fill="#BF6952"/>
<path d="M29.5555 32.0002C30.9056 32.0002 32 30.9058 32 29.5558C32 28.2057 30.9056 27.1113 29.5555 27.1113C28.2055 27.1113 27.1111 28.2057 27.1111 29.5558C27.1111 30.9058 28.2055 32.0002 29.5555 32.0002Z" fill="#8A4633"/>
<path d="M26.3343 19.8437C26.4197 19.9289 26.4875 20.0302 26.5337 20.1417C26.5799 20.2532 26.6037 20.3727 26.6037 20.4934C26.6037 20.6141 26.5799 20.7337 26.5337 20.8451C26.4875 20.9566 26.4197 21.0579 26.3343 21.1432L20.9192 26.5583C20.8338 26.6437 20.7325 26.7113 20.621 26.7575C20.5096 26.8037 20.3901 26.8275 20.2694 26.8275C20.1487 26.8275 20.0292 26.8037 19.9177 26.7575C19.8062 26.7113 19.7049 26.6437 19.6196 26.5583C19.5343 26.473 19.4666 26.3717 19.4204 26.2602C19.3742 26.1487 19.3505 26.0292 19.3505 25.9085C19.3505 25.7879 19.3742 25.6684 19.4204 25.5569C19.4666 25.4454 19.5343 25.3441 19.6196 25.2588L25.0347 19.8437C25.12 19.7582 25.2213 19.6905 25.3328 19.6442C25.4443 19.598 25.5638 19.5742 25.6845 19.5742C25.8052 19.5742 25.9247 19.598 26.0362 19.6442C26.1477 19.6905 26.249 19.7582 26.3343 19.8437Z" fill="#FFAC33"/>
<path d="M19.6195 28.1131C20.4786 28.1131 21.1751 27.4166 21.1751 26.5575C21.1751 25.6984 20.4786 25.002 19.6195 25.002C18.7604 25.002 18.064 25.6984 18.064 26.5575C18.064 27.4166 18.7604 28.1131 19.6195 28.1131Z" fill="#FFAC33"/>
<path d="M26.3342 21.3982C27.1934 21.3982 27.8898 20.7018 27.8898 19.8427C27.8898 18.9836 27.1934 18.2871 26.3342 18.2871C25.4751 18.2871 24.7787 18.9836 24.7787 19.8427C24.7787 20.7018 25.4751 21.3982 26.3342 21.3982Z" fill="#FFAC33"/>
<path d="M19.6196 27.4462C20.1105 27.4462 20.5085 27.0483 20.5085 26.5573C20.5085 26.0664 20.1105 25.6685 19.6196 25.6685C19.1287 25.6685 18.7307 26.0664 18.7307 26.5573C18.7307 27.0483 19.1287 27.4462 19.6196 27.4462Z" fill="#FFCC4D"/>
<path d="M26.3342 20.7314C26.8251 20.7314 27.2231 20.3334 27.2231 19.8425C27.2231 19.3516 26.8251 18.9536 26.3342 18.9536C25.8433 18.9536 25.4453 19.3516 25.4453 19.8425C25.4453 20.3334 25.8433 20.7314 26.3342 20.7314Z" fill="#FFCC4D"/>
<path d="M30.136 26.0818C30.1989 26.1448 30.2489 26.2194 30.2829 26.3017C30.317 26.3839 30.3345 26.472 30.3345 26.561C30.3345 26.6499 30.317 26.7381 30.2829 26.8203C30.2489 26.9025 30.1989 26.9772 30.136 27.0401L27.0462 30.129C26.9833 30.1919 26.9086 30.2418 26.8264 30.2758C26.7442 30.3099 26.6561 30.3274 26.5671 30.3274C26.4781 30.3274 26.39 30.3099 26.3078 30.2758C26.2256 30.2418 26.1509 30.1919 26.088 30.129C26.0251 30.066 25.9752 29.9913 25.9411 29.9091C25.9071 29.8269 25.8895 29.7388 25.8895 29.6498C25.8895 29.5609 25.9071 29.4728 25.9411 29.3906C25.9752 29.3084 26.0251 29.2337 26.088 29.1707L29.1778 26.0818C29.2407 26.0189 29.3153 25.969 29.3976 25.9349C29.4798 25.9008 29.5679 25.8833 29.6569 25.8833C29.7459 25.8833 29.834 25.9008 29.9162 25.9349C29.9984 25.969 30.0731 26.0189 30.136 26.0818Z" fill="#FFAC33"/>
<path d="M10.6666 25.7776L6.22217 21.3331L26.6666 0.888672H31.1111V5.33312L10.6666 25.7776Z" fill="#CCD6DD"/>
<path d="M31.1111 0.888672V5.33312L10.6667 25.7776L8.44446 23.5553L31.1111 0.888672Z" fill="#9AAAB4"/>
<path d="M2.28975 29.1626C2.05265 28.9274 1.88871 28.6286 1.81775 28.3022L6.4773 22.7955L7.10041 22.1715C7.60175 21.6702 8.49597 21.7511 9.09864 22.3538L9.64352 22.8978C10.2453 23.4995 10.3262 24.3938 9.82486 24.8951L9.16619 25.5537L3.69953 30.1804C3.37115 30.1102 3.07032 29.9459 2.83375 29.7075L2.28975 29.1626Z" fill="#D99E82"/>
<path d="M2.28975 29.1629C2.05265 28.9276 1.88871 28.6288 1.81775 28.3024L3.01064 26.8927L3.66575 30.1673C3.35092 30.0951 3.06286 29.9355 2.83464 29.7069L2.28975 29.1629ZM5.23197 24.2687L6.02131 28.2162L4.90131 29.1638L4.17242 25.5193L5.23197 24.2687ZM6.47731 22.7958L7.10042 22.1718C7.18533 22.0898 7.28325 22.0225 7.39019 21.9727L8.25953 26.3211L7.13953 27.2687L6.28886 23.0171L6.47731 22.7958ZM8.61153 22.0064C8.78486 22.0909 8.95108 22.2064 9.09864 22.3549L9.64353 22.8989C9.86931 23.1247 10.0213 23.3913 10.0978 23.6633C10.224 24.1167 10.1386 24.5833 9.82486 24.8962L9.29508 25.426L8.61153 22.0064C8.61153 22.0055 8.61153 22.0055 8.61153 22.0064Z" fill="#BF6952"/>
<path d="M2.44444 32.0002C3.79447 32.0002 4.88889 30.9058 4.88889 29.5558C4.88889 28.2057 3.79447 27.1113 2.44444 27.1113C1.09441 27.1113 0 28.2057 0 29.5558C0 30.9058 1.09441 32.0002 2.44444 32.0002Z" fill="#8A4633"/>
<path d="M5.6658 19.8437C5.58039 19.9289 5.51262 20.0302 5.46639 20.1417C5.42016 20.2532 5.39636 20.3727 5.39636 20.4934C5.39636 20.6141 5.42016 20.7337 5.46639 20.8451C5.51262 20.9566 5.58039 21.0579 5.6658 21.1432L11.0809 26.5583C11.1662 26.6437 11.2675 26.7113 11.379 26.7575C11.4905 26.8037 11.61 26.8275 11.7307 26.8275C11.8514 26.8275 11.9709 26.8037 12.0823 26.7575C12.1938 26.7113 12.2951 26.6437 12.3805 26.5583C12.4658 26.473 12.5335 26.3717 12.5797 26.2602C12.6258 26.1487 12.6496 26.0292 12.6496 25.9085C12.6496 25.7879 12.6258 25.6684 12.5797 25.5569C12.5335 25.4454 12.4658 25.3441 12.3805 25.2588L6.96536 19.8437C6.88007 19.7582 6.77879 19.6905 6.66729 19.6442C6.5558 19.598 6.43628 19.5742 6.31558 19.5742C6.19488 19.5742 6.07536 19.598 5.96386 19.6442C5.85237 19.6905 5.75108 19.7582 5.6658 19.8437Z" fill="#FFAC33"/>
<path d="M12.3805 28.1131C13.2396 28.1131 13.9361 27.4166 13.9361 26.5575C13.9361 25.6984 13.2396 25.002 12.3805 25.002C11.5214 25.002 10.825 25.6984 10.825 26.5575C10.825 27.4166 11.5214 28.1131 12.3805 28.1131Z" fill="#FFAC33"/>
<path d="M5.66579 21.3982C6.5249 21.3982 7.22134 20.7018 7.22134 19.8427C7.22134 18.9836 6.5249 18.2871 5.66579 18.2871C4.80668 18.2871 4.11023 18.9836 4.11023 19.8427C4.11023 20.7018 4.80668 21.3982 5.66579 21.3982Z" fill="#FFAC33"/>
<path d="M12.3805 27.4462C12.8714 27.4462 13.2694 27.0483 13.2694 26.5573C13.2694 26.0664 12.8714 25.6685 12.3805 25.6685C11.8895 25.6685 11.4916 26.0664 11.4916 26.5573C11.4916 27.0483 11.8895 27.4462 12.3805 27.4462Z" fill="#FFCC4D"/>
<path d="M5.66574 20.7314C6.15666 20.7314 6.55463 20.3334 6.55463 19.8425C6.55463 19.3516 6.15666 18.9536 5.66574 18.9536C5.17482 18.9536 4.77686 19.3516 4.77686 19.8425C4.77686 20.3334 5.17482 20.7314 5.66574 20.7314Z" fill="#FFCC4D"/>
<path d="M1.86396 26.0818C1.80101 26.1448 1.75108 26.2194 1.71701 26.3017C1.68294 26.3839 1.66541 26.472 1.66541 26.561C1.66541 26.6499 1.68294 26.7381 1.71701 26.8203C1.75108 26.9025 1.80101 26.9772 1.86396 27.0401L4.95373 30.129C5.01665 30.1919 5.09135 30.2418 5.17355 30.2758C5.25576 30.3099 5.34387 30.3274 5.43284 30.3274C5.52182 30.3274 5.60993 30.3099 5.69214 30.2758C5.77434 30.2418 5.84904 30.1919 5.91196 30.129C5.97487 30.066 6.02478 29.9913 6.05883 29.9091C6.09288 29.8269 6.11041 29.7388 6.11041 29.6498C6.11041 29.5609 6.09288 29.4728 6.05883 29.3906C6.02478 29.3084 5.97487 29.2337 5.91196 29.1707L2.82218 26.0818C2.75928 26.0189 2.68459 25.969 2.60238 25.9349C2.52017 25.9008 2.43205 25.8833 2.34307 25.8833C2.25408 25.8833 2.16596 25.9008 2.08376 25.9349C2.00155 25.969 1.92686 26.0189 1.86396 26.0818Z" fill="#FFAC33"/>
</g>
<defs>
<clipPath id="clip0_1742_2940">
<rect width="32" height="32" fill="white"/>
</clipPath>
</defs>
</svg>
