<svg width="30" height="30" viewBox="0 0 30 30" fill="none" xmlns="http://www.w3.org/2000/svg">
<g clip-path="url(#clip0_1755_8116)">
<path d="M25.6077 25.6081C31.4659 19.7499 31.4659 10.2518 25.6077 4.39363C19.7495 -1.46458 10.2514 -1.46458 4.39323 4.39363C-1.46497 10.2518 -1.46497 19.7499 4.39323 25.6081C10.2514 31.4663 19.7495 31.4663 25.6077 25.6081Z" fill="#FFD05D"/>
<path d="M22.848 2.19793C24.3421 4.52972 25.208 7.30322 25.208 10.2774C25.208 18.5609 18.4924 25.2782 10.2071 25.2782C7.32974 25.2782 4.64247 24.4669 2.35995 23.0626C5.02611 27.2246 9.69145 29.9823 15.0009 29.9823C23.2845 29.9823 30.0018 23.2667 30.0018 14.9814C30.0018 9.57342 27.1403 4.83593 22.8498 2.19617L22.848 2.19793Z" fill="#FDC453"/>
<path d="M2.03789 16.583C2.03789 8.89071 8.27476 2.65559 15.9653 2.65559C20.4617 2.65559 24.4583 4.78676 27.0047 8.0935C24.6008 3.9174 20.0921 1.10693 14.9287 1.10693C7.23646 1.10693 1.00134 7.34205 1.00134 15.0343C1.00134 18.2302 2.07837 21.1744 3.88924 23.5238C2.71191 21.4806 2.03789 19.1101 2.03789 16.583Z" fill="#FFD77F"/>
<path d="M8.85199 17.2692C8.46483 16.8944 7.84712 17.3097 8.04598 17.8095C9.15468 20.5795 11.8613 22.5347 15.0273 22.5347C18.1932 22.5347 20.8101 20.6428 21.9505 17.9468C22.1581 17.4558 21.5352 17.0299 21.1515 17.4012C18.957 19.5289 14.2952 22.5575 8.85199 17.2692Z" fill="#5E4939"/>
<path d="M10.5784 12.3153C10.5784 13.3448 10.0839 14.179 9.47322 14.179C8.86256 14.179 8.36804 13.3448 8.36804 12.3153C8.36804 11.2858 8.86256 10.4517 9.47322 10.4517C10.0839 10.4517 10.5784 11.2858 10.5784 12.3153Z" fill="#303030"/>
<path d="M21.6319 12.3153C21.6319 13.3448 21.1374 14.179 20.5267 14.179C19.9161 14.179 19.4216 13.3448 19.4216 12.3153C19.4216 11.2858 19.9161 10.4517 20.5267 10.4517C21.1374 10.4517 21.6319 11.2858 21.6319 12.3153Z" fill="#303030"/>
</g>
<defs>
<clipPath id="clip0_1755_8116">
<rect width="30" height="30" fill="white"/>
</clipPath>
</defs>
</svg>
