<svg width="30" height="30" viewBox="0 0 30 30" fill="none" xmlns="http://www.w3.org/2000/svg">
<g clip-path="url(#clip0_1755_8117)">
<path d="M25.6077 25.6081C31.4659 19.7499 31.4659 10.2518 25.6077 4.39363C19.7495 -1.46458 10.2514 -1.46458 4.39323 4.39363C-1.46497 10.2518 -1.46497 19.7499 4.39323 25.6081C10.2514 31.4663 19.7495 31.4663 25.6077 25.6081Z" fill="#FFD05D"/>
<path d="M22.848 2.19793C24.3421 4.52972 25.208 7.30322 25.208 10.2774C25.208 18.5609 18.4924 25.2782 10.2071 25.2782C7.32974 25.2782 4.64247 24.4669 2.35995 23.0626C5.02611 27.2246 9.69145 29.9823 15.0009 29.9823C23.2845 29.9823 30.0018 23.2667 30.0018 14.9814C30.0018 9.57342 27.1403 4.83593 22.8498 2.19617L22.848 2.19793Z" fill="#FDC453"/>
<path d="M2.03789 16.583C2.03789 8.89071 8.27476 2.65559 15.9653 2.65559C20.4617 2.65559 24.4583 4.78676 27.0047 8.0935C24.6008 3.9174 20.0921 1.10693 14.9287 1.10693C7.23646 1.10693 1.00134 7.34205 1.00134 15.0343C1.00134 18.2302 2.07837 21.1744 3.88924 23.5238C2.71191 21.4806 2.03789 19.1101 2.03789 16.583Z" fill="#FFD77F"/>
<path d="M10.5784 11.3615C10.5784 12.391 10.0839 13.2251 9.47322 13.2251C8.86256 13.2251 8.36804 12.391 8.36804 11.3615C8.36804 10.332 8.86256 9.4978 9.47322 9.4978C10.0839 9.4978 10.5784 10.332 10.5784 11.3615Z" fill="#303030"/>
<path d="M21.632 11.3615C21.632 12.391 21.1374 13.2251 20.5268 13.2251C19.9161 13.2251 19.4216 12.391 19.4216 11.3615C19.4216 10.332 19.9161 9.4978 20.5268 9.4978C21.1374 9.4978 21.632 10.332 21.632 11.3615Z" fill="#303030"/>
<path d="M4.9205 16.4193C5.49245 21.4806 9.7847 25.4156 15.0009 25.4156C20.217 25.4156 24.5093 21.4806 25.0795 16.4193H4.9205Z" fill="#695342"/>
<path d="M8.0372 22.6439C9.85336 24.3598 12.3031 25.4139 14.9991 25.4139C17.6952 25.4139 19.9337 24.4495 21.7235 22.8621L21.6302 22.6439C14.8619 19.3425 8.12871 22.5982 8.0372 22.6439Z" fill="#F06669"/>
</g>
<defs>
<clipPath id="clip0_1755_8117">
<rect width="30" height="30" fill="white"/>
</clipPath>
</defs>
</svg>
