<svg width="20" height="20" viewBox="0 0 20 20" fill="none" xmlns="http://www.w3.org/2000/svg">
<rect width="20" height="20" rx="10" fill="#EF5DA8"/>
<path d="M8.96741 14.7113C8.96741 14.9851 9.0762 15.2478 9.26985 15.4414C9.4635 15.6351 9.72615 15.7439 10 15.7439C10.2739 15.7439 10.5365 15.6351 10.7302 15.4414C10.9238 15.2478 11.0326 14.9851 11.0326 14.7113C11.0326 14.4374 10.9238 14.1748 10.7302 13.9811C10.5365 13.7874 10.2739 13.6787 10 13.6787C9.72615 13.6787 9.4635 13.7874 9.26985 13.9811C9.0762 14.1748 8.96741 14.4374 8.96741 14.7113ZM9.48371 12.0007H10.5163C10.5873 12.0007 10.6454 11.9426 10.6454 11.8716V4.38518C10.6454 4.31419 10.5873 4.2561 10.5163 4.2561H9.48371C9.41272 4.2561 9.35464 4.31419 9.35464 4.38518V11.8716C9.35464 11.9426 9.41272 12.0007 9.48371 12.0007Z" fill="white"/>
</svg>
