<svg width="30" height="30" viewBox="0 0 30 30" fill="none" xmlns="http://www.w3.org/2000/svg">
<g clip-path="url(#clip0_2101_2948)">
<path d="M22.1808 20.8388L2.64357 29.3398C1.37004 29.8467 0.104415 28.5919 0.600176 27.3141L9.13781 7.46936" fill="#FFB636"/>
<path d="M0.600176 27.3141L1.27869 25.737C1.33687 25.6483 1.39488 25.5594 1.45312 25.4708C4.82795 20.3295 8.25223 15.2197 11.7935 10.1914L15.7641 14.2613C12.7682 16.3181 3.04043 26.3708 1.00283 29.0373C0.559277 28.6293 0.343711 27.9751 0.600176 27.3141Z" fill="#FFD469"/>
<path d="M17.8349 11.9785C21.4591 15.6028 23.4414 19.4966 22.2625 20.6756C21.0835 21.8546 17.1897 19.8723 13.5654 16.248C9.94108 12.6238 7.95885 8.72997 9.13782 7.55094C10.3168 6.37192 14.2106 8.35421 17.8349 11.9785Z" fill="#A06C33"/>
<path d="M9.11725 19.1937C9.11725 19.546 8.83166 19.8315 8.47945 19.8315C8.12725 19.8315 7.84166 19.546 7.84166 19.1937C7.84166 18.8414 8.12719 18.5559 8.47945 18.5559C8.83172 18.5559 9.11725 18.8414 9.11725 19.1937Z" fill="#F7F9AA"/>
<path d="M29.4132 12.4898C29.4132 12.9954 29.0034 13.4052 28.4979 13.4052C27.9923 13.4052 27.5825 12.9954 27.5825 12.4898C27.5825 11.9843 27.9923 11.5745 28.4979 11.5745C29.0034 11.5745 29.4132 11.9843 29.4132 12.4898ZM23.3006 24.6786C22.795 24.6786 22.3852 25.0884 22.3852 25.594C22.3852 26.0995 22.795 26.5093 23.3006 26.5093C23.8061 26.5093 24.2159 26.0995 24.2159 25.594C24.2159 25.0884 23.806 24.6786 23.3006 24.6786Z" fill="#FFB636"/>
<path d="M20.8564 4.6595C20.7779 5.19065 20.4347 5.65981 19.9148 5.94669C19.5558 6.14473 19.1337 6.24768 18.6956 6.24768C18.5561 6.24762 18.4167 6.23731 18.2786 6.21686C17.9688 6.17104 17.6586 6.2178 17.4278 6.34512C17.3244 6.40219 17.1466 6.52706 17.1177 6.72235C17.0889 6.91764 17.2229 7.08862 17.3054 7.17317C17.4845 7.35686 17.758 7.48846 18.0582 7.53762C18.0665 7.5385 18.0747 7.5388 18.083 7.54003C19.3497 7.72729 20.2545 8.73065 20.0998 9.77672C20.0213 10.3079 19.6781 10.7771 19.1582 11.064C18.7992 11.262 18.3772 11.365 17.9391 11.365C17.7995 11.3649 17.6601 11.3546 17.522 11.3341C17.2123 11.2883 16.902 11.335 16.6712 11.4624C16.5677 11.5195 16.39 11.6443 16.3611 11.8396C16.3148 12.1531 16.6996 12.5668 17.3261 12.6594C17.667 12.7098 17.9024 13.027 17.852 13.3679C17.8062 13.6778 17.5399 13.9006 17.2356 13.9006C17.2052 13.9006 17.1745 13.8984 17.1436 13.8938C15.8769 13.7065 14.9721 12.7031 15.1267 11.6571C15.2053 11.1259 15.5484 10.6567 16.0684 10.3699C16.5404 10.1095 17.1214 10.0135 17.7046 10.0997C18.0144 10.1455 18.3245 10.0988 18.5554 9.97143C18.6588 9.91436 18.8366 9.7895 18.8655 9.59421C18.911 9.28588 18.5387 8.88106 17.9302 8.77987C17.9202 8.77887 17.9102 8.77805 17.9002 8.77659C17.3171 8.69034 16.7886 8.43042 16.4122 8.04458C15.9975 7.61954 15.8047 7.0711 15.8833 6.53983C15.9618 6.00868 16.305 5.53952 16.8249 5.25264C17.2969 4.99225 17.8779 4.89628 18.4611 4.98247C18.7708 5.02817 19.0811 4.98153 19.3119 4.85421C19.4153 4.79713 19.5931 4.67227 19.622 4.47698C19.6508 4.28169 19.5168 4.11071 19.4343 4.02616C19.2502 3.83749 18.9669 3.70296 18.657 3.65719C18.3161 3.6068 18.0806 3.28963 18.131 2.94874C18.1813 2.60784 18.4986 2.37264 18.8395 2.42274C19.4225 2.50899 19.9511 2.76891 20.3275 3.15475C20.7422 3.57985 20.935 4.12829 20.8564 4.6595Z" fill="#BEA4FF"/>
<path d="M4.78893 9.35674C4.78893 9.92961 4.32451 10.394 3.75164 10.394C3.17877 10.394 2.71436 9.92961 2.71436 9.35674C2.71436 8.78387 3.17877 8.31946 3.75164 8.31946C4.32451 8.31946 4.78893 8.78381 4.78893 9.35674ZM23.3306 8.15833C22.6687 8.15833 22.1323 8.69487 22.1323 9.35669C22.1323 10.0185 22.6688 10.555 23.3306 10.555C23.9924 10.555 24.529 10.0185 24.529 9.35669C24.529 8.69487 23.9925 8.15833 23.3306 8.15833ZM12.6287 23.1972C11.9668 23.1972 11.4303 23.7337 11.4303 24.3955C11.4303 25.0573 11.9668 25.5939 12.6287 25.5939C13.2905 25.5939 13.827 25.0573 13.827 24.3955C13.827 23.7337 13.2905 23.1972 12.6287 23.1972ZM28.5253 17.7101C28.7065 17.3592 28.569 16.9278 28.218 16.7465C28.0781 16.6743 27.9111 16.5785 27.7178 16.4676C26.019 15.493 22.4842 13.4651 18.3221 16.8255C18.0148 17.0736 17.9669 17.5239 18.215 17.8312C18.463 18.1385 18.9132 18.1865 19.2206 17.9383C22.6211 15.1929 25.3661 16.7673 27.006 17.7082C27.2054 17.8225 27.3937 17.9306 27.5617 18.0173C27.6451 18.0604 27.7362 18.0867 27.8298 18.0946C27.9234 18.1024 28.0176 18.0918 28.1071 18.0633C28.1966 18.0348 28.2796 17.9889 28.3513 17.9283C28.4231 17.8677 28.4822 17.7936 28.5253 17.7101Z" fill="#FF6E83"/>
<path d="M25.4786 3.67825C25.4786 4.03051 25.193 4.31604 24.8408 4.31604C24.4885 4.31604 24.203 4.03051 24.203 3.67825C24.203 3.32598 24.4885 3.04045 24.8408 3.04045C25.193 3.04039 25.4786 3.32598 25.4786 3.67825ZM2.7143 0.696878C2.36204 0.696878 2.07651 0.982405 2.07651 1.33467C2.07651 1.68694 2.36204 1.97246 2.7143 1.97246C3.06657 1.97246 3.35215 1.68694 3.35215 1.33467C3.35215 0.982405 3.06657 0.696878 2.7143 0.696878ZM12.7151 9.02053C12.7873 8.87909 12.8762 8.71801 12.9704 8.5475C13.4481 7.68201 14.1024 6.49678 14.1418 5.11631C14.1891 3.45787 13.3253 1.95213 11.5747 0.640921C11.2707 0.413284 10.84 0.475218 10.6125 0.779027C10.3849 1.08289 10.4467 1.51367 10.7506 1.74119C12.1422 2.78346 12.802 3.87465 12.7677 5.07711C12.7378 6.1243 12.1995 7.09953 11.7669 7.88311C11.6673 8.06375 11.573 8.23432 11.4908 8.39563C11.3182 8.73377 11.4524 9.14774 11.7905 9.3203C11.8871 9.36976 11.994 9.39557 12.1024 9.39559C12.2292 9.39567 12.3535 9.36068 12.4617 9.29448C12.5698 9.22829 12.6575 9.13348 12.7151 9.02053Z" fill="#59CAFC"/>
</g>
<defs>
<clipPath id="clip0_2101_2948">
<rect width="30" height="30" fill="white"/>
</clipPath>
</defs>
</svg>
