<?xml version="1.0" encoding="utf-8"?>
<!-- Generator: $$$/GeneralStr/196=Adobe Illustrator 27.6.0, SVG Export Plug-In . SVG Version: 6.00 Build 0)  -->
<svg version="1.1" id="Capa_1" xmlns="http://www.w3.org/2000/svg" xmlns:xlink="http://www.w3.org/1999/xlink" x="0px" y="0px"
	 viewBox="0 0 20 20" style="enable-background:new 0 0 20 20;" xml:space="preserve">
<style type="text/css">
	.st0{fill:none;stroke:#FFFFFF;stroke-width:1.5;}
</style>
<path class="st0" d="M17.8,18.5 M6.4,15.7v2.5l0,0l0,0.5c0,0.3-0.2,0.5-0.5,0.5H4c-1.5,0-2.7-1.2-2.7-2.7V7.9c0-0.5,0.3-1,0.7-1.3
	l0,0l0,0l6.4-5.2l0,0l0,0c0.8-0.7,2.1-0.8,2.9-0.1l0,0L18,6.5c0.4,0.3,0.6,0.8,0.6,1.3v8.7c0,0.7-0.3,1.4-0.8,1.9
	c-0.5,0.5-1.2,0.8-1.9,0.8h0H14c-0.1,0-0.2,0-0.3-0.1c-0.1-0.1-0.1-0.2-0.1-0.3l0,0v0v-3.1c0-0.6-0.2-1.1-0.6-1.5
	c-0.4-0.4-1-0.6-1.5-0.6H8.6C7.4,13.6,6.4,14.5,6.4,15.7z"/>
</svg>
