<svg width="56" height="56" viewBox="0 0 56 56" fill="none" xmlns="http://www.w3.org/2000/svg">
<path d="M27.825 54.5998C16.9706 54.5998 5.25 47.7923 5.25 32.8516C5.25 17.911 16.9706 11.1035 27.825 11.1035C33.8538 11.1035 39.4188 13.0854 43.5444 16.7035C48.0156 20.676 50.3913 26.276 50.3913 32.8516C50.3913 39.4273 48.0156 44.9923 43.5444 48.9604C39.4188 52.5785 33.8144 54.5998 27.825 54.5998Z" fill="url(#paint0_radial_1742_2974)"/>
<path d="M46.4581 19.9238C48.5931 23.4676 49.6868 27.5451 49.6125 31.6838C49.6125 38.2463 47.2368 43.8245 42.7656 47.7926C38.64 51.4107 33.04 53.432 27.0462 53.432C20.02 53.432 12.6393 50.5751 8.30371 44.507C12.4906 51.3801 20.3612 54.6001 27.825 54.6001C33.8143 54.6001 39.4187 52.5788 43.5443 48.9607C48.0156 44.9882 50.3912 39.4276 50.3912 32.852C50.3912 27.8951 49.0393 23.4895 46.4581 19.9238Z" fill="#EB8F00"/>
<path opacity="0.8" d="M14.7875 38.5439C19.0159 38.5439 22.4437 35.312 22.4437 31.3252C22.4437 27.3384 19.0159 24.1064 14.7875 24.1064C10.559 24.1064 7.13123 27.3384 7.13123 31.3252C7.13123 35.312 10.559 38.5439 14.7875 38.5439Z" fill="url(#paint1_radial_1742_2974)"/>
<path opacity="0.8" d="M41.2125 38.5439C45.441 38.5439 48.8688 35.312 48.8688 31.3252C48.8688 27.3384 45.441 24.1064 41.2125 24.1064C36.9841 24.1064 33.5563 27.3384 33.5563 31.3252C33.5563 35.312 36.9841 38.5439 41.2125 38.5439Z" fill="url(#paint2_radial_1742_2974)"/>
<path d="M10.5 8.75C12.1914 8.75 13.5625 7.77062 13.5625 6.5625C13.5625 5.35438 12.1914 4.375 10.5 4.375C8.80863 4.375 7.4375 5.35438 7.4375 6.5625C7.4375 7.77062 8.80863 8.75 10.5 8.75Z" fill="#FF00A2"/>
<path d="M23.3831 12.8057C24.1007 12.0881 23.9206 10.7446 22.9809 9.80493C22.0411 8.86525 20.6976 8.68522 19.9801 9.40282C19.2625 10.1204 19.4426 11.4639 20.3823 12.4036C21.322 13.3433 22.6655 13.5233 23.3831 12.8057Z" fill="#FD3B3B"/>
<path d="M32.7677 9.31688C34.3728 8.07457 35.2063 6.46338 34.6295 5.71819C34.0528 4.97299 32.284 5.37598 30.679 6.61828C29.074 7.86059 28.2404 9.47178 28.8172 10.217C29.394 10.9622 31.1627 10.5592 32.7677 9.31688Z" fill="#00EEFF"/>
<path d="M11.3567 38.1964C11.9635 37.8461 11.8189 36.4594 11.0336 35.0993C10.2483 33.7391 9.11979 32.9205 8.51295 33.2709C7.90612 33.6213 8.05078 35.0079 8.83606 36.368C9.62134 37.7282 10.7499 38.5468 11.3567 38.1964Z" fill="#0048FF"/>
<path d="M42.2188 50.75C43.0644 50.75 43.75 49.6727 43.75 48.3438C43.75 47.0148 43.0644 45.9375 42.2188 45.9375C41.3731 45.9375 40.6875 47.0148 40.6875 48.3438C40.6875 49.6727 41.3731 50.75 42.2188 50.75Z" fill="#F63BBE"/>
<path d="M50.9832 25.695C52.2675 24.7909 53.0831 23.7377 52.805 23.3425C52.5268 22.9474 51.2602 23.3599 49.9759 24.264C48.6916 25.168 47.876 26.2212 48.1542 26.6164C48.4323 27.0115 49.699 26.599 50.9832 25.695Z" fill="#00CC00"/>
<path d="M9.83501 52.9536C10.3401 52.6222 10.1048 51.371 9.3095 50.1588C8.51421 48.9467 7.46007 48.2327 6.95502 48.5641C6.44996 48.8954 6.68524 50.1467 7.48052 51.3588C8.27581 52.571 9.32995 53.285 9.83501 52.9536Z" fill="#0048FF"/>
<path d="M6.63983 44.4038C8.08596 44.3013 9.22367 43.7298 9.18098 43.1273C9.1383 42.5247 7.93138 42.1193 6.48526 42.2217C5.03914 42.3242 3.90142 42.8957 3.94411 43.4982C3.98679 44.1008 5.19371 44.5062 6.63983 44.4038Z" fill="#7ACDED"/>
<path d="M10.5519 38.6743C12.2877 38.559 13.6729 38.1333 13.6456 37.7234C13.6184 37.3135 12.1891 37.0748 10.4533 37.1901C8.71738 37.3054 7.33225 37.7312 7.35948 38.141C7.38671 38.5509 8.81599 38.7897 10.5519 38.6743Z" fill="#FF82B2"/>
<path d="M52.0187 34.2123C51.6468 32.926 50.7587 31.8498 49.5687 31.2373C47.5562 30.1435 45.0362 30.8917 43.9468 32.9042C43.9381 32.9173 43.9337 32.9304 43.925 32.9435C43.4875 33.768 43.3938 34.7321 43.6642 35.6254C43.9347 36.5187 44.5474 37.2689 45.3687 37.7123C46.0468 38.0929 46.8431 38.2023 47.6 38.0185C48.3787 37.8435 49.035 37.3317 49.3937 36.6185C49.7831 35.796 49.7481 34.8335 49.3062 34.0373C49.13 33.6932 48.8687 33.3999 48.547 33.1855C48.2253 32.9711 47.8541 32.8426 47.4687 32.8123C47.0181 32.8035 46.6506 33.1623 46.6418 33.6129C46.6375 34.0198 46.935 34.3698 47.3375 34.431C47.5606 34.4442 47.7619 34.5798 47.8625 34.781C48.0156 35.0917 48.0462 35.4548 47.95 35.7873C47.8771 35.9322 47.7723 36.0586 47.6435 36.1572C47.5147 36.2557 47.3651 36.3237 47.2062 36.356C46.8518 36.4479 46.4756 36.3998 46.1562 36.2248C45.7187 35.9929 45.3906 35.5992 45.2375 35.131C45.1062 34.6498 45.1543 34.1379 45.3687 33.6873C45.5199 33.3924 45.7299 33.1316 45.9858 32.9209C46.2416 32.7102 46.5378 32.5542 46.8562 32.4623C47.4993 32.2785 48.1818 32.3398 48.7812 32.6373C49.5643 33.066 50.1462 33.7923 50.4 34.6498C50.6668 35.5117 50.5706 36.4435 50.1375 37.231C49.3062 38.806 47.6875 39.856 45.325 39.856C43.9687 39.856 35.8969 39.6373 35.8969 39.6373L35.9931 41.6498L45.2375 41.5185C47.9937 41.5185 50.2687 40.4248 51.5812 37.9748C52.2725 36.846 52.43 35.4679 52.0187 34.2123Z" fill="url(#paint3_linear_1742_2974)"/>
<path d="M30.625 40.6876C30.8919 40.972 31.0975 41.3045 31.2375 41.6676L36.2469 41.637C36.2469 40.9807 36.1594 40.3245 36.1594 39.6245C34.8469 39.5807 32.1431 39.537 31.3031 39.5063C31.1824 39.9578 30.9385 40.3668 30.5988 40.6876H30.625Z" fill="#7F0099"/>
<path d="M45.85 23.9748L47.3813 24.1936L47.775 22.6623L47.9938 21.7873L39.2 20.5623C43.1813 23.5811 45.5875 23.9748 45.85 23.9748ZM52.8938 2.3623L49.35 4.3748L48.475 4.85605L52.15 5.38105C52.4125 4.2873 52.8938 2.3623 52.8938 2.3623ZM45.0625 6.78105L41.4313 8.8373L50.925 10.1936L51.5375 7.6998L45.0625 6.78105ZM34.6938 12.6436H34.65L49.7438 14.8311L50.3125 12.5123L38.0188 10.7623L34.6938 12.6436ZM35.9625 17.6748L48.5625 19.4686L49.175 17.1061L33.9938 14.9186C34.1688 15.3998 34.6938 16.3623 35.9625 17.6748Z" fill="#FF4545"/>
<path d="M38.0187 10.7624L50.3125 12.5124L50.925 10.1937L41.4312 8.8374L38.0187 10.7624ZM51.8875 6.34365C51.8875 6.34365 52.0187 5.73115 52.1062 5.4249L48.4312 4.8999L45.0187 6.8249L51.4937 7.74365L51.8875 6.34365ZM33.3812 13.3437L33.8625 14.7437C33.88 14.8224 33.9106 14.8968 33.95 14.9624L49.1312 17.1499L49.7 14.8312L34.6062 12.6874L33.3812 13.3437ZM39.025 20.4312C39.0687 20.4749 39.1562 20.5187 39.2 20.5624L47.9937 21.8312L48.5625 19.5124L35.9625 17.7187C36.9206 18.6899 37.9443 19.5955 39.025 20.4312Z" fill="#FF9C9C"/>
<path d="M52.85 4.94365C54.0098 4.94365 54.95 4.00345 54.95 2.84365C54.95 1.68385 54.0098 0.743652 52.85 0.743652C51.6902 0.743652 50.75 1.68385 50.75 2.84365C50.75 4.00345 51.6902 4.94365 52.85 4.94365Z" fill="#C93737"/>
<path d="M31.43 40.1759C32.0735 39.6195 32.4765 38.8355 32.5543 37.9884C32.6768 37.1352 32.4231 36.2734 31.8543 35.6259C30.835 34.2871 28 34.6196 28 34.6196C27.2387 34.6502 26.3593 35.0134 26.4687 35.8884C26.5392 36.1349 26.6746 36.358 26.8609 36.5343C27.0471 36.7106 27.2774 36.8335 27.5275 36.8902C28.6475 37.1571 30.2443 36.8902 30.2881 38.0277C30.3406 39.3052 28.3806 38.7802 28.2231 40.1321C28.0656 41.484 30.2881 41.3046 30.2881 42.2365C30.2881 42.9496 29.5575 43.0721 28.7875 43.234C28.1268 43.3696 26.8581 43.5752 26.7575 44.3321C26.6568 45.089 27.09 46.0209 28.875 45.7496C31.6837 45.3121 32.6287 43.7852 32.6287 42.8402C32.6462 41.8165 32.2087 40.8409 31.43 40.1759ZM21.8137 28.6259L21.7481 28.5427L21.5731 28.3196L21.35 28.079C21.2625 27.9827 21.1575 27.8777 21.0525 27.7727C20.9431 27.6677 20.8293 27.5671 20.7068 27.4752C20.5975 27.3921 20.4837 27.3177 20.3612 27.2521C20.2781 27.204 20.1862 27.169 20.09 27.1515C20.061 27.1471 20.0315 27.1471 20.0025 27.1515H19.9675H20.0462H19.8187C19.7618 27.1515 19.8187 27.1515 19.8187 27.1515H19.8493C19.8843 27.1515 19.8493 27.1515 19.8493 27.1515C19.8336 27.1471 19.817 27.1471 19.8012 27.1515C19.705 27.169 19.6131 27.204 19.53 27.2521C19.4075 27.3177 19.2937 27.3921 19.1843 27.4752C19.0706 27.5627 18.9525 27.6677 18.8387 27.7727C18.6243 27.9827 18.4362 28.2102 18.305 28.3459L18.095 28.5952L17.9987 28.7046C17.7109 29.0232 17.3159 29.2246 16.8891 29.2706C16.4622 29.3166 16.0334 29.2039 15.6843 28.954C15.225 28.6346 14.9887 28.079 15.0762 27.5234C15.0762 27.5234 15.1068 27.3571 15.1856 27.0859C15.3081 26.6659 15.4831 26.2634 15.7018 25.8871C16.0431 25.2659 16.5068 24.719 17.0625 24.2815C17.4431 23.9927 17.8631 23.7609 18.3137 23.599C18.4362 23.5509 18.5675 23.5115 18.6943 23.4809C18.8387 23.4371 18.9831 23.4065 19.1318 23.3846L19.3856 23.3496H20.3568C20.4925 23.3496 20.6325 23.3846 20.7681 23.4065C21.5056 23.5399 22.2012 23.8457 22.7981 24.299C23.3625 24.7277 23.8393 25.2659 24.1893 25.8827C24.3162 26.0971 24.43 26.3246 24.5218 26.5565C24.605 26.749 24.6662 26.9546 24.7187 27.1077C24.7712 27.2609 24.7668 27.3352 24.7843 27.4096V27.5102C24.8407 27.9163 24.7338 28.3281 24.4869 28.6554C24.24 28.9826 23.8734 29.1986 23.4675 29.2559C23.45 29.2602 23.4325 29.2602 23.4193 29.2602C22.8112 29.3521 22.1943 29.1115 21.8137 28.6259ZM38.0625 28.6259L37.9968 28.5427L37.8218 28.3196L37.625 28.079C37.5375 27.9827 37.4325 27.8777 37.3275 27.7727C37.2181 27.6677 37.1043 27.5671 36.9818 27.4752C36.8725 27.3921 36.7587 27.3177 36.6362 27.2521C36.5531 27.204 36.4612 27.169 36.3693 27.1515C36.3403 27.1471 36.3108 27.1471 36.2818 27.1515H36.2468H36.3125H36.085C36.0237 27.1515 36.085 27.1515 36.085 27.1515H36.1156C36.1506 27.1515 36.1156 27.1515 36.1156 27.1515H36.0675C35.9756 27.169 35.8837 27.204 35.8006 27.2521C35.6781 27.3177 35.5643 27.3921 35.455 27.4752C35.3325 27.5671 35.2187 27.6677 35.1093 27.7727C34.8906 27.9827 34.7068 28.2102 34.5712 28.3459L34.3612 28.5952L34.265 28.7046C33.9772 29.0232 33.5822 29.2246 33.1553 29.2706C32.7285 29.3166 32.2997 29.2039 31.9506 28.954C31.4912 28.6346 31.255 28.079 31.3425 27.5234C31.3425 27.5234 31.3731 27.3571 31.4562 27.0859C31.5656 26.6615 31.7275 26.2502 31.9375 25.8652C32.2875 25.2484 32.7643 24.7102 33.3287 24.2815C33.7093 23.9927 34.1337 23.7609 34.5843 23.599C34.7068 23.5509 34.8337 23.5115 34.9606 23.4809C35.105 23.4371 35.2493 23.4065 35.3981 23.3846L35.6518 23.3496H36.6231C36.7631 23.3496 36.8987 23.3846 37.0343 23.4065C37.7737 23.5334 38.4693 23.8352 39.0687 24.2815C39.6331 24.7102 40.1056 25.2484 40.46 25.8652C40.5868 26.0796 40.6962 26.3071 40.7881 26.539C40.8668 26.7184 40.9325 26.9021 40.985 27.0902C41.0156 27.1909 41.0375 27.2915 41.0506 27.3921V27.4927C41.0795 27.6927 41.0688 27.8964 41.0189 28.0922C40.969 28.288 40.881 28.472 40.7599 28.6338C40.6388 28.7955 40.487 28.9318 40.3131 29.0348C40.1393 29.1378 39.9469 29.2055 39.7468 29.234C39.7293 29.2384 39.7118 29.2384 39.69 29.2427C39.0775 29.339 38.4562 29.1071 38.0625 28.6259Z" fill="#422B0D"/>
<defs>
<radialGradient id="paint0_radial_1742_2974" cx="0" cy="0" r="1" gradientUnits="userSpaceOnUse" gradientTransform="translate(27.8206 32.8516) scale(22.1633 22.1633)">
<stop offset="0.5" stop-color="#FDE030"/>
<stop offset="0.92" stop-color="#F7C02B"/>
<stop offset="1" stop-color="#F4A223"/>
</radialGradient>
<radialGradient id="paint1_radial_1742_2974" cx="0" cy="0" r="1" gradientUnits="userSpaceOnUse" gradientTransform="translate(14.7876 32.8647) scale(8.33318 7.48286)">
<stop stop-color="#ED7770"/>
<stop offset="0.9" stop-color="#ED7770" stop-opacity="0"/>
</radialGradient>
<radialGradient id="paint2_radial_1742_2974" cx="0" cy="0" r="1" gradientUnits="userSpaceOnUse" gradientTransform="translate(55.3525 513.008) scale(8.50062)">
<stop stop-color="#ED7770"/>
<stop offset="0.9" stop-color="#ED7770" stop-opacity="0"/>
</radialGradient>
<linearGradient id="paint3_linear_1742_2974" x1="35.9581" y1="36.1924" x2="52.2287" y2="36.1924" gradientUnits="userSpaceOnUse">
<stop stop-color="#004054"/>
<stop offset="0.99" stop-color="#45A4FF"/>
</linearGradient>
</defs>
</svg>
